<?xml version="1.0" encoding="UTF-8" standalone="no"?>
<!DOCTYPE svg PUBLIC "-//W3C//DTD SVG 1.1//EN"
 "http://www.w3.org/Graphics/SVG/1.1/DTD/svg11.dtd">
<!-- Generated by graphviz version 2.40.1 (20161225.0304)
 -->
<!-- Pages: 1 -->
<svg width="286pt" height="404pt"
 viewBox="0.00 0.00 286.25 404.00" xmlns="http://www.w3.org/2000/svg" xmlns:xlink="http://www.w3.org/1999/xlink">
<g id="graph0" class="graph" transform="scale(1 1) rotate(0) translate(4 400)">
<polygon fill="#ffffff" stroke="transparent" points="-4,4 -4,-400 282.25,-400 282.25,4 -4,4"/>
<!-- 0 -->
<g id="node1" class="node">
<title>0</title>
<ellipse fill="#c0c0c0" stroke="#000000" cx="86" cy="-378" rx="33.4852" ry="18"/>
<text text-anchor="middle" x="86" y="-374.9" font-family="Times,serif" font-size="12.00" fill="#000000">BEGIN</text>
</g>
<!-- 1 -->
<g id="node2" class="node">
<title>1</title>
<polygon fill="none" stroke="#000000" points="153,-324 97,-324 97,-264 153,-264 153,-324"/>
<text text-anchor="middle" x="125" y="-310.4" font-family="Times,serif" font-size="12.00" fill="#000000">number,</text>
<text text-anchor="middle" x="125" y="-297.4" font-family="Times,serif" font-size="12.00" fill="#000000">flight,</text>
<text text-anchor="middle" x="125" y="-284.4" font-family="Times,serif" font-size="12.00" fill="#000000">provide,</text>
<text text-anchor="middle" x="125" y="-271.4" font-family="Times,serif" font-size="12.00" fill="#000000">received</text>
</g>
<!-- 0&#45;&gt;1 -->
<g id="edge1" class="edge">
<title>0&#45;&gt;1</title>
<path fill="none" stroke="#000000" stroke-width="1.3128" d="M94.271,-360.19C97.927,-352.31 102.38,-342.72 106.75,-333.3"/>
<polygon fill="#000000" stroke="#000000" stroke-width="1.3128" points="110.022,-334.5639 111.06,-324.02 103.6733,-331.6153 110.022,-334.5639"/>
</g>
<!-- 2 -->
<g id="node3" class="node">
<title>2</title>
<polygon fill="none" stroke="#000000" points="254.5,-221.5 165.5,-221.5 165.5,-174.5 254.5,-174.5 254.5,-221.5"/>
<text text-anchor="middle" x="210" y="-207.9" font-family="Times,serif" font-size="12.00" fill="#000000">thank,</text>
<text text-anchor="middle" x="210" y="-194.9" font-family="Times,serif" font-size="12.00" fill="#000000">companyname,</text>
<text text-anchor="middle" x="210" y="-181.9" font-family="Times,serif" font-size="12.00" fill="#000000">much, thanks</text>
</g>
<!-- 0&#45;&gt;2 -->
<g id="edge2" class="edge">
<title>0&#45;&gt;2</title>
<path fill="none" stroke="#000000" stroke-width="2.0467" d="M114.48,-368.68C135.68,-360.28 163.67,-345.86 180,-324 199.96,-297.28 206.86,-259.23 209.14,-231.95"/>
<polygon fill="#000000" stroke="#000000" stroke-width="2.0467" points="212.6503,-231.9098 209.82,-221.7 205.6656,-231.4463 212.6503,-231.9098"/>
</g>
<!-- 5 -->
<g id="node4" class="node">
<title>5</title>
<polygon fill="none" stroke="#000000" points="108.5,-228 19.5,-228 19.5,-168 108.5,-168 108.5,-228"/>
<text text-anchor="middle" x="64" y="-214.4" font-family="Times,serif" font-size="12.00" fill="#000000">flight,</text>
<text text-anchor="middle" x="64" y="-201.4" font-family="Times,serif" font-size="12.00" fill="#000000">companyname,</text>
<text text-anchor="middle" x="64" y="-188.4" font-family="Times,serif" font-size="12.00" fill="#000000">received,</text>
<text text-anchor="middle" x="64" y="-175.4" font-family="Times,serif" font-size="12.00" fill="#000000">pleasure</text>
</g>
<!-- 0&#45;&gt;5 -->
<g id="edge3" class="edge">
<title>0&#45;&gt;5</title>
<path fill="none" stroke="#000000" stroke-width="3.521" d="M83.769,-359.75C80.315,-331.48 73.585,-276.42 68.944,-238.45"/>
<polygon fill="#000000" stroke="#000000" stroke-width="3.521" points="72.3823,-237.7315 67.695,-228.23 65.434,-238.5808 72.3823,-237.7315"/>
</g>
<!-- 1&#45;&gt;1 -->
<g id="edge4" class="edge">
<title>1&#45;&gt;1</title>
<path fill="none" stroke="#000000" stroke-width="1.4332" d="M153.3,-309.75C163.09,-309.91 171,-304.66 171,-294 171,-287.33 167.91,-282.79 163.2,-280.35"/>
<polygon fill="#000000" stroke="#000000" stroke-width="1.4332" points="163.8086,-276.9013 153.3,-278.25 162.3561,-283.7489 163.8086,-276.9013"/>
</g>
<!-- 1&#45;&gt;2 -->
<g id="edge5" class="edge">
<title>1&#45;&gt;2</title>
<path fill="none" stroke="#000000" stroke-width="1.5997" d="M145.35,-263.89C154.59,-252.81 165.7,-240.24 176.12,-229.08"/>
<polygon fill="#000000" stroke="#000000" stroke-width="1.5997" points="178.858,-231.2788 183.19,-221.61 173.774,-226.467 178.858,-231.2788"/>
</g>
<!-- 1&#45;&gt;5 -->
<g id="edge6" class="edge">
<title>1&#45;&gt;5</title>
<path fill="none" stroke="#000000" stroke-width="1.0504" d="M99.552,-263.89C93.665,-255.31 87.541,-245.84 82.03,-236.82"/>
<polygon fill="#000000" stroke="#000000" stroke-width="1.0504" points="84.8921,-234.7864 76.756,-228 78.8842,-238.3789 84.8921,-234.7864"/>
</g>
<!-- 4 -->
<g id="node5" class="node">
<title>4</title>
<polygon fill="none" stroke="#000000" points="62,-132 0,-132 0,-72 62,-72 62,-132"/>
<text text-anchor="middle" x="31" y="-118.4" font-family="Times,serif" font-size="12.00" fill="#000000">welcome,</text>
<text text-anchor="middle" x="31" y="-105.4" font-family="Times,serif" font-size="12.00" fill="#000000">problem,</text>
<text text-anchor="middle" x="31" y="-92.4" font-family="Times,serif" font-size="12.00" fill="#000000">behalf,</text>
<text text-anchor="middle" x="31" y="-79.4" font-family="Times,serif" font-size="12.00" fill="#000000">pleasure</text>
</g>
<!-- 1&#45;&gt;4 -->
<g id="edge7" class="edge">
<title>1&#45;&gt;4</title>
<path fill="none" stroke="#000000" stroke-width=".9868" d="M129.79,-263.86C132.55,-237.08 132.83,-197.69 117,-168 106.75,-148.77 88.168,-133.43 70.898,-122.4"/>
<polygon fill="#000000" stroke="#000000" stroke-width=".9868" points="72.4004,-119.2176 62.036,-117.02 68.7678,-125.2013 72.4004,-119.2176"/>
</g>
<!-- 6 -->
<g id="node6" class="node">
<title>6</title>
<ellipse fill="#c0c0c0" stroke="#000000" cx="75" cy="-18" rx="27" ry="18"/>
<text text-anchor="middle" x="75" y="-14.9" font-family="Times,serif" font-size="12.00" fill="#000000">END</text>
</g>
<!-- 1&#45;&gt;6 -->
<g id="edge8" class="edge">
<title>1&#45;&gt;6</title>
<path fill="none" stroke="#000000" stroke-width="2.3273" d="M153.01,-289.71C186.09,-282.99 239.66,-266.5 264,-228 278.25,-205.46 269.11,-194.17 264,-168 255.17,-122.8 258.21,-103.9 225,-72 194.02,-42.244 145.47,-28.72 112.04,-22.683"/>
<polygon fill="#000000" stroke="#000000" stroke-width="2.3273" points="112.1985,-19.1614 101.76,-20.975 111.0511,-26.0668 112.1985,-19.1614"/>
</g>
<!-- 2&#45;&gt;1 -->
<g id="edge9" class="edge">
<title>2&#45;&gt;1</title>
<path fill="none" stroke="#000000" stroke-width="1.6736" d="M195.07,-221.53C185.32,-233.57 172.35,-248.42 160.17,-261.54"/>
<polygon fill="#000000" stroke="#000000" stroke-width="1.6736" points="157.4254,-259.3494 153.12,-269.03 162.5226,-264.1472 157.4254,-259.3494"/>
</g>
<!-- 2&#45;&gt;4 -->
<g id="edge10" class="edge">
<title>2&#45;&gt;4</title>
<path fill="none" stroke="#000000" stroke-width="3.7522" d="M165.48,-177.17C136.42,-162.29 98.895,-142.22 70.818,-126.56"/>
<polygon fill="#000000" stroke="#000000" stroke-width="3.7522" points="72.49,-123.4848 62.057,-121.64 69.0624,-129.5883 72.49,-123.4848"/>
</g>
<!-- 3 -->
<g id="node7" class="node">
<title>3</title>
<polygon fill="none" stroke="#000000" points="198,-125.5 118,-125.5 118,-78.5 198,-78.5 198,-125.5"/>
<text text-anchor="middle" x="158" y="-111.9" font-family="Times,serif" font-size="12.00" fill="#000000">dm,</text>
<text text-anchor="middle" x="158" y="-98.9" font-family="Times,serif" font-size="12.00" fill="#000000">confirmation,</text>
<text text-anchor="middle" x="158" y="-85.9" font-family="Times,serif" font-size="12.00" fill="#000000">via, please</text>
</g>
<!-- 2&#45;&gt;3 -->
<g id="edge11" class="edge">
<title>2&#45;&gt;3</title>
<path fill="none" stroke="#000000" stroke-width="1.9213" d="M191.23,-174.27C183.9,-162.38 175.83,-147.81 169.36,-134.86"/>
<polygon fill="#000000" stroke="#000000" stroke-width="1.9213" points="172.4771,-133.2663 164.97,-125.79 166.1763,-136.3159 172.4771,-133.2663"/>
</g>
<!-- 5&#45;&gt;1 -->
<g id="edge12" class="edge">
<title>5&#45;&gt;1</title>
<path fill="none" stroke="#000000" stroke-width="2.7884" d="M89.375,-228C95.26,-236.58 101.39,-246.04 106.9,-255.06"/>
<polygon fill="#000000" stroke="#000000" stroke-width="2.7884" points="104.0439,-257.1036 112.18,-263.89 110.0518,-253.5111 104.0439,-257.1036"/>
</g>
<!-- 5&#45;&gt;4 -->
<g id="edge13" class="edge">
<title>5&#45;&gt;4</title>
<path fill="none" stroke="#000000" stroke-width="2.559" d="M53.649,-167.89C50.793,-159.58 47.649,-150.43 44.637,-141.67"/>
<polygon fill="#000000" stroke="#000000" stroke-width="2.559" points="47.874,-140.3197 41.314,-132 41.2539,-142.5947 47.874,-140.3197"/>
</g>
<!-- 5&#45;&gt;3 -->
<g id="edge14" class="edge">
<title>5&#45;&gt;3</title>
<path fill="none" stroke="#000000" stroke-width="2.0036" d="M93.484,-167.89C104.44,-156.7 116.87,-144 127.88,-132.76"/>
<polygon fill="#000000" stroke="#000000" stroke-width="2.0036" points="130.3852,-135.2042 134.88,-125.61 125.3833,-130.3071 130.3852,-135.2042"/>
</g>
<!-- 4&#45;&gt;2 -->
<g id="edge15" class="edge">
<title>4&#45;&gt;2</title>
<path fill="none" stroke="#000000" stroke-width="1.4563" d="M62.231,-116.1C89.99,-130 130.8,-151.65 162.55,-169.2"/>
<polygon fill="#000000" stroke="#000000" stroke-width="1.4563" points="161.2291,-172.4702 171.67,-174.27 164.6304,-166.352 161.2291,-172.4702"/>
</g>
<!-- 4&#45;&gt;6 -->
<g id="edge16" class="edge">
<title>4&#45;&gt;6</title>
<path fill="none" stroke="#000000" stroke-width="4.1357" d="M46.885,-71.674C51.585,-62.701 56.69,-52.956 61.243,-44.263"/>
<polygon fill="#000000" stroke="#000000" stroke-width="4.1357" points="64.4887,-45.8655 65.923,-35.328 58.0774,-42.5074 64.4887,-45.8655"/>
</g>
<!-- 3&#45;&gt;2 -->
<g id="edge17" class="edge">
<title>3&#45;&gt;2</title>
<path fill="none" stroke="#000000" stroke-width="1.6293" d="M176.81,-125.79C184.14,-137.68 192.21,-152.26 198.67,-165.2"/>
<polygon fill="#000000" stroke="#000000" stroke-width="1.6293" points="195.5529,-166.7937 203.06,-174.27 201.8537,-163.7441 195.5529,-166.7937"/>
</g>
<!-- 3&#45;&gt;6 -->
<g id="edge18" class="edge">
<title>3&#45;&gt;6</title>
<path fill="none" stroke="#000000" stroke-width="3.546" d="M134.44,-78.154C122.72,-66.297 108.64,-52.049 97.131,-40.397"/>
<polygon fill="#000000" stroke="#000000" stroke-width="3.546" points="99.5043,-37.8192 89.986,-33.166 94.525,-42.7393 99.5043,-37.8192"/>
</g>
<!-- 3&#45;&gt;3 -->
<g id="edge19" class="edge">
<title>3&#45;&gt;3</title>
<path fill="none" stroke="#000000" stroke-width="1.0549" d="M198.12,-117.56C208.33,-116.54 216,-111.35 216,-102 216,-96.009 212.85,-91.727 207.91,-89.155"/>
<polygon fill="#000000" stroke="#000000" stroke-width="1.0549" points="208.6918,-85.7397 198.12,-86.438 206.8198,-92.4848 208.6918,-85.7397"/>
</g>
</g>
</svg>
