<?xml version="1.0" encoding="UTF-8" standalone="no"?>
<!DOCTYPE svg PUBLIC "-//W3C//DTD SVG 1.1//EN"
 "http://www.w3.org/Graphics/SVG/1.1/DTD/svg11.dtd">
<!-- Generated by graphviz version 2.40.1 (20161225.0304)
 -->
<!-- Pages: 1 -->
<svg width="344pt" height="524pt"
 viewBox="0.00 0.00 344.06 524.00" xmlns="http://www.w3.org/2000/svg" xmlns:xlink="http://www.w3.org/1999/xlink">
<g id="graph0" class="graph" transform="scale(1 1) rotate(0) translate(4 520)">
<polygon fill="#ffffff" stroke="transparent" points="-4,4 -4,-520 340.0597,-520 340.0597,4 -4,4"/>
<!-- 0 -->
<g id="node1" class="node">
<title>0</title>
<ellipse fill="#c0c0c0" stroke="#000000" cx="33.2417" cy="-498" rx="33.4852" ry="18"/>
<text text-anchor="middle" x="33.2417" y="-494.9" font-family="Times,serif" font-size="12.00" fill="#000000">BEGIN</text>
</g>
<!-- 1 -->
<g id="node2" class="node">
<title>1</title>
<polygon fill="none" stroke="#000000" points="181.2397,-444 97.2397,-444 97.2397,-371 181.2397,-371 181.2397,-444"/>
<text text-anchor="middle" x="139.2397" y="-430.4" font-family="Times,serif" font-size="12.00" fill="#000000">southwesthear</text>
<text text-anchor="middle" x="139.2397" y="-417.4" font-family="Times,serif" font-size="12.00" fill="#000000">t,</text>
<text text-anchor="middle" x="139.2397" y="-404.4" font-family="Times,serif" font-size="12.00" fill="#000000">confirmation,</text>
<text text-anchor="middle" x="139.2397" y="-391.4" font-family="Times,serif" font-size="12.00" fill="#000000">southwestair,</text>
<text text-anchor="middle" x="139.2397" y="-378.4" font-family="Times,serif" font-size="12.00" fill="#000000">creamer</text>
</g>
<!-- 0&#45;&gt;1 -->
<g id="edge1" class="edge">
<title>0&#45;&gt;1</title>
<path fill="none" stroke="#000000" stroke-width="1.1687" d="M51.2227,-482.65C61.6907,-473.71 75.4567,-461.96 88.9847,-450.41"/>
<polygon fill="#000000" stroke="#000000" stroke-width="1.1687" points="91.5665,-452.8076 96.8947,-443.65 87.0187,-447.4861 91.5665,-452.8076"/>
</g>
<!-- 2 -->
<g id="node3" class="node">
<title>2</title>
<polygon fill="none" stroke="#000000" points="240.2397,-47 176.2397,-47 176.2397,0 240.2397,0 240.2397,-47"/>
<text text-anchor="middle" x="208.2397" y="-33.4" font-family="Times,serif" font-size="12.00" fill="#000000">delta,</text>
<text text-anchor="middle" x="208.2397" y="-20.4" font-family="Times,serif" font-size="12.00" fill="#000000">choosing,</text>
<text text-anchor="middle" x="208.2397" y="-7.4" font-family="Times,serif" font-size="12.00" fill="#000000">thank, thx</text>
</g>
<!-- 0&#45;&gt;2 -->
<g id="edge2" class="edge">
<title>0&#45;&gt;2</title>
<path fill="none" stroke="#000000" stroke-width="1.5862" d="M66.0267,-494.5C100.8197,-489.18 155.4697,-476.03 190.2397,-444 297.6797,-345.03 292.2697,-285.97 322.2397,-143 327.7097,-116.9 336.0597,-105.81 322.2397,-83 306.6597,-57.296 275.9397,-42.172 250.3097,-33.608"/>
<polygon fill="#000000" stroke="#000000" stroke-width="1.5862" points="251.0079,-30.1599 240.4197,-30.535 248.9308,-36.8447 251.0079,-30.1599"/>
</g>
<!-- 4 -->
<g id="node4" class="node">
<title>4</title>
<polygon fill="none" stroke="#000000" points="157.2397,-335 83.2397,-335 83.2397,-275 157.2397,-275 157.2397,-335"/>
<text text-anchor="middle" x="120.2397" y="-321.4" font-family="Times,serif" font-size="12.00" fill="#000000">americanair,</text>
<text text-anchor="middle" x="120.2397" y="-308.4" font-family="Times,serif" font-size="12.00" fill="#000000">welcome,</text>
<text text-anchor="middle" x="120.2397" y="-295.4" font-family="Times,serif" font-size="12.00" fill="#000000">thank,</text>
<text text-anchor="middle" x="120.2397" y="-282.4" font-family="Times,serif" font-size="12.00" fill="#000000">problem</text>
</g>
<!-- 0&#45;&gt;4 -->
<g id="edge3" class="edge">
<title>0&#45;&gt;4</title>
<path fill="none" stroke="#000000" stroke-width=".8206" d="M40.6557,-480.23C51.0057,-455.57 70.5097,-409.66 88.2417,-371 92.2187,-362.33 96.6077,-353.08 100.8297,-344.34"/>
<polygon fill="#000000" stroke="#000000" stroke-width=".8206" points="104.0963,-345.6251 105.3097,-335.1 97.7976,-342.5712 104.0963,-345.6251"/>
</g>
<!-- 5 -->
<g id="node5" class="node">
<title>5</title>
<polygon fill="none" stroke="#000000" points="195.7397,-239 116.7397,-239 116.7397,-179 195.7397,-179 195.7397,-239"/>
<text text-anchor="middle" x="156.2397" y="-225.4" font-family="Times,serif" font-size="12.00" fill="#000000">airasiasuppor</text>
<text text-anchor="middle" x="156.2397" y="-212.4" font-family="Times,serif" font-size="12.00" fill="#000000">t, alaskaair,</text>
<text text-anchor="middle" x="156.2397" y="-199.4" font-family="Times,serif" font-size="12.00" fill="#000000">received,</text>
<text text-anchor="middle" x="156.2397" y="-186.4" font-family="Times,serif" font-size="12.00" fill="#000000">replied</text>
</g>
<!-- 0&#45;&gt;5 -->
<g id="edge4" class="edge">
<title>0&#45;&gt;5</title>
<path fill="none" stroke="#000000" stroke-width="2.0831" d="M32.3117,-479.97C31.0987,-439.9 32.9117,-341.78 74.2417,-275 82.8407,-261.11 95.4367,-248.87 108.1897,-238.82"/>
<polygon fill="#000000" stroke="#000000" stroke-width="2.0831" points="110.6564,-241.3446 116.5497,-232.54 106.4521,-235.7478 110.6564,-241.3446"/>
</g>
<!-- 1&#45;&gt;4 -->
<g id="edge5" class="edge">
<title>1&#45;&gt;4</title>
<path fill="none" stroke="#000000" stroke-width="2.4462" d="M132.4397,-370.78C130.8897,-362.45 129.2397,-353.56 127.6697,-345.1"/>
<polygon fill="#000000" stroke="#000000" stroke-width="2.4462" points="131.0712,-344.246 125.8097,-335.05 124.1881,-345.52 131.0712,-344.246"/>
</g>
<!-- 1&#45;&gt;5 -->
<g id="edge6" class="edge">
<title>1&#45;&gt;5</title>
<path fill="none" stroke="#000000" stroke-width="1.5754" d="M167.5597,-370.63C174.3797,-359.74 180.7097,-347.39 184.2397,-335 191.5497,-309.36 189.5597,-301.13 184.2397,-275 182.4397,-266.14 179.4097,-256.99 175.9797,-248.43"/>
<polygon fill="#000000" stroke="#000000" stroke-width="1.5754" points="179.1337,-246.903 171.9997,-239.07 172.6919,-249.6422 179.1337,-246.903"/>
</g>
<!-- 3 -->
<g id="node6" class="node">
<title>3</title>
<polygon fill="none" stroke="#000000" points="277.2397,-143 209.2397,-143 209.2397,-83 277.2397,-83 277.2397,-143"/>
<text text-anchor="middle" x="243.2397" y="-129.4" font-family="Times,serif" font-size="12.00" fill="#000000">look,</text>
<text text-anchor="middle" x="243.2397" y="-116.4" font-family="Times,serif" font-size="12.00" fill="#000000">appreciate,</text>
<text text-anchor="middle" x="243.2397" y="-103.4" font-family="Times,serif" font-size="12.00" fill="#000000">privilege,</text>
<text text-anchor="middle" x="243.2397" y="-90.4" font-family="Times,serif" font-size="12.00" fill="#000000">please</text>
</g>
<!-- 1&#45;&gt;3 -->
<g id="edge7" class="edge">
<title>1&#45;&gt;3</title>
<path fill="none" stroke="#000000" stroke-width="1.4764" d="M175.7797,-370.76C184.8897,-359.96 193.8697,-347.63 200.2397,-335 229.8597,-276.31 239.1297,-199.41 241.9997,-153.24"/>
<polygon fill="#000000" stroke="#000000" stroke-width="1.4764" points="245.5067,-153.2067 242.5597,-143.03 238.5172,-152.8233 245.5067,-153.2067"/>
</g>
<!-- 2&#45;&gt;4 -->
<g id="edge8" class="edge">
<title>2&#45;&gt;4</title>
<path fill="none" stroke="#000000" stroke-width="2.0795" d="M240.3397,-33.916C262.6397,-43.026 290.6997,-58.672 304.2397,-83 317.2097,-106.3 313.3997,-117.95 304.2397,-143 280.4797,-208.02 212.6297,-255.82 166.3097,-282.03"/>
<polygon fill="#000000" stroke="#000000" stroke-width="2.0795" points="164.4103,-279.0807 157.3497,-286.98 167.7953,-285.2078 164.4103,-279.0807"/>
</g>
<!-- 2&#45;&gt;5 -->
<g id="edge9" class="edge">
<title>2&#45;&gt;5</title>
<path fill="none" stroke="#000000" stroke-width="1.1238" d="M240.3897,-38.831C257.3797,-48.819 276.6497,-63.614 286.2397,-83 298.0697,-106.9 300.1897,-120.27 286.2397,-143 281.4097,-150.87 239.8297,-171.22 204.9697,-187.26"/>
<polygon fill="#000000" stroke="#000000" stroke-width="1.1238" points="203.4545,-184.1043 195.8197,-191.45 206.369,-190.4687 203.4545,-184.1043"/>
</g>
<!-- 2&#45;&gt;3 -->
<g id="edge10" class="edge">
<title>2&#45;&gt;3</title>
<path fill="none" stroke="#000000" stroke-width="1.9306" d="M223.5797,-47.264C227.2797,-55.246 231.0697,-64.379 234.4097,-73.247"/>
<polygon fill="#000000" stroke="#000000" stroke-width="1.9306" points="231.1337,-74.4802 237.8197,-82.699 237.7183,-72.1046 231.1337,-74.4802"/>
</g>
<!-- 4&#45;&gt;4 -->
<g id="edge11" class="edge">
<title>4&#45;&gt;4</title>
<path fill="none" stroke="#000000" stroke-width="1.1203" d="M157.2597,-322.89C167.4497,-322.03 175.2397,-316.06 175.2397,-305 175.2397,-297.91 172.0397,-292.92 167.0697,-290.02"/>
<polygon fill="#000000" stroke="#000000" stroke-width="1.1203" points="167.8422,-286.5985 157.2597,-287.11 165.8514,-293.3094 167.8422,-286.5985"/>
</g>
<!-- 4&#45;&gt;5 -->
<g id="edge12" class="edge">
<title>4&#45;&gt;5</title>
<path fill="none" stroke="#000000" stroke-width=".839" d="M125.2197,-274.89C127.9397,-266.49 131.2997,-257.24 134.8197,-248.39"/>
<polygon fill="#000000" stroke="#000000" stroke-width=".839" points="138.1148,-249.5798 138.6797,-239 131.6404,-246.9183 138.1148,-249.5798"/>
</g>
<!-- 6 -->
<g id="node7" class="node">
<title>6</title>
<ellipse fill="#c0c0c0" stroke="#000000" cx="97.2417" cy="-23.5" rx="27" ry="18"/>
<text text-anchor="middle" x="97.2417" y="-20.4" font-family="Times,serif" font-size="12.00" fill="#000000">END</text>
</g>
<!-- 4&#45;&gt;6 -->
<g id="edge13" class="edge">
<title>4&#45;&gt;6</title>
<path fill="none" stroke="#000000" stroke-width="2.4976" d="M113.9197,-274.89C111.7897,-263.67 109.6097,-250.8 108.2397,-239 100.4997,-172.22 98.2057,-93.162 97.5267,-51.861"/>
<polygon fill="#000000" stroke="#000000" stroke-width="2.4976" points="101.0245,-51.6775 97.3807,-41.729 94.0252,-51.7784 101.0245,-51.6775"/>
</g>
<!-- 5&#45;&gt;4 -->
<g id="edge14" class="edge">
<title>5&#45;&gt;4</title>
<path fill="none" stroke="#000000" stroke-width="1.3303" d="M151.2997,-239C148.5797,-247.4 145.2297,-256.65 141.7097,-265.5"/>
<polygon fill="#000000" stroke="#000000" stroke-width="1.3303" points="138.4146,-264.3102 137.8497,-274.89 144.889,-266.9717 138.4146,-264.3102"/>
</g>
<!-- 5&#45;&gt;5 -->
<g id="edge15" class="edge">
<title>5&#45;&gt;5</title>
<path fill="none" stroke="#000000" stroke-width="1.581" d="M195.7497,-226.81C206.0097,-225.72 213.7397,-219.78 213.7397,-209 213.7397,-202.09 210.5697,-197.17 205.5897,-194.24"/>
<polygon fill="#000000" stroke="#000000" stroke-width="1.581" points="206.3376,-190.8076 195.7497,-191.19 204.2651,-197.4938 206.3376,-190.8076"/>
</g>
<!-- 5&#45;&gt;3 -->
<g id="edge16" class="edge">
<title>5&#45;&gt;3</title>
<path fill="none" stroke="#000000" stroke-width="1.2259" d="M177.2197,-178.89C184.9397,-169.86 193.9097,-159.85 202.7297,-150.42"/>
<polygon fill="#000000" stroke="#000000" stroke-width="1.2259" points="205.4165,-152.6727 209.7397,-143 200.3281,-147.8655 205.4165,-152.6727"/>
</g>
<!-- 5&#45;&gt;6 -->
<g id="edge17" class="edge">
<title>5&#45;&gt;6</title>
<path fill="none" stroke="#000000" stroke-width="1.1202" d="M146.6297,-178.78C135.3897,-143.43 116.9197,-85.383 106.0397,-51.166"/>
<polygon fill="#000000" stroke="#000000" stroke-width="1.1202" points="109.2877,-49.8305 102.9197,-41.363 102.6174,-51.9535 109.2877,-49.8305"/>
</g>
<!-- 3&#45;&gt;2 -->
<g id="edge18" class="edge">
<title>3&#45;&gt;2</title>
<path fill="none" stroke="#000000" stroke-width=".8949" d="M224.9697,-82.699C221.3297,-74.389 217.7497,-65.334 214.7397,-56.862"/>
<polygon fill="#000000" stroke="#000000" stroke-width=".8949" points="218.0121,-55.6132 211.4897,-47.264 211.3819,-57.8583 218.0121,-55.6132"/>
</g>
<!-- 3&#45;&gt;5 -->
<g id="edge19" class="edge">
<title>3&#45;&gt;5</title>
<path fill="none" stroke="#000000" stroke-width=".8173" d="M222.3597,-143C214.6497,-152.02 205.6797,-162.03 196.8597,-171.47"/>
<polygon fill="#000000" stroke="#000000" stroke-width=".8173" points="194.1729,-169.2173 189.8497,-178.89 199.2613,-174.0245 194.1729,-169.2173"/>
</g>
<!-- 3&#45;&gt;6 -->
<g id="edge20" class="edge">
<title>3&#45;&gt;6</title>
<path fill="none" stroke="#000000" stroke-width="2.7308" d="M209.0097,-92.016C183.7497,-76.531 149.7597,-55.697 125.9197,-41.083"/>
<polygon fill="#000000" stroke="#000000" stroke-width="2.7308" points="127.6743,-38.0533 117.3197,-35.81 124.0153,-44.0209 127.6743,-38.0533"/>
</g>
</g>
</svg>
