<?xml version="1.0" encoding="UTF-8" standalone="no"?>
<!DOCTYPE svg PUBLIC "-//W3C//DTD SVG 1.1//EN"
 "http://www.w3.org/Graphics/SVG/1.1/DTD/svg11.dtd">
<!-- Generated by graphviz version 2.40.1 (20161225.0304)
 -->
<!-- Pages: 1 -->
<svg width="614pt" height="581pt"
 viewBox="0.00 0.00 614.25 581.00" xmlns="http://www.w3.org/2000/svg" xmlns:xlink="http://www.w3.org/1999/xlink">
<g id="graph0" class="graph" transform="scale(1 1) rotate(0) translate(4 577)">
<polygon fill="#ffffff" stroke="transparent" points="-4,4 -4,-577 610.2497,-577 610.2497,4 -4,4"/>
<!-- 0 -->
<g id="node1" class="node">
<title>0</title>
<ellipse fill="#c0c0c0" stroke="#000000" cx="33.2417" cy="-549.5" rx="33.4852" ry="18"/>
<text text-anchor="middle" x="33.2417" y="-546.4" font-family="Times,serif" font-size="12.00" fill="#000000">BEGIN</text>
</g>
<!-- 1 -->
<g id="node2" class="node">
<title>1</title>
<polygon fill="none" stroke="#000000" points="91.7417,-490 32.7417,-490 32.7417,-430 91.7417,-430 91.7417,-490"/>
<text text-anchor="middle" x="62.2417" y="-476.4" font-family="Times,serif" font-size="12.00" fill="#000000">flight,</text>
<text text-anchor="middle" x="62.2417" y="-463.4" font-family="Times,serif" font-size="12.00" fill="#000000">number,</text>
<text text-anchor="middle" x="62.2417" y="-450.4" font-family="Times,serif" font-size="12.00" fill="#000000">question,</text>
<text text-anchor="middle" x="62.2417" y="-437.4" font-family="Times,serif" font-size="12.00" fill="#000000">reaching</text>
</g>
<!-- 0&#45;&gt;1 -->
<g id="edge1" class="edge">
<title>0&#45;&gt;1</title>
<path fill="none" stroke="#000000" stroke-width="1.1279" d="M39.1097,-531.39C42.0797,-522.22 45.8087,-510.71 49.4007,-499.63"/>
<polygon fill="#000000" stroke="#000000" stroke-width="1.1279" points="52.7454,-500.662 52.4987,-490.07 46.0863,-498.504 52.7454,-500.662"/>
</g>
<!-- 4 -->
<g id="node3" class="node">
<title>4</title>
<polygon fill="none" stroke="#000000" points="276.7397,-215 187.7397,-215 187.7397,-168 276.7397,-168 276.7397,-215"/>
<text text-anchor="middle" x="232.2397" y="-201.4" font-family="Times,serif" font-size="12.00" fill="#000000">companyname,</text>
<text text-anchor="middle" x="232.2397" y="-188.4" font-family="Times,serif" font-size="12.00" fill="#000000">thank, done,</text>
<text text-anchor="middle" x="232.2397" y="-175.4" font-family="Times,serif" font-size="12.00" fill="#000000">thx</text>
</g>
<!-- 0&#45;&gt;4 -->
<g id="edge2" class="edge">
<title>0&#45;&gt;4</title>
<path fill="none" stroke="#000000" stroke-width="1.5463" d="M55.8377,-536.17C73.7587,-525.03 98.9167,-508.1 118.2397,-490 158.1597,-452.61 166.1197,-440.3 195.2397,-394 220.4297,-353.95 230.7597,-344.14 241.2397,-298 245.8697,-277.63 242.8097,-271.83 241.2397,-251 240.6097,-242.56 239.4697,-233.5 238.2197,-225.05"/>
<polygon fill="#000000" stroke="#000000" stroke-width="1.5463" points="241.6729,-224.4783 236.6497,-215.15 234.7593,-225.5748 241.6729,-224.4783"/>
</g>
<!-- 6 -->
<g id="node4" class="node">
<title>6</title>
<polygon fill="none" stroke="#000000" points="140.7417,-394 51.7417,-394 51.7417,-334 140.7417,-334 140.7417,-394"/>
<text text-anchor="middle" x="96.2417" y="-380.4" font-family="Times,serif" font-size="12.00" fill="#000000">flight,</text>
<text text-anchor="middle" x="96.2417" y="-367.4" font-family="Times,serif" font-size="12.00" fill="#000000">companyname,</text>
<text text-anchor="middle" x="96.2417" y="-354.4" font-family="Times,serif" font-size="12.00" fill="#000000">quick,</text>
<text text-anchor="middle" x="96.2417" y="-341.4" font-family="Times,serif" font-size="12.00" fill="#000000">reaching</text>
</g>
<!-- 0&#45;&gt;6 -->
<g id="edge3" class="edge">
<title>0&#45;&gt;6</title>
<path fill="none" stroke="#000000" stroke-width="2.9978" d="M26.5657,-531.6C18.6747,-507.41 8.3721,-463.49 23.2417,-430 28.0627,-419.14 35.6497,-409.31 44.1447,-400.76"/>
<polygon fill="#000000" stroke="#000000" stroke-width="2.9978" points="46.5779,-403.2763 51.4537,-393.87 41.7763,-398.1826 46.5779,-403.2763"/>
</g>
<!-- 7 -->
<g id="node5" class="node">
<title>7</title>
<polygon fill="none" stroke="#000000" points="468.7397,-387.5 391.7397,-387.5 391.7397,-340.5 468.7397,-340.5 468.7397,-387.5"/>
<text text-anchor="middle" x="430.2397" y="-373.9" font-family="Times,serif" font-size="12.00" fill="#000000">enjoy,</text>
<text text-anchor="middle" x="430.2397" y="-360.9" font-family="Times,serif" font-size="12.00" fill="#000000">flight,</text>
<text text-anchor="middle" x="430.2397" y="-347.9" font-family="Times,serif" font-size="12.00" fill="#000000">flying, thank</text>
</g>
<!-- 0&#45;&gt;7 -->
<g id="edge4" class="edge">
<title>0&#45;&gt;7</title>
<path fill="none" stroke="#000000" stroke-width=".9151" d="M65.1447,-544.02C141.7397,-530.78 330.5697,-497.57 342.2397,-490 376.8297,-467.55 401.7197,-426.29 416.0297,-397.11"/>
<polygon fill="#000000" stroke="#000000" stroke-width=".9151" points="419.3548,-398.266 420.4697,-387.73 413.0278,-395.2711 419.3548,-398.266"/>
</g>
<!-- 1&#45;&gt;1 -->
<g id="edge5" class="edge">
<title>1&#45;&gt;1</title>
<path fill="none" stroke="#000000" stroke-width="1.1064" d="M91.9287,-476.5C101.8297,-476.5 109.7397,-471 109.7397,-460 109.7397,-453.12 106.6497,-448.4 101.9097,-445.82"/>
<polygon fill="#000000" stroke="#000000" stroke-width="1.1064" points="102.4615,-442.355 91.9287,-443.5 100.8766,-449.1733 102.4615,-442.355"/>
</g>
<!-- 1&#45;&gt;4 -->
<g id="edge6" class="edge">
<title>1&#45;&gt;4</title>
<path fill="none" stroke="#000000" stroke-width="1.1836" d="M91.9057,-435.62C107.3497,-424.15 125.8097,-409.57 140.2397,-394 174.7697,-356.75 183.2097,-345.09 202.2397,-298 211.7097,-274.58 217.0197,-246.48 221.2197,-225.03"/>
<polygon fill="#000000" stroke="#000000" stroke-width="1.1836" points="224.6805,-225.5722 223.2097,-215.08 217.8164,-224.1994 224.6805,-225.5722"/>
</g>
<!-- 1&#45;&gt;6 -->
<g id="edge7" class="edge">
<title>1&#45;&gt;6</title>
<path fill="none" stroke="#000000" stroke-width="1.0215" d="M66.5907,-429.89C69.1387,-421.49 72.3027,-412.24 75.6387,-403.39"/>
<polygon fill="#000000" stroke="#000000" stroke-width="1.0215" points="78.9282,-404.5881 79.3057,-394 72.4077,-402.0417 78.9282,-404.5881"/>
</g>
<!-- 9 -->
<g id="node6" class="node">
<title>9</title>
<polygon fill="none" stroke="#000000" points="338.7397,-125.5 263.7397,-125.5 263.7397,-78.5 338.7397,-78.5 338.7397,-125.5"/>
<text text-anchor="middle" x="301.2397" y="-111.9" font-family="Times,serif" font-size="12.00" fill="#000000">instance,</text>
<text text-anchor="middle" x="301.2397" y="-98.9" font-family="Times,serif" font-size="12.00" fill="#000000">consider,</text>
<text text-anchor="middle" x="301.2397" y="-85.9" font-family="Times,serif" font-size="12.00" fill="#000000">bet, apology</text>
</g>
<!-- 1&#45;&gt;9 -->
<g id="edge8" class="edge">
<title>1&#45;&gt;9</title>
<path fill="none" stroke="#000000" stroke-width=".9924" d="M91.9177,-442.16C99.1417,-438.02 106.8997,-433.73 114.2397,-430 149.3497,-412.13 166.7297,-421.19 195.2397,-394 259.6897,-332.55 258.6497,-299.98 285.2397,-215 293.3097,-189.21 297.3297,-158.82 299.3097,-136.06"/>
<polygon fill="#000000" stroke="#000000" stroke-width=".9924" points="302.8162,-136.1133 300.1097,-125.87 295.8377,-135.5654 302.8162,-136.1133"/>
</g>
<!-- 11 -->
<g id="node7" class="node">
<title>11</title>
<ellipse fill="#c0c0c0" stroke="#000000" cx="53.2417" cy="-18" rx="27" ry="18"/>
<text text-anchor="middle" x="53.2417" y="-14.9" font-family="Times,serif" font-size="12.00" fill="#000000">END</text>
</g>
<!-- 1&#45;&gt;11 -->
<g id="edge9" class="edge">
<title>1&#45;&gt;11</title>
<path fill="none" stroke="#000000" stroke-width="2.0029" d="M51.0737,-429.87C47.5007,-418.76 44.0137,-405.96 42.2417,-394 23.1467,-265.15 40.4847,-108.83 49.0747,-46.064"/>
<polygon fill="#000000" stroke="#000000" stroke-width="2.0029" points="52.5444,-46.5235 50.4687,-36.134 45.6124,-45.5503 52.5444,-46.5235"/>
</g>
<!-- 4&#45;&gt;1 -->
<g id="edge10" class="edge">
<title>4&#45;&gt;1</title>
<path fill="none" stroke="#000000" stroke-width="1.0675" d="M237.1397,-215.08C236.6497,-237.16 231.2597,-270.74 220.2397,-298 201.2097,-345.09 192.7697,-356.75 158.2397,-394 141.5497,-412 119.4797,-428.68 100.5897,-440.77"/>
<polygon fill="#000000" stroke="#000000" stroke-width="1.0675" points="98.5494,-437.9164 91.8817,-446.15 102.2286,-443.8715 98.5494,-437.9164"/>
</g>
<!-- 4&#45;&gt;9 -->
<g id="edge11" class="edge">
<title>4&#45;&gt;9</title>
<path fill="none" stroke="#000000" stroke-width="2.8519" d="M244.3497,-167.98C251.6697,-157.48 261.1797,-144.95 270.3597,-133.64"/>
<polygon fill="#000000" stroke="#000000" stroke-width="2.8519" points="273.2773,-135.6043 276.9597,-125.67 267.8859,-131.1397 273.2773,-135.6043"/>
</g>
<!-- 3 -->
<g id="node8" class="node">
<title>3</title>
<polygon fill="none" stroke="#000000" points="464.7397,-125.5 379.7397,-125.5 379.7397,-78.5 464.7397,-78.5 464.7397,-125.5"/>
<text text-anchor="middle" x="422.2397" y="-111.9" font-family="Times,serif" font-size="12.00" fill="#000000">great,</text>
<text text-anchor="middle" x="422.2397" y="-98.9" font-family="Times,serif" font-size="12.00" fill="#000000">welcome, day,</text>
<text text-anchor="middle" x="422.2397" y="-85.9" font-family="Times,serif" font-size="12.00" fill="#000000">thank</text>
</g>
<!-- 4&#45;&gt;3 -->
<g id="edge12" class="edge">
<title>4&#45;&gt;3</title>
<path fill="none" stroke="#000000" stroke-width="1.416" d="M276.1397,-167.98C304.1997,-154.29 340.6397,-137.15 370.1497,-123.76"/>
<polygon fill="#000000" stroke="#000000" stroke-width="1.416" points="371.7907,-126.8595 379.4697,-119.56 368.9147,-120.4776 371.7907,-126.8595"/>
</g>
<!-- 5 -->
<g id="node9" class="node">
<title>5</title>
<polygon fill="none" stroke="#000000" points="230.7397,-132 153.7397,-132 153.7397,-72 230.7397,-72 230.7397,-132"/>
<text text-anchor="middle" x="192.2397" y="-118.4" font-family="Times,serif" font-size="12.00" fill="#000000">let,</text>
<text text-anchor="middle" x="192.2397" y="-105.4" font-family="Times,serif" font-size="12.00" fill="#000000">assistance,</text>
<text text-anchor="middle" x="192.2397" y="-92.4" font-family="Times,serif" font-size="12.00" fill="#000000">dm,</text>
<text text-anchor="middle" x="192.2397" y="-79.4" font-family="Times,serif" font-size="12.00" fill="#000000">confirmation</text>
</g>
<!-- 4&#45;&gt;5 -->
<g id="edge13" class="edge">
<title>4&#45;&gt;5</title>
<path fill="none" stroke="#000000" stroke-width="1.2269" d="M215.7097,-167.98C211.4597,-159.84 207.0497,-150.46 203.1397,-141.39"/>
<polygon fill="#000000" stroke="#000000" stroke-width="1.2269" points="206.3519,-139.9989 199.2797,-132.11 199.8887,-142.6873 206.3519,-139.9989"/>
</g>
<!-- 6&#45;&gt;1 -->
<g id="edge14" class="edge">
<title>6&#45;&gt;1</title>
<path fill="none" stroke="#000000" stroke-width="1.8481" d="M91.9237,-394C89.3817,-402.4 86.2207,-411.65 82.8867,-420.5"/>
<polygon fill="#000000" stroke="#000000" stroke-width="1.8481" points="79.5972,-419.3019 79.2207,-429.89 86.1179,-421.8477 79.5972,-419.3019"/>
</g>
<!-- 6&#45;&gt;9 -->
<g id="edge15" class="edge">
<title>6&#45;&gt;9</title>
<path fill="none" stroke="#000000" stroke-width="2.1654" d="M101.0497,-333.82C109.3797,-291.2 130.4097,-213.51 178.2397,-168 184.5297,-162.01 222.3497,-142.04 254.4097,-125.61"/>
<polygon fill="#000000" stroke="#000000" stroke-width="2.1654" points="256.3829,-128.5326 263.6997,-120.87 253.2014,-122.2973 256.3829,-128.5326"/>
</g>
<!-- 6&#45;&gt;5 -->
<g id="edge16" class="edge">
<title>6&#45;&gt;5</title>
<path fill="none" stroke="#000000" stroke-width="1.2663" d="M90.6067,-333.65C87.4647,-310.55 85.5537,-278.19 93.2417,-251 105.0797,-209.11 133.6397,-168.42 157.0497,-140.18"/>
<polygon fill="#000000" stroke="#000000" stroke-width="1.2663" points="160.0227,-142.0849 163.8097,-132.19 154.6787,-137.5636 160.0227,-142.0849"/>
</g>
<!-- 8 -->
<g id="node10" class="node">
<title>8</title>
<polygon fill="none" stroke="#000000" points="202.7397,-298 137.7397,-298 137.7397,-251 202.7397,-251 202.7397,-298"/>
<text text-anchor="middle" x="170.2397" y="-284.4" font-family="Times,serif" font-size="12.00" fill="#000000">anwar,</text>
<text text-anchor="middle" x="170.2397" y="-271.4" font-family="Times,serif" font-size="12.00" fill="#000000">booking,</text>
<text text-anchor="middle" x="170.2397" y="-258.4" font-family="Times,serif" font-size="12.00" fill="#000000">check, see</text>
</g>
<!-- 6&#45;&gt;8 -->
<g id="edge17" class="edge">
<title>6&#45;&gt;8</title>
<path fill="none" stroke="#000000" stroke-width="1.5998" d="M114.8697,-333.7C121.8497,-324.76 129.9397,-314.95 137.7697,-305.94"/>
<polygon fill="#000000" stroke="#000000" stroke-width="1.5998" points="140.5554,-308.0731 144.5497,-298.26 135.3077,-303.4403 140.5554,-308.0731"/>
</g>
<!-- 7&#45;&gt;7 -->
<g id="edge18" class="edge">
<title>7&#45;&gt;7</title>
<path fill="none" stroke="#000000" stroke-width="1.068" d="M468.7997,-380.35C479.0097,-379.42 486.7397,-373.97 486.7397,-364 486.7397,-357.61 483.5697,-353.08 478.5997,-350.4"/>
<polygon fill="#000000" stroke="#000000" stroke-width="1.068" points="479.3735,-346.982 468.7997,-347.65 477.4822,-353.7217 479.3735,-346.982"/>
</g>
<!-- 7&#45;&gt;9 -->
<g id="edge19" class="edge">
<title>7&#45;&gt;9</title>
<path fill="none" stroke="#000000" stroke-width="1.4749" d="M430.0497,-340.1C429.2797,-316.86 426.4897,-280.8 417.2397,-251 404.8597,-211.13 398.7797,-201.03 373.2397,-168 363.3697,-155.23 350.8897,-142.84 339.1097,-132.3"/>
<polygon fill="#000000" stroke="#000000" stroke-width="1.4749" points="341.3283,-129.5909 331.4897,-125.66 336.7296,-134.8684 341.3283,-129.5909"/>
</g>
<!-- 7&#45;&gt;11 -->
<g id="edge20" class="edge">
<title>7&#45;&gt;11</title>
<path fill="none" stroke="#000000" stroke-width="1.9781" d="M448.7097,-340.37C456.9597,-328.38 465.7997,-313.17 470.2397,-298 498.4397,-201.58 540.6097,-147.42 474.2397,-72 448.9997,-43.31 188.2297,-25.659 90.2117,-19.995"/>
<polygon fill="#000000" stroke="#000000" stroke-width="1.9781" points="90.3472,-16.4971 80.1647,-19.424 89.95,-23.4859 90.3472,-16.4971"/>
</g>
<!-- 7&#45;&gt;3 -->
<g id="edge21" class="edge">
<title>7&#45;&gt;3</title>
<path fill="none" stroke="#000000" stroke-width="1.2133" d="M441.5397,-340.46C446.8397,-328.13 452.5697,-312.58 455.2397,-298 465.6797,-240.98 448.2097,-174.4 434.9597,-135.35"/>
<polygon fill="#000000" stroke="#000000" stroke-width="1.2133" points="438.1445,-133.8541 431.5397,-125.57 431.5369,-136.1648 438.1445,-133.8541"/>
</g>
<!-- 9&#45;&gt;4 -->
<g id="edge22" class="edge">
<title>9&#45;&gt;4</title>
<path fill="none" stroke="#000000" stroke-width="1.3552" d="M289.0297,-125.67C281.6897,-136.19 272.1697,-148.73 262.9897,-160.03"/>
<polygon fill="#000000" stroke="#000000" stroke-width="1.3552" points="260.0843,-158.0502 256.3897,-167.98 265.4702,-162.5215 260.0843,-158.0502"/>
</g>
<!-- 9&#45;&gt;11 -->
<g id="edge23" class="edge">
<title>9&#45;&gt;11</title>
<path fill="none" stroke="#000000" stroke-width="3.8479" d="M263.6497,-82.567C255.6997,-78.809 247.2797,-75.086 239.2397,-72 188.1697,-52.39 126.8797,-35.894 88.9967,-26.475"/>
<polygon fill="#000000" stroke="#000000" stroke-width="3.8479" points="89.506,-22.9961 78.9597,-24.009 87.8358,-29.7939 89.506,-22.9961"/>
</g>
<!-- 3&#45;&gt;4 -->
<g id="edge24" class="edge">
<title>3&#45;&gt;4</title>
<path fill="none" stroke="#000000" stroke-width=".9455" d="M379.4497,-124.98C351.9397,-138.42 316.0397,-155.33 286.5397,-168.73"/>
<polygon fill="#000000" stroke="#000000" stroke-width=".9455" points="284.8651,-165.6461 277.1997,-172.96 287.753,-172.0227 284.8651,-165.6461"/>
</g>
<!-- 3&#45;&gt;11 -->
<g id="edge25" class="edge">
<title>3&#45;&gt;11</title>
<path fill="none" stroke="#000000" stroke-width="5.4863" d="M379.7197,-83.039C369.5497,-78.985 358.6197,-75.02 348.2397,-72 257.3597,-45.561 146.7997,-29.442 90.3317,-22.318"/>
<polygon fill="#000000" stroke="#000000" stroke-width="5.4863" points="90.6219,-17.5168 80.1077,-21.052 89.4419,-27.0451 90.6219,-17.5168"/>
</g>
<!-- 5&#45;&gt;4 -->
<g id="edge26" class="edge">
<title>5&#45;&gt;4</title>
<path fill="none" stroke="#000000" stroke-width="1.4215" d="M212.1097,-132.11C216.3097,-140.61 220.5097,-149.9 224.0497,-158.56"/>
<polygon fill="#000000" stroke="#000000" stroke-width="1.4215" points="220.8386,-159.9582 227.7597,-167.98 227.3517,-157.393 220.8386,-159.9582"/>
</g>
<!-- 5&#45;&gt;11 -->
<g id="edge27" class="edge">
<title>5&#45;&gt;11</title>
<path fill="none" stroke="#000000" stroke-width="4.1446" d="M153.5197,-78.601C130.8497,-64.9 102.6997,-47.89 82.0037,-35.382"/>
<polygon fill="#000000" stroke="#000000" stroke-width="4.1446" points="83.7809,-32.2187 73.3467,-30.15 80.0293,-38.4262 83.7809,-32.2187"/>
</g>
<!-- 8&#45;&gt;4 -->
<g id="edge28" class="edge">
<title>8&#45;&gt;4</title>
<path fill="none" stroke="#000000" stroke-width="1.3866" d="M187.8397,-250.94C194.2597,-242.35 201.6197,-232.5 208.4797,-223.31"/>
<polygon fill="#000000" stroke="#000000" stroke-width="1.3866" points="211.4175,-225.2257 214.5997,-215.12 205.8101,-221.0355 211.4175,-225.2257"/>
</g>
<!-- 8&#45;&gt;6 -->
<g id="edge29" class="edge">
<title>8&#45;&gt;6</title>
<path fill="none" stroke="#000000" stroke-width="1.3806" d="M156.6297,-298.26C150.2297,-306.76 142.3497,-316.55 134.3897,-325.94"/>
<polygon fill="#000000" stroke="#000000" stroke-width="1.3806" points="131.5838,-323.8349 127.7197,-333.7 136.8924,-328.3978 131.5838,-323.8349"/>
</g>
<!-- 8&#45;&gt;11 -->
<g id="edge30" class="edge">
<title>8&#45;&gt;11</title>
<path fill="none" stroke="#000000" stroke-width="2.6476" d="M159.4397,-250.83C137.5897,-202.93 88.2697,-94.793 65.3597,-44.566"/>
<polygon fill="#000000" stroke="#000000" stroke-width="2.6476" points="68.4803,-42.9735 61.1457,-35.328 62.1116,-45.8787 68.4803,-42.9735"/>
</g>
<!-- 2 -->
<g id="node11" class="node">
<title>2</title>
<polygon fill="none" stroke="#000000" points="278.7397,-573 189.7397,-573 189.7397,-526 278.7397,-526 278.7397,-573"/>
<text text-anchor="middle" x="234.2397" y="-559.4" font-family="Times,serif" font-size="12.00" fill="#000000">companyname,</text>
<text text-anchor="middle" x="234.2397" y="-546.4" font-family="Times,serif" font-size="12.00" fill="#000000">thank,</text>
<text text-anchor="middle" x="234.2397" y="-533.4" font-family="Times,serif" font-size="12.00" fill="#000000">thanks, much</text>
</g>
<!-- 2&#45;&gt;9 -->
<g id="edge31" class="edge">
<title>2&#45;&gt;9</title>
<path fill="none" stroke="#000000" stroke-width="2.4301" d="M278.9197,-539.42C342.5497,-522.25 456.0197,-480.44 496.2397,-394 542.1297,-295.37 476.6797,-247.33 402.2397,-168 386.7197,-151.46 366.2597,-137.1 347.8197,-126.04"/>
<polygon fill="#000000" stroke="#000000" stroke-width="2.4301" points="349.3535,-122.8831 338.9497,-120.88 345.8335,-128.9338 349.3535,-122.8831"/>
</g>
<!-- 2&#45;&gt;3 -->
<g id="edge32" class="edge">
<title>2&#45;&gt;3</title>
<path fill="none" stroke="#000000" stroke-width="2.984" d="M278.7997,-546.26C325.5597,-540.93 399.3497,-526.9 451.2397,-490 493.4397,-460 501.8797,-443.45 517.2397,-394 546.6697,-299.24 483.0797,-187.9 446.1797,-134.2"/>
<polygon fill="#000000" stroke="#000000" stroke-width="2.984" points="448.8897,-131.9679 440.2897,-125.78 443.1538,-135.9804 448.8897,-131.9679"/>
</g>
<!-- 10 -->
<g id="node12" class="node">
<title>10</title>
<polygon fill="none" stroke="#000000" points="314.7397,-483.5 225.7397,-483.5 225.7397,-436.5 314.7397,-436.5 314.7397,-483.5"/>
<text text-anchor="middle" x="270.2397" y="-469.9" font-family="Times,serif" font-size="12.00" fill="#000000">charged,</text>
<text text-anchor="middle" x="270.2397" y="-456.9" font-family="Times,serif" font-size="12.00" fill="#000000">companyname,</text>
<text text-anchor="middle" x="270.2397" y="-443.9" font-family="Times,serif" font-size="12.00" fill="#000000">checked, bag</text>
</g>
<!-- 10&#45;&gt;4 -->
<g id="edge33" class="edge">
<title>10&#45;&gt;4</title>
<path fill="none" stroke="#000000" stroke-width=".9017" d="M290.6497,-436.39C322.7797,-396.18 377.9097,-312.79 341.2397,-251 329.1697,-230.66 307.4297,-216.83 286.5197,-207.66"/>
<polygon fill="#000000" stroke="#000000" stroke-width=".9017" points="287.6002,-204.3204 277.0197,-203.77 284.9476,-210.7984 287.6002,-204.3204"/>
</g>
<!-- 10&#45;&gt;9 -->
<g id="edge34" class="edge">
<title>10&#45;&gt;9</title>
<path fill="none" stroke="#000000" stroke-width="1.1114" d="M308.6697,-436.48C323.4197,-425.44 338.9497,-410.95 348.2397,-394 368.9397,-356.25 358.3497,-340.96 361.2397,-298 362.6497,-277.16 364.9597,-271.56 361.2397,-251 354.2397,-212.25 345.0597,-204.48 330.2397,-168 325.8397,-157.17 320.7897,-145.45 316.1497,-134.94"/>
<polygon fill="#000000" stroke="#000000" stroke-width="1.1114" points="319.2987,-133.4073 312.0397,-125.69 312.9017,-136.2497 319.2987,-133.4073"/>
</g>
<!-- 10&#45;&gt;11 -->
<g id="edge35" class="edge">
<title>10&#45;&gt;11</title>
<path fill="none" stroke="#000000" stroke-width="1.2409" d="M314.7697,-449.78C377.1597,-435.05 484.3497,-408.07 496.2397,-394 588.6497,-284.67 606.2497,-172.44 504.2397,-72 474.8997,-43.11 193.2397,-25.417 90.5047,-19.88"/>
<polygon fill="#000000" stroke="#000000" stroke-width="1.2409" points="90.4591,-16.3728 80.2877,-19.338 90.0882,-23.3629 90.4591,-16.3728"/>
</g>
<!-- 10&#45;&gt;10 -->
<g id="edge36" class="edge">
<title>10&#45;&gt;10</title>
<path fill="none" stroke="#000000" stroke-width="2.4195" d="M314.8997,-476.14C325.1897,-474.75 332.7397,-469.37 332.7397,-460 332.7397,-454 329.6397,-449.64 324.7097,-446.91"/>
<polygon fill="#000000" stroke="#000000" stroke-width="2.4195" points="325.488,-443.4868 314.8997,-443.86 323.4097,-450.1712 325.488,-443.4868"/>
</g>
</g>
</svg>
