<?xml version="1.0" encoding="UTF-8" standalone="no"?>
<!DOCTYPE svg PUBLIC "-//W3C//DTD SVG 1.1//EN"
 "http://www.w3.org/Graphics/SVG/1.1/DTD/svg11.dtd">
<!-- Generated by graphviz version 2.40.1 (20161225.0304)
 -->
<!-- Pages: 1 -->
<svg width="979pt" height="786pt"
 viewBox="0.00 0.00 979.00 786.00" xmlns="http://www.w3.org/2000/svg" xmlns:xlink="http://www.w3.org/1999/xlink">
<g id="graph0" class="graph" transform="scale(1 1) rotate(0) translate(4 782)">
<polygon fill="#ffffff" stroke="transparent" points="-4,4 -4,-782 975,-782 975,4 -4,4"/>
<!-- 0 -->
<g id="node1" class="node">
<title>0</title>
<ellipse fill="#c0c0c0" stroke="#000000" cx="88" cy="-754.5" rx="33.4852" ry="18"/>
<text text-anchor="middle" x="88" y="-751.4" font-family="Times,serif" font-size="12.00" fill="#000000">BEGIN</text>
</g>
<!-- 3 -->
<g id="node2" class="node">
<title>3</title>
<polygon fill="none" stroke="#000000" points="73,-695 9,-695 9,-635 73,-635 73,-695"/>
<text text-anchor="middle" x="41" y="-681.4" font-family="Times,serif" font-size="12.00" fill="#000000">greatest,</text>
<text text-anchor="middle" x="41" y="-668.4" font-family="Times,serif" font-size="12.00" fill="#000000">people,</text>
<text text-anchor="middle" x="41" y="-655.4" font-family="Times,serif" font-size="12.00" fill="#000000">airline,</text>
<text text-anchor="middle" x="41" y="-642.4" font-family="Times,serif" font-size="12.00" fill="#000000">southwest</text>
</g>
<!-- 0&#45;&gt;3 -->
<g id="edge1" class="edge">
<title>0&#45;&gt;3</title>
<path fill="none" stroke="#000000" stroke-width="1.7563" d="M78.714,-736.82C73.817,-727.49 67.6,-715.65 61.634,-704.29"/>
<polygon fill="#000000" stroke="#000000" stroke-width="1.7563" points="64.6817,-702.5655 56.933,-695.34 58.4846,-705.8206 64.6817,-702.5655"/>
</g>
<!-- 5 -->
<g id="node3" class="node">
<title>5</title>
<polygon fill="none" stroke="#000000" points="664,-215 594,-215 594,-168 664,-168 664,-215"/>
<text text-anchor="middle" x="629" y="-201.4" font-family="Times,serif" font-size="12.00" fill="#000000">booking,</text>
<text text-anchor="middle" x="629" y="-188.4" font-family="Times,serif" font-size="12.00" fill="#000000">number, hi,</text>
<text text-anchor="middle" x="629" y="-175.4" font-family="Times,serif" font-size="12.00" fill="#000000">anwar</text>
</g>
<!-- 0&#45;&gt;5 -->
<g id="edge2" class="edge">
<title>0&#45;&gt;5</title>
<path fill="none" stroke="#000000" stroke-width=".7724" d="M118.8,-747.51C173.99,-734.86 287.55,-708.28 326,-695 424.92,-660.85 457.76,-662.42 541,-599 623.57,-536.09 647.7,-507.42 674,-407 691.67,-339.53 678.11,-317.47 657,-251 654.19,-242.15 650.33,-232.91 646.39,-224.43"/>
<polygon fill="#000000" stroke="#000000" stroke-width=".7724" points="649.4452,-222.7082 641.94,-215.23 643.1436,-225.7563 649.4452,-222.7082"/>
</g>
<!-- 6 -->
<g id="node4" class="node">
<title>6</title>
<polygon fill="none" stroke="#000000" points="348.5,-496.5 259.5,-496.5 259.5,-449.5 348.5,-449.5 348.5,-496.5"/>
<text text-anchor="middle" x="304" y="-482.9" font-family="Times,serif" font-size="12.00" fill="#000000">companyname,</text>
<text text-anchor="middle" x="304" y="-469.9" font-family="Times,serif" font-size="12.00" fill="#000000">sent, thank,</text>
<text text-anchor="middle" x="304" y="-456.9" font-family="Times,serif" font-size="12.00" fill="#000000">ok</text>
</g>
<!-- 0&#45;&gt;6 -->
<g id="edge3" class="edge">
<title>0&#45;&gt;6</title>
<path fill="none" stroke="#000000" stroke-width="1.5977" d="M116.48,-745.12C143.38,-735.36 183.96,-718.24 214,-695 241.45,-673.76 237.99,-657.99 264,-635 286.17,-615.41 305.82,-624.97 320,-599 335.55,-570.51 327.93,-533.13 318.64,-506.5"/>
<polygon fill="#000000" stroke="#000000" stroke-width="1.5977" points="321.8199,-505.0098 315.05,-496.86 315.26,-507.4528 321.8199,-505.0098"/>
</g>
<!-- 9 -->
<g id="node5" class="node">
<title>9</title>
<polygon fill="none" stroke="#000000" points="514,-599 428,-599 428,-539 514,-539 514,-599"/>
<text text-anchor="middle" x="471" y="-585.4" font-family="Times,serif" font-size="12.00" fill="#000000">cow, southwes</text>
<text text-anchor="middle" x="471" y="-572.4" font-family="Times,serif" font-size="12.00" fill="#000000">theart,</text>
<text text-anchor="middle" x="471" y="-559.4" font-family="Times,serif" font-size="12.00" fill="#000000">response,</text>
<text text-anchor="middle" x="471" y="-546.4" font-family="Times,serif" font-size="12.00" fill="#000000">correct</text>
</g>
<!-- 0&#45;&gt;9 -->
<g id="edge4" class="edge">
<title>0&#45;&gt;9</title>
<path fill="none" stroke="#000000" stroke-width=".8787" d="M119.24,-748.18C169.25,-737.6 264.46,-715.47 292,-695 317.53,-676.03 306.85,-655.7 331,-635 360.6,-609.63 375.78,-615.72 411,-599 413.56,-597.78 416.18,-596.52 418.83,-595.25"/>
<polygon fill="#000000" stroke="#000000" stroke-width=".8787" points="420.3969,-598.3799 427.84,-590.84 417.3195,-592.0926 420.3969,-598.3799"/>
</g>
<!-- 11 -->
<g id="node6" class="node">
<title>11</title>
<polygon fill="none" stroke="#000000" points="187.5,-688.5 98.5,-688.5 98.5,-641.5 187.5,-641.5 187.5,-688.5"/>
<text text-anchor="middle" x="143" y="-674.9" font-family="Times,serif" font-size="12.00" fill="#000000">companyname,</text>
<text text-anchor="middle" x="143" y="-661.9" font-family="Times,serif" font-size="12.00" fill="#000000">luggage, bag,</text>
<text text-anchor="middle" x="143" y="-648.9" font-family="Times,serif" font-size="12.00" fill="#000000">checked</text>
</g>
<!-- 0&#45;&gt;11 -->
<g id="edge5" class="edge">
<title>0&#45;&gt;11</title>
<path fill="none" stroke="#000000" stroke-width=".7588" d="M98.605,-737.24C105.57,-725.91 114.9,-710.73 123.2,-697.22"/>
<polygon fill="#000000" stroke="#000000" stroke-width=".7588" points="126.2252,-698.9821 128.48,-688.63 120.2616,-695.3165 126.2252,-698.9821"/>
</g>
<!-- 13 -->
<g id="node7" class="node">
<title>13</title>
<polygon fill="none" stroke="#000000" points="554,-311 468,-311 468,-251 554,-251 554,-311"/>
<text text-anchor="middle" x="511" y="-297.4" font-family="Times,serif" font-size="12.00" fill="#000000">missed,</text>
<text text-anchor="middle" x="511" y="-284.4" font-family="Times,serif" font-size="12.00" fill="#000000">flight,</text>
<text text-anchor="middle" x="511" y="-271.4" font-family="Times,serif" font-size="12.00" fill="#000000">delayed,</text>
<text text-anchor="middle" x="511" y="-258.4" font-family="Times,serif" font-size="12.00" fill="#000000">companyname</text>
</g>
<!-- 0&#45;&gt;13 -->
<g id="edge6" class="edge">
<title>0&#45;&gt;13</title>
<path fill="none" stroke="#000000" stroke-width="1.4423" d="M120.15,-749.25C155.77,-742.1 213.39,-726.4 253,-695 277.92,-675.24 270.4,-658.34 292,-635 309.87,-615.69 321.92,-619.01 339,-599 414.23,-510.86 470.41,-384.45 495.89,-320.82"/>
<polygon fill="#000000" stroke="#000000" stroke-width="1.4423" points="499.2873,-321.7464 499.71,-311.16 492.7778,-319.1722 499.2873,-321.7464"/>
</g>
<!-- 3&#45;&gt;9 -->
<g id="edge7" class="edge">
<title>3&#45;&gt;9</title>
<path fill="none" stroke="#000000" stroke-width="1.5752" d="M73.169,-642.57C78.3,-639.69 83.675,-637.03 89,-635 119.29,-623.43 320.38,-591.89 418.01,-576.99"/>
<polygon fill="#000000" stroke="#000000" stroke-width="1.5752" points="418.6076,-580.4395 427.97,-575.48 417.5583,-573.5186 418.6076,-580.4395"/>
</g>
<!-- 8 -->
<g id="node8" class="node">
<title>8</title>
<polygon fill="none" stroke="#000000" points="631,-407 573,-407 573,-347 631,-347 631,-407"/>
<text text-anchor="middle" x="602" y="-393.4" font-family="Times,serif" font-size="12.00" fill="#000000">number,</text>
<text text-anchor="middle" x="602" y="-380.4" font-family="Times,serif" font-size="12.00" fill="#000000">flight,</text>
<text text-anchor="middle" x="602" y="-367.4" font-family="Times,serif" font-size="12.00" fill="#000000">possible,</text>
<text text-anchor="middle" x="602" y="-354.4" font-family="Times,serif" font-size="12.00" fill="#000000">privacy</text>
</g>
<!-- 3&#45;&gt;8 -->
<g id="edge8" class="edge">
<title>3&#45;&gt;8</title>
<path fill="none" stroke="#000000" stroke-width=".9838" d="M73.09,-643.17C78.275,-640.17 83.688,-637.32 89,-635 144.71,-610.63 164.92,-622.51 221,-599 291.19,-569.58 482.19,-451.93 563.99,-400.86"/>
<polygon fill="#000000" stroke="#000000" stroke-width=".9838" points="566.325,-403.528 572.95,-395.26 562.615,-397.592 566.325,-403.528"/>
</g>
<!-- 12 -->
<g id="node9" class="node">
<title>12</title>
<polygon fill="none" stroke="#000000" points="401.5,-125.5 326.5,-125.5 326.5,-78.5 401.5,-78.5 401.5,-125.5"/>
<text text-anchor="middle" x="364" y="-111.9" font-family="Times,serif" font-size="12.00" fill="#000000">let,</text>
<text text-anchor="middle" x="364" y="-98.9" font-family="Times,serif" font-size="12.00" fill="#000000">assistance,</text>
<text text-anchor="middle" x="364" y="-85.9" font-family="Times,serif" font-size="12.00" fill="#000000">great, please</text>
</g>
<!-- 3&#45;&gt;12 -->
<g id="edge9" class="edge">
<title>3&#45;&gt;12</title>
<path fill="none" stroke="#000000" stroke-width=".9399" d="M63.753,-634.87C71.249,-623.98 79.154,-611.32 85,-599 154.38,-452.82 103.65,-386.56 192,-251 224.69,-200.84 278.95,-157.86 317.78,-131.13"/>
<polygon fill="#000000" stroke="#000000" stroke-width=".9399" points="320.0003,-133.8536 326.32,-125.35 316.0767,-128.0566 320.0003,-133.8536"/>
</g>
<!-- 2 -->
<g id="node10" class="node">
<title>2</title>
<polygon fill="none" stroke="#000000" points="255.5,-132 170.5,-132 170.5,-72 255.5,-72 255.5,-132"/>
<text text-anchor="middle" x="213" y="-118.4" font-family="Times,serif" font-size="12.00" fill="#000000">inconvenience</text>
<text text-anchor="middle" x="213" y="-105.4" font-family="Times,serif" font-size="12.00" fill="#000000">, customer,</text>
<text text-anchor="middle" x="213" y="-92.4" font-family="Times,serif" font-size="12.00" fill="#000000">apology,</text>
<text text-anchor="middle" x="213" y="-79.4" font-family="Times,serif" font-size="12.00" fill="#000000">sorry</text>
</g>
<!-- 3&#45;&gt;2 -->
<g id="edge10" class="edge">
<title>3&#45;&gt;2</title>
<path fill="none" stroke="#000000" stroke-width=".7925" d="M51.688,-634.96C55.499,-623.75 59.668,-610.86 63,-599 105.92,-446.21 91.187,-401 143,-251 156.3,-212.49 176.5,-170.66 191.79,-141.15"/>
<polygon fill="#000000" stroke="#000000" stroke-width=".7925" points="195.0315,-142.504 196.56,-132.02 188.8272,-139.2625 195.0315,-142.504"/>
</g>
<!-- 4 -->
<g id="node11" class="node">
<title>4</title>
<polygon fill="none" stroke="#000000" points="54,-599 0,-599 0,-539 54,-539 54,-599"/>
<text text-anchor="middle" x="27" y="-585.4" font-family="Times,serif" font-size="12.00" fill="#000000">enjoy,</text>
<text text-anchor="middle" x="27" y="-572.4" font-family="Times,serif" font-size="12.00" fill="#000000">flight,</text>
<text text-anchor="middle" x="27" y="-559.4" font-family="Times,serif" font-size="12.00" fill="#000000">travel,</text>
<text text-anchor="middle" x="27" y="-546.4" font-family="Times,serif" font-size="12.00" fill="#000000">flying</text>
</g>
<!-- 3&#45;&gt;4 -->
<g id="edge11" class="edge">
<title>3&#45;&gt;4</title>
<path fill="none" stroke="#000000" stroke-width="1.0731" d="M30.294,-634.89C28.677,-626.67 27.242,-617.63 26.162,-608.95"/>
<polygon fill="#000000" stroke="#000000" stroke-width="1.0731" points="29.6399,-608.5566 25.066,-599 22.682,-609.3231 29.6399,-608.5566"/>
</g>
<!-- 10 -->
<g id="node12" class="node">
<title>10</title>
<polygon fill="none" stroke="#000000" points="327.5,-304.5 262.5,-304.5 262.5,-257.5 327.5,-257.5 327.5,-304.5"/>
<text text-anchor="middle" x="295" y="-290.9" font-family="Times,serif" font-size="12.00" fill="#000000">welcome,</text>
<text text-anchor="middle" x="295" y="-277.9" font-family="Times,serif" font-size="12.00" fill="#000000">great, day,</text>
<text text-anchor="middle" x="295" y="-264.9" font-family="Times,serif" font-size="12.00" fill="#000000">good</text>
</g>
<!-- 3&#45;&gt;10 -->
<g id="edge12" class="edge">
<title>3&#45;&gt;10</title>
<path fill="none" stroke="#000000" stroke-width="1.2759" d="M73.053,-643.81C78.289,-640.69 83.727,-637.64 89,-635 128.64,-615.17 151.1,-630.77 182,-599 202.62,-577.8 261.02,-392.18 284.77,-314.72"/>
<polygon fill="#000000" stroke="#000000" stroke-width="1.2759" points="288.1741,-315.5563 287.75,-304.97 281.4798,-313.5102 288.1741,-315.5563"/>
</g>
<!-- 5&#45;&gt;5 -->
<g id="edge13" class="edge">
<title>5&#45;&gt;5</title>
<path fill="none" stroke="#000000" stroke-width="1.6028" d="M664.17,-207.94C674.24,-207.29 682,-201.81 682,-191.5 682,-184.89 678.81,-180.27 673.88,-177.63"/>
<polygon fill="#000000" stroke="#000000" stroke-width="1.6028" points="674.7327,-174.2352 664.17,-175.06 672.9416,-181.0022 674.7327,-174.2352"/>
</g>
<!-- 5&#45;&gt;6 -->
<g id="edge14" class="edge">
<title>5&#45;&gt;6</title>
<path fill="none" stroke="#000000" stroke-width="1.0076" d="M619.21,-215.15C608,-240.52 587.93,-281.18 563,-311 519.64,-362.87 502.27,-371.07 445,-407 436.88,-412.09 394.48,-431.8 358.28,-448.37"/>
<polygon fill="#000000" stroke="#000000" stroke-width="1.0076" points="356.3938,-445.3835 348.75,-452.72 359.3005,-451.7515 356.3938,-445.3835"/>
</g>
<!-- 5&#45;&gt;9 -->
<g id="edge15" class="edge">
<title>5&#45;&gt;9</title>
<path fill="none" stroke="#000000" stroke-width=".7599" d="M635.37,-215.17C647.95,-263.8 673.45,-373.18 658,-407 630.48,-467.25 568.25,-513.7 523.12,-541.11"/>
<polygon fill="#000000" stroke="#000000" stroke-width=".7599" points="521.1401,-538.2154 514.34,-546.34 524.7225,-544.2293 521.1401,-538.2154"/>
</g>
<!-- 5&#45;&gt;12 -->
<g id="edge16" class="edge">
<title>5&#45;&gt;12</title>
<path fill="none" stroke="#000000" stroke-width="1.0476" d="M593.95,-173.91C589.31,-171.81 584.57,-169.78 580,-168 523.23,-145.86 455.79,-126.28 411.56,-114.31"/>
<polygon fill="#000000" stroke="#000000" stroke-width="1.0476" points="412.2257,-110.8648 401.66,-111.65 410.4093,-117.625 412.2257,-110.8648"/>
</g>
<!-- 16 -->
<g id="node13" class="node">
<title>16</title>
<ellipse fill="#c0c0c0" stroke="#000000" cx="68" cy="-18" rx="27" ry="18"/>
<text text-anchor="middle" x="68" y="-14.9" font-family="Times,serif" font-size="12.00" fill="#000000">END</text>
</g>
<!-- 5&#45;&gt;16 -->
<g id="edge17" class="edge">
<title>5&#45;&gt;16</title>
<path fill="none" stroke="#000000" stroke-width="1.838" d="M594.69,-167.89C552.97,-140.37 479.5,-95.655 410,-72 303.27,-35.674 169.35,-23.591 105.38,-19.726"/>
<polygon fill="#000000" stroke="#000000" stroke-width="1.838" points="105.5433,-16.2297 95.36,-19.154 105.1442,-23.2183 105.5433,-16.2297"/>
</g>
<!-- 6&#45;&gt;9 -->
<g id="edge18" class="edge">
<title>6&#45;&gt;9</title>
<path fill="none" stroke="#000000" stroke-width="1.6036" d="M348.67,-495.34C370.28,-507.21 396.31,-522.04 418.82,-535.28"/>
<polygon fill="#000000" stroke="#000000" stroke-width="1.6036" points="417.1908,-538.3827 427.58,-540.46 420.7538,-532.3573 417.1908,-538.3827"/>
</g>
<!-- 6&#45;&gt;8 -->
<g id="edge19" class="edge">
<title>6&#45;&gt;8</title>
<path fill="none" stroke="#000000" stroke-width=".7459" d="M345.9,-449.4C351.58,-447.09 357.38,-444.9 363,-443 427.53,-421.16 446.83,-426.87 512,-407 528.87,-401.86 547.33,-395.11 563.24,-389.32"/>
<polygon fill="#000000" stroke="#000000" stroke-width=".7459" points="564.571,-392.5602 572.77,-385.85 562.176,-385.9827 564.571,-392.5602"/>
</g>
<!-- 6&#45;&gt;12 -->
<g id="edge20" class="edge">
<title>6&#45;&gt;12</title>
<path fill="none" stroke="#000000" stroke-width="1.5368" d="M333.91,-449.46C349.18,-438.14 367.07,-423.45 380,-407 426.96,-347.25 410.28,-315.79 450,-251 460.74,-233.48 472.17,-234.38 479,-215 485.95,-195.3 490.42,-185.49 479,-168 457.24,-134.68 431.6,-151.67 397,-132 396.46,-131.7 395.93,-131.39 395.39,-131.07"/>
<polygon fill="#000000" stroke="#000000" stroke-width="1.5368" points="397.0353,-127.971 386.7,-125.64 393.3258,-133.9073 397.0353,-127.971"/>
</g>
<!-- 6&#45;&gt;2 -->
<g id="edge21" class="edge">
<title>6&#45;&gt;2</title>
<path fill="none" stroke="#000000" stroke-width=".723" d="M309.27,-449.24C322.74,-407.79 351.83,-320.08 327,-251 318.03,-226.06 273.26,-175.12 242.42,-139.79"/>
<polygon fill="#000000" stroke="#000000" stroke-width=".723" points="244.8961,-137.3038 235.69,-132.06 239.6167,-141.9003 244.8961,-137.3038"/>
</g>
<!-- 6&#45;&gt;10 -->
<g id="edge22" class="edge">
<title>6&#45;&gt;10</title>
<path fill="none" stroke="#000000" stroke-width="1.3087" d="M298.28,-449.46C294.1,-415.77 290.96,-353.64 291.3,-314.98"/>
<polygon fill="#000000" stroke="#000000" stroke-width="1.3087" points="294.8036,-314.8 291.48,-304.74 287.8047,-314.6769 294.8036,-314.8"/>
</g>
<!-- 9&#45;&gt;6 -->
<g id="edge23" class="edge">
<title>9&#45;&gt;6</title>
<path fill="none" stroke="#000000" stroke-width="1.2637" d="M427.78,-547.46C403.25,-534.01 372.7,-516.55 348.04,-501.91"/>
<polygon fill="#000000" stroke="#000000" stroke-width="1.2637" points="349.63,-498.7829 339.25,-496.66 346.0406,-504.7926 349.63,-498.7829"/>
</g>
<!-- 9&#45;&gt;9 -->
<g id="edge24" class="edge">
<title>9&#45;&gt;9</title>
<path fill="none" stroke="#000000" stroke-width=".9756" d="M514.04,-586.68C524.35,-585.3 532,-579.41 532,-569 532,-562.33 528.86,-557.52 523.89,-554.56"/>
<polygon fill="#000000" stroke="#000000" stroke-width=".9756" points="524.6329,-551.12 514.04,-551.32 522.4457,-557.7695 524.6329,-551.12"/>
</g>
<!-- 9&#45;&gt;16 -->
<g id="edge25" class="edge">
<title>9&#45;&gt;16</title>
<path fill="none" stroke="#000000" stroke-width="2.6899" d="M514.29,-557.89C546.48,-547.86 589.85,-530.4 620,-503 734.17,-399.23 778.94,-306.52 711,-168 680.31,-105.42 651.69,-97.932 587,-72 499.19,-36.801 209.2,-23.093 105.38,-19.238"/>
<polygon fill="#000000" stroke="#000000" stroke-width="2.6899" points="105.1971,-15.7292 95.077,-18.865 104.9438,-22.7246 105.1971,-15.7292"/>
</g>
<!-- 11&#45;&gt;6 -->
<g id="edge26" class="edge">
<title>11&#45;&gt;6</title>
<path fill="none" stroke="#000000" stroke-width=".9238" d="M187.71,-648.59C230.74,-632.37 290.27,-608.62 297,-599 315.72,-572.26 315.02,-533.98 311.17,-506.64"/>
<polygon fill="#000000" stroke="#000000" stroke-width=".9238" points="314.6207,-506.0535 309.57,-496.74 307.7104,-507.1703 314.6207,-506.0535"/>
</g>
<!-- 11&#45;&gt;9 -->
<g id="edge27" class="edge">
<title>11&#45;&gt;9</title>
<path fill="none" stroke="#000000" stroke-width=".9113" d="M187.58,-651.95C247.52,-634.41 353.94,-603.26 417.93,-584.53"/>
<polygon fill="#000000" stroke="#000000" stroke-width=".9113" points="419.2115,-587.8021 427.83,-581.64 417.2498,-581.0825 419.2115,-587.8021"/>
</g>
<!-- 11&#45;&gt;11 -->
<g id="edge28" class="edge">
<title>11&#45;&gt;11</title>
<path fill="none" stroke="#000000" stroke-width="2.367" d="M187.66,-681.14C197.95,-679.75 205.5,-674.37 205.5,-665 205.5,-659 202.4,-654.64 197.47,-651.91"/>
<polygon fill="#000000" stroke="#000000" stroke-width="2.367" points="198.2483,-648.4868 187.66,-648.86 196.17,-655.1712 198.2483,-648.4868"/>
</g>
<!-- 11&#45;&gt;12 -->
<g id="edge29" class="edge">
<title>11&#45;&gt;12</title>
<path fill="none" stroke="#000000" stroke-width=".7416" d="M160.06,-641.37C167.97,-629.26 176.77,-613.95 182,-599 233.62,-451.58 131.21,-371.16 231,-251 263.06,-212.4 304.31,-252.18 338,-215 357.4,-193.59 363.22,-160.68 364.59,-135.89"/>
<polygon fill="#000000" stroke="#000000" stroke-width=".7416" points="368.0908,-135.9223 364.93,-125.81 361.0948,-135.6863 368.0908,-135.9223"/>
</g>
<!-- 11&#45;&gt;16 -->
<g id="edge30" class="edge">
<title>11&#45;&gt;16</title>
<path fill="none" stroke="#000000" stroke-width="1.1882" d="M140.61,-641.24C132.49,-561.02 104.83,-292.88 76,-72 74.896,-63.542 73.58,-54.357 72.336,-46.001"/>
<polygon fill="#000000" stroke="#000000" stroke-width="1.1882" points="75.7764,-45.343 70.822,-35.978 68.8549,-46.3886 75.7764,-45.343"/>
</g>
<!-- 13&#45;&gt;5 -->
<g id="edge31" class="edge">
<title>13&#45;&gt;5</title>
<path fill="none" stroke="#000000" stroke-width=".894" d="M550.62,-250.95C563.25,-241.37 577.22,-230.78 589.82,-221.22"/>
<polygon fill="#000000" stroke="#000000" stroke-width=".894" points="592.0253,-223.9403 597.88,-215.11 587.7966,-218.3619 592.0253,-223.9403"/>
</g>
<!-- 13&#45;&gt;9 -->
<g id="edge32" class="edge">
<title>13&#45;&gt;9</title>
<path fill="none" stroke="#000000" stroke-width=".9311" d="M506.78,-311.37C499.52,-363.68 484.64,-470.76 476.55,-529.05"/>
<polygon fill="#000000" stroke="#000000" stroke-width=".9311" points="473.0785,-528.6037 475.17,-538.99 480.012,-529.5663 473.0785,-528.6037"/>
</g>
<!-- 13&#45;&gt;8 -->
<g id="edge33" class="edge">
<title>13&#45;&gt;8</title>
<path fill="none" stroke="#000000" stroke-width="2.0273" d="M545.75,-311C554.76,-320.02 564.35,-330.03 573.03,-339.47"/>
<polygon fill="#000000" stroke="#000000" stroke-width="2.0273" points="570.4555,-341.8412 579.77,-346.89 575.637,-337.1345 570.4555,-341.8412"/>
</g>
<!-- 13&#45;&gt;12 -->
<g id="edge34" class="edge">
<title>13&#45;&gt;12</title>
<path fill="none" stroke="#000000" stroke-width="1.3671" d="M531.66,-250.81C545.43,-226.59 558.13,-192.68 541,-168 525.81,-146.12 458.63,-125.43 411.55,-113.23"/>
<polygon fill="#000000" stroke="#000000" stroke-width="1.3671" points="412.3942,-109.8334 401.84,-110.76 410.6685,-116.6173 412.3942,-109.8334"/>
</g>
<!-- 13&#45;&gt;2 -->
<g id="edge35" class="edge">
<title>13&#45;&gt;2</title>
<path fill="none" stroke="#000000" stroke-width="1.037" d="M467.97,-261.82C443.04,-248.89 411.46,-231.28 384,-215 341.72,-189.93 294.71,-160.35 260.6,-137.75"/>
<polygon fill="#000000" stroke="#000000" stroke-width="1.037" points="262.4727,-134.792 252.21,-132.16 258.5914,-140.6175 262.4727,-134.792"/>
</g>
<!-- 14 -->
<g id="node14" class="node">
<title>14</title>
<polygon fill="none" stroke="#000000" points="478.5,-215 401.5,-215 401.5,-168 478.5,-168 478.5,-215"/>
<text text-anchor="middle" x="440" y="-201.4" font-family="Times,serif" font-size="12.00" fill="#000000">please, dm,</text>
<text text-anchor="middle" x="440" y="-188.4" font-family="Times,serif" font-size="12.00" fill="#000000">record,</text>
<text text-anchor="middle" x="440" y="-175.4" font-family="Times,serif" font-size="12.00" fill="#000000">confirmation</text>
</g>
<!-- 13&#45;&gt;14 -->
<g id="edge36" class="edge">
<title>13&#45;&gt;14</title>
<path fill="none" stroke="#000000" stroke-width="1.1103" d="M486.96,-250.7C479.94,-241.85 472.25,-232.15 465.16,-223.21"/>
<polygon fill="#000000" stroke="#000000" stroke-width="1.1103" points="467.8083,-220.9168 458.85,-215.26 462.3255,-225.2686 467.8083,-220.9168"/>
</g>
<!-- 8&#45;&gt;6 -->
<g id="edge37" class="edge">
<title>8&#45;&gt;6</title>
<path fill="none" stroke="#000000" stroke-width="1.3333" d="M572.87,-391.97C559.84,-397.09 544.34,-402.63 530,-407 464.83,-426.87 445.53,-421.16 381,-443 373.44,-445.56 365.56,-448.63 357.84,-451.82"/>
<polygon fill="#000000" stroke="#000000" stroke-width="1.3333" points="356.3809,-448.6367 348.52,-455.74 359.0948,-455.0892 356.3809,-448.6367"/>
</g>
<!-- 8&#45;&gt;9 -->
<g id="edge38" class="edge">
<title>8&#45;&gt;9</title>
<path fill="none" stroke="#000000" stroke-width=".7211" d="M572.98,-406.76C562.95,-417.73 551.98,-430.53 543,-443 523.06,-470.67 504.08,-504.31 490.61,-529.87"/>
<polygon fill="#000000" stroke="#000000" stroke-width=".7211" points="487.4223,-528.4136 485.91,-538.9 493.6316,-531.6455 487.4223,-528.4136"/>
</g>
<!-- 8&#45;&gt;13 -->
<g id="edge39" class="edge">
<title>8&#45;&gt;13</title>
<path fill="none" stroke="#000000" stroke-width=".6957" d="M572.83,-352.53C562.43,-342.33 550.76,-330.24 540.35,-318.94"/>
<polygon fill="#000000" stroke="#000000" stroke-width=".6957" points="542.6892,-316.3102 533.37,-311.27 537.512,-321.0216 542.6892,-316.3102"/>
</g>
<!-- 8&#45;&gt;8 -->
<g id="edge40" class="edge">
<title>8&#45;&gt;8</title>
<path fill="none" stroke="#000000" stroke-width=".8786" d="M631.38,-395C641.17,-395 649,-389 649,-377 649,-369.5 645.94,-364.34 641.25,-361.53"/>
<polygon fill="#000000" stroke="#000000" stroke-width=".8786" points="641.9359,-358.0927 631.38,-359 640.1977,-364.8735 641.9359,-358.0927"/>
</g>
<!-- 8&#45;&gt;16 -->
<g id="edge41" class="edge">
<title>8&#45;&gt;16</title>
<path fill="none" stroke="#000000" stroke-width="2.2212" d="M631.28,-348.16C669.98,-306.43 729.04,-227.7 691,-168 636.72,-82.816 582.01,-100.15 485,-72 348.85,-32.49 179.3,-21.849 105.37,-19.014"/>
<polygon fill="#000000" stroke="#000000" stroke-width="2.2212" points="105.2895,-15.509 95.171,-18.65 105.0398,-22.5045 105.2895,-15.509"/>
</g>
<!-- 12&#45;&gt;6 -->
<g id="edge42" class="edge">
<title>12&#45;&gt;6</title>
<path fill="none" stroke="#000000" stroke-width="1.5555" d="M401.77,-123.78C406.17,-126.69 410.64,-129.52 415,-132 449.6,-151.67 475.24,-134.68 497,-168 508.42,-185.49 503.95,-195.3 497,-215 490.17,-234.38 478.74,-233.48 468,-251 428.28,-315.79 444.96,-347.25 398,-407 386.8,-421.24 371.89,-434.17 357.2,-444.72"/>
<polygon fill="#000000" stroke="#000000" stroke-width="1.5555" points="354.8444,-442.0936 348.61,-450.66 358.8257,-447.8511 354.8444,-442.0936"/>
</g>
<!-- 12&#45;&gt;16 -->
<g id="edge43" class="edge">
<title>12&#45;&gt;16</title>
<path fill="none" stroke="#000000" stroke-width="3.7327" d="M326.31,-80.407C319.99,-77.299 313.4,-74.36 307,-72 237.61,-46.409 152.25,-30.672 104.6,-23.207"/>
<polygon fill="#000000" stroke="#000000" stroke-width="3.7327" points="104.8775,-19.7088 94.463,-21.655 103.8181,-26.6282 104.8775,-19.7088"/>
</g>
<!-- 2&#45;&gt;6 -->
<g id="edge44" class="edge">
<title>2&#45;&gt;6</title>
<path fill="none" stroke="#000000" stroke-width="1.432" d="M248.42,-132.06C284.28,-167.27 335.36,-224.17 345,-251 368.13,-315.35 344.47,-395.89 324.42,-440.11"/>
<polygon fill="#000000" stroke="#000000" stroke-width="1.432" points="321.2128,-438.7048 320.09,-449.24 327.5376,-441.7044 321.2128,-438.7048"/>
</g>
<!-- 2&#45;&gt;13 -->
<g id="edge45" class="edge">
<title>2&#45;&gt;13</title>
<path fill="none" stroke="#000000" stroke-width=".7134" d="M255.69,-125.27C293.96,-148.5 351.38,-184.98 402,-215 420.56,-226.01 441.02,-237.63 459.19,-247.99"/>
<polygon fill="#000000" stroke="#000000" stroke-width=".7134" points="457.4906,-251.05 467.91,-252.97 460.9621,-244.9714 457.4906,-251.05"/>
</g>
<!-- 2&#45;&gt;16 -->
<g id="edge46" class="edge">
<title>2&#45;&gt;16</title>
<path fill="none" stroke="#000000" stroke-width="3.4531" d="M170.28,-77.252C146.85,-63.677 118.39,-47.193 97.451,-35.061"/>
<polygon fill="#000000" stroke="#000000" stroke-width="3.4531" points="99.0955,-31.9688 88.688,-29.985 95.5868,-38.026 99.0955,-31.9688"/>
</g>
<!-- 4&#45;&gt;3 -->
<g id="edge47" class="edge">
<title>4&#45;&gt;3</title>
<path fill="none" stroke="#000000" stroke-width=".7421" d="M37.685,-599C39.304,-607.22 40.741,-616.25 41.824,-624.93"/>
<polygon fill="#000000" stroke="#000000" stroke-width=".7421" points="38.3473,-625.3347 42.924,-634.89 45.305,-624.5662 38.3473,-625.3347"/>
</g>
<!-- 4&#45;&gt;6 -->
<g id="edge48" class="edge">
<title>4&#45;&gt;6</title>
<path fill="none" stroke="#000000" stroke-width="1.135" d="M54.064,-559.62C99.198,-543.98 190.68,-512.27 249.56,-491.87"/>
<polygon fill="#000000" stroke="#000000" stroke-width="1.135" points="250.7779,-495.1522 259.08,-488.57 248.4852,-488.5383 250.7779,-495.1522"/>
</g>
<!-- 4&#45;&gt;16 -->
<g id="edge49" class="edge">
<title>4&#45;&gt;16</title>
<path fill="none" stroke="#000000" stroke-width="4.1792" d="M29.233,-538.98C36.419,-442.42 58.876,-140.62 65.887,-46.395"/>
<polygon fill="#000000" stroke="#000000" stroke-width="4.1792" points="69.5498,-46.4487 66.645,-36.205 62.2564,-45.9061 69.5498,-46.4487"/>
</g>
<!-- 10&#45;&gt;6 -->
<g id="edge50" class="edge">
<title>10&#45;&gt;6</title>
<path fill="none" stroke="#000000" stroke-width=".8853" d="M300.74,-304.74C304.92,-338.53 308.05,-400.67 307.7,-439.25"/>
<polygon fill="#000000" stroke="#000000" stroke-width=".8853" points="304.1968,-439.3966 307.51,-449.46 311.1956,-439.5269 304.1968,-439.3966"/>
</g>
<!-- 10&#45;&gt;16 -->
<g id="edge51" class="edge">
<title>10&#45;&gt;16</title>
<path fill="none" stroke="#000000" stroke-width="5.5067" d="M262.26,-264.61C241.03,-252.86 213.76,-235.52 194,-215 142.55,-161.59 149.23,-133.65 108,-72 101.41,-62.152 93.759,-51.62 86.919,-42.497"/>
<polygon fill="#000000" stroke="#000000" stroke-width="5.5067" points="90.5514,-39.3122 80.673,-34.249 82.8688,-45.13 90.5514,-39.3122"/>
</g>
<!-- 14&#45;&gt;6 -->
<g id="edge52" class="edge">
<title>14&#45;&gt;6</title>
<path fill="none" stroke="#000000" stroke-width="1.464" d="M401.3,-208.19C395.22,-210.6 388.97,-212.95 383,-215 326.29,-234.46 289.3,-203.28 253,-251 209.93,-307.62 252.58,-394.3 281.74,-440.83"/>
<polygon fill="#000000" stroke="#000000" stroke-width="1.464" points="278.8355,-442.7844 287.19,-449.3 284.7222,-438.9966 278.8355,-442.7844"/>
</g>
<!-- 14&#45;&gt;16 -->
<g id="edge53" class="edge">
<title>14&#45;&gt;16</title>
<path fill="none" stroke="#000000" stroke-width="5.1329" d="M401.48,-177.5C376.05,-167.18 342.8,-151.57 317,-132 288.65,-110.5 294.18,-90.841 264,-72 214.18,-40.9 146.32,-27.415 104.91,-21.785"/>
<polygon fill="#000000" stroke="#000000" stroke-width="5.1329" points="105.4746,-17.3294 94.986,-20.517 104.3361,-26.2396 105.4746,-17.3294"/>
</g>
<!-- 1 -->
<g id="node15" class="node">
<title>1</title>
<polygon fill="none" stroke="#000000" points="273.5,-778 202.5,-778 202.5,-731 273.5,-731 273.5,-778"/>
<text text-anchor="middle" x="238" y="-764.4" font-family="Times,serif" font-size="12.00" fill="#000000">seat, fit,</text>
<text text-anchor="middle" x="238" y="-751.4" font-family="Times,serif" font-size="12.00" fill="#000000">purchasing,</text>
<text text-anchor="middle" x="238" y="-738.4" font-family="Times,serif" font-size="12.00" fill="#000000">size</text>
</g>
<!-- 1&#45;&gt;9 -->
<g id="edge54" class="edge">
<title>1&#45;&gt;9</title>
<path fill="none" stroke="#000000" stroke-width=".8391" d="M273.81,-733.49C291.48,-722.65 312.86,-708.82 331,-695 367.38,-667.29 405.79,-632.25 433.16,-606.16"/>
<polygon fill="#000000" stroke="#000000" stroke-width=".8391" points="435.7776,-608.499 440.57,-599.05 430.9311,-603.448 435.7776,-608.499"/>
</g>
<!-- 1&#45;&gt;8 -->
<g id="edge55" class="edge">
<title>1&#45;&gt;8</title>
<path fill="none" stroke="#000000" stroke-width=".7253" d="M273.61,-741.35C302.94,-730.13 345.35,-712.99 381,-695 399.51,-685.66 528.47,-615.51 541,-599 582,-544.98 595.45,-465.05 599.86,-417.28"/>
<polygon fill="#000000" stroke="#000000" stroke-width=".7253" points="603.3723,-417.2749 600.71,-407.02 596.3962,-416.6969 603.3723,-417.2749"/>
</g>
<!-- 1&#45;&gt;12 -->
<g id="edge56" class="edge">
<title>1&#45;&gt;12</title>
<path fill="none" stroke="#000000" stroke-width=".6991" d="M273.68,-745.06C329.13,-730.27 431.28,-702.57 447,-695 488.34,-675.09 492.82,-660.44 531,-635 556.25,-618.17 566.42,-619.27 589,-599 629.29,-562.83 639.31,-551.19 664,-503 684.27,-463.45 685.71,-451 692,-407 700.67,-346.31 715.38,-197.63 691,-168 673.34,-146.54 498.33,-120.16 411.85,-108.3"/>
<polygon fill="#000000" stroke="#000000" stroke-width=".6991" points="412.1421,-104.8074 401.76,-106.92 411.1935,-111.7429 412.1421,-104.8074"/>
</g>
<!-- 1&#45;&gt;16 -->
<g id="edge57" class="edge">
<title>1&#45;&gt;16</title>
<path fill="none" stroke="#000000" stroke-width="1.2563" d="M273.63,-745.26C291.17,-740.79 312.66,-735.45 332,-731 407.69,-713.58 432.32,-727.19 503,-695 519.1,-687.67 618.11,-612.09 630,-599 740.49,-477.34 775.31,-414.08 755,-251 743.63,-159.7 732.82,-114.09 651,-72 602.58,-47.09 226.75,-26.047 105.54,-19.85"/>
<polygon fill="#000000" stroke="#000000" stroke-width="1.2563" points="105.4444,-16.3408 95.28,-19.33 105.09,-23.3318 105.4444,-16.3408"/>
</g>
<!-- 1&#45;&gt;1 -->
<g id="edge58" class="edge">
<title>1&#45;&gt;1</title>
<path fill="none" stroke="#000000" stroke-width="1.8757" d="M273.75,-770.92C283.79,-770.2 291.5,-764.73 291.5,-754.5 291.5,-747.95 288.34,-743.35 283.42,-740.7"/>
<polygon fill="#000000" stroke="#000000" stroke-width="1.8757" points="284.3173,-737.317 273.75,-738.08 282.4867,-744.0734 284.3173,-737.317"/>
</g>
<!-- 7 -->
<g id="node16" class="node">
<title>7</title>
<polygon fill="none" stroke="#000000" points="429.5,-778 340.5,-778 340.5,-731 429.5,-731 429.5,-778"/>
<text text-anchor="middle" x="385" y="-764.4" font-family="Times,serif" font-size="12.00" fill="#000000">thanks, much,</text>
<text text-anchor="middle" x="385" y="-751.4" font-family="Times,serif" font-size="12.00" fill="#000000">companyname,</text>
<text text-anchor="middle" x="385" y="-738.4" font-family="Times,serif" font-size="12.00" fill="#000000">thank</text>
</g>
<!-- 7&#45;&gt;9 -->
<g id="edge59" class="edge">
<title>7&#45;&gt;9</title>
<path fill="none" stroke="#000000" stroke-width="1.0141" d="M396.07,-730.63C410.35,-699.82 435.41,-645.78 452.58,-608.73"/>
<polygon fill="#000000" stroke="#000000" stroke-width="1.0141" points="455.9532,-609.775 456.98,-599.23 449.6014,-606.833 455.9532,-609.775"/>
</g>
<!-- 7&#45;&gt;8 -->
<g id="edge60" class="edge">
<title>7&#45;&gt;8</title>
<path fill="none" stroke="#000000" stroke-width=".7724" d="M429.94,-735.43C479.35,-711.67 555.98,-665.87 588,-599 615.99,-540.55 613.3,-463.34 608.12,-417.08"/>
<polygon fill="#000000" stroke="#000000" stroke-width=".7724" points="611.5923,-416.639 606.92,-407.13 604.6426,-417.4772 611.5923,-416.639"/>
</g>
<!-- 7&#45;&gt;12 -->
<g id="edge61" class="edge">
<title>7&#45;&gt;12</title>
<path fill="none" stroke="#000000" stroke-width="1.4498" d="M429.55,-744.13C472.16,-733.66 537.92,-716.05 593,-695 638.68,-677.54 759.44,-636.35 791,-599 864.81,-511.65 875.64,-456.6 843,-347 815.87,-255.91 805.18,-220.57 726,-168 675.05,-134.17 497.82,-114.03 411.7,-106.02"/>
<polygon fill="#000000" stroke="#000000" stroke-width="1.4498" points="411.9377,-102.5272 401.66,-105.1 411.2989,-109.498 411.9377,-102.5272"/>
</g>
<!-- 7&#45;&gt;10 -->
<g id="edge62" class="edge">
<title>7&#45;&gt;10</title>
<path fill="none" stroke="#000000" stroke-width="2.0913" d="M429.72,-745.92C464.29,-737.52 511.86,-721.96 546,-695 673.52,-594.31 762.16,-471.7 658,-347 629.19,-312.51 503.21,-319.04 459,-311 417.89,-303.52 370.98,-294.94 337.9,-288.87"/>
<polygon fill="#000000" stroke="#000000" stroke-width="2.0913" points="338.1364,-285.3553 327.67,-287 336.8776,-292.2412 338.1364,-285.3553"/>
</g>
<!-- 15 -->
<g id="node17" class="node">
<title>15</title>
<polygon fill="none" stroke="#000000" points="971,-503 909,-503 909,-443 971,-443 971,-503"/>
<text text-anchor="middle" x="940" y="-489.4" font-family="Times,serif" font-size="12.00" fill="#000000">privacy,</text>
<text text-anchor="middle" x="940" y="-476.4" font-family="Times,serif" font-size="12.00" fill="#000000">privilege,</text>
<text text-anchor="middle" x="940" y="-463.4" font-family="Times,serif" font-size="12.00" fill="#000000">welcome,</text>
<text text-anchor="middle" x="940" y="-450.4" font-family="Times,serif" font-size="12.00" fill="#000000">positive</text>
</g>
<!-- 7&#45;&gt;15 -->
<g id="edge63" class="edge">
<title>7&#45;&gt;15</title>
<path fill="none" stroke="#000000" stroke-width="1.6776" d="M429.6,-750.63C512.56,-742.86 686.99,-723.59 740,-695 820.33,-651.67 884.71,-563.05 917.12,-511.85"/>
<polygon fill="#000000" stroke="#000000" stroke-width="1.6776" points="920.2864,-513.3869 922.61,-503.05 914.3474,-509.6817 920.2864,-513.3869"/>
</g>
<!-- 15&#45;&gt;16 -->
<g id="edge64" class="edge">
<title>15&#45;&gt;16</title>
<path fill="none" stroke="#000000" stroke-width="6.4198" d="M944.33,-442.79C953.41,-366.17 965,-163.8 851,-72 821.62,-48.345 257.23,-25.21 105.36,-19.394"/>
<polygon fill="#000000" stroke="#000000" stroke-width="6.4198" points="105.3587,-13.7726 95.152,-19.005 104.9308,-24.9992 105.3587,-13.7726"/>
</g>
</g>
</svg>
