<?xml version="1.0" encoding="UTF-8" standalone="no"?>
<!DOCTYPE svg PUBLIC "-//W3C//DTD SVG 1.1//EN"
 "http://www.w3.org/Graphics/SVG/1.1/DTD/svg11.dtd">
<!-- Generated by graphviz version 2.40.1 (20161225.0304)
 -->
<!-- Pages: 1 -->
<svg width="227pt" height="487pt"
 viewBox="0.00 0.00 227.01 487.00" xmlns="http://www.w3.org/2000/svg" xmlns:xlink="http://www.w3.org/1999/xlink">
<g id="graph0" class="graph" transform="scale(1 1) rotate(0) translate(4 483)">
<polygon fill="#ffffff" stroke="transparent" points="-4,4 -4,-483 223.01,-483 223.01,4 -4,4"/>
<!-- 0 -->
<g id="node1" class="node">
<title>0</title>
<ellipse fill="#c0c0c0" stroke="#000000" cx="56" cy="-461" rx="33.4852" ry="18"/>
<text text-anchor="middle" x="56" y="-457.9" font-family="Times,serif" font-size="12.00" fill="#000000">BEGIN</text>
</g>
<!-- 2 -->
<g id="node2" class="node">
<title>2</title>
<polygon fill="none" stroke="#000000" points="138.5,-407 49.5,-407 49.5,-347 138.5,-347 138.5,-407"/>
<text text-anchor="middle" x="94" y="-393.4" font-family="Times,serif" font-size="12.00" fill="#000000">flight,</text>
<text text-anchor="middle" x="94" y="-380.4" font-family="Times,serif" font-size="12.00" fill="#000000">companyname,</text>
<text text-anchor="middle" x="94" y="-367.4" font-family="Times,serif" font-size="12.00" fill="#000000">received,</text>
<text text-anchor="middle" x="94" y="-354.4" font-family="Times,serif" font-size="12.00" fill="#000000">pleasure</text>
</g>
<!-- 0&#45;&gt;2 -->
<g id="edge1" class="edge">
<title>0&#45;&gt;2</title>
<path fill="none" stroke="#000000" stroke-width="3.5212" d="M64.059,-443.19C67.621,-435.31 71.961,-425.72 76.22,-416.3"/>
<polygon fill="#000000" stroke="#000000" stroke-width="3.5212" points="79.4853,-417.5736 80.419,-407.02 73.1078,-414.6879 79.4853,-417.5736"/>
</g>
<!-- 3 -->
<g id="node3" class="node">
<title>3</title>
<polygon fill="none" stroke="#000000" points="152.5,-215 63.5,-215 63.5,-168 152.5,-168 152.5,-215"/>
<text text-anchor="middle" x="108" y="-201.4" font-family="Times,serif" font-size="12.00" fill="#000000">thank,</text>
<text text-anchor="middle" x="108" y="-188.4" font-family="Times,serif" font-size="12.00" fill="#000000">companyname,</text>
<text text-anchor="middle" x="108" y="-175.4" font-family="Times,serif" font-size="12.00" fill="#000000">much, thanks</text>
</g>
<!-- 0&#45;&gt;3 -->
<g id="edge2" class="edge">
<title>0&#45;&gt;3</title>
<path fill="none" stroke="#000000" stroke-width="2.0466" d="M49.762,-443.26C46.432,-432.84 42.682,-419.34 41,-407 37.398,-380.58 35.613,-373.12 41,-347 50.23,-302.25 72.948,-254.52 89.374,-223.93"/>
<polygon fill="#000000" stroke="#000000" stroke-width="2.0466" points="92.5294,-225.4544 94.249,-215 86.3853,-222.1002 92.5294,-225.4544"/>
</g>
<!-- 4 -->
<g id="node4" class="node">
<title>4</title>
<polygon fill="none" stroke="#000000" points="194,-311 138,-311 138,-251 194,-251 194,-311"/>
<text text-anchor="middle" x="166" y="-297.4" font-family="Times,serif" font-size="12.00" fill="#000000">number,</text>
<text text-anchor="middle" x="166" y="-284.4" font-family="Times,serif" font-size="12.00" fill="#000000">flight,</text>
<text text-anchor="middle" x="166" y="-271.4" font-family="Times,serif" font-size="12.00" fill="#000000">provide,</text>
<text text-anchor="middle" x="166" y="-258.4" font-family="Times,serif" font-size="12.00" fill="#000000">received</text>
</g>
<!-- 0&#45;&gt;4 -->
<g id="edge3" class="edge">
<title>0&#45;&gt;4</title>
<path fill="none" stroke="#000000" stroke-width="1.3127" d="M84.888,-451.75C105.89,-443.46 133.14,-429.15 148,-407 164.85,-381.89 168.83,-347.63 168.88,-321.17"/>
<polygon fill="#000000" stroke="#000000" stroke-width="1.3127" points="172.3782,-321.0232 168.72,-311.08 165.3791,-321.1343 172.3782,-321.0232"/>
</g>
<!-- 2&#45;&gt;4 -->
<g id="edge4" class="edge">
<title>2&#45;&gt;4</title>
<path fill="none" stroke="#000000" stroke-width="2.7884" d="M110.27,-346.89C116.7,-337.7 124.27,-327.48 131.74,-317.89"/>
<polygon fill="#000000" stroke="#000000" stroke-width="2.7884" points="134.5096,-320.0304 137.98,-310.02 129.0245,-315.6813 134.5096,-320.0304"/>
</g>
<!-- 1 -->
<g id="node5" class="node">
<title>1</title>
<polygon fill="none" stroke="#000000" points="192,-132 130,-132 130,-72 192,-72 192,-132"/>
<text text-anchor="middle" x="161" y="-118.4" font-family="Times,serif" font-size="12.00" fill="#000000">welcome,</text>
<text text-anchor="middle" x="161" y="-105.4" font-family="Times,serif" font-size="12.00" fill="#000000">problem,</text>
<text text-anchor="middle" x="161" y="-92.4" font-family="Times,serif" font-size="12.00" fill="#000000">behalf,</text>
<text text-anchor="middle" x="161" y="-79.4" font-family="Times,serif" font-size="12.00" fill="#000000">pleasure</text>
</g>
<!-- 2&#45;&gt;1 -->
<g id="edge5" class="edge">
<title>2&#45;&gt;1</title>
<path fill="none" stroke="#000000" stroke-width="2.5589" d="M98.255,-346.97C102.94,-320.45 112.15,-281.38 129,-251 139.53,-232.02 154.13,-235.23 162,-215 169.57,-195.53 162.16,-188.89 162,-168 161.94,-159.69 161.83,-150.79 161.71,-142.31"/>
<polygon fill="#000000" stroke="#000000" stroke-width="2.5589" points="165.2084,-142.1732 161.55,-132.23 158.2092,-142.2843 165.2084,-142.1732"/>
</g>
<!-- 5 -->
<g id="node6" class="node">
<title>5</title>
<polygon fill="none" stroke="#000000" points="80,-125.5 0,-125.5 0,-78.5 80,-78.5 80,-125.5"/>
<text text-anchor="middle" x="40" y="-111.9" font-family="Times,serif" font-size="12.00" fill="#000000">dm,</text>
<text text-anchor="middle" x="40" y="-98.9" font-family="Times,serif" font-size="12.00" fill="#000000">confirmation,</text>
<text text-anchor="middle" x="40" y="-85.9" font-family="Times,serif" font-size="12.00" fill="#000000">via, please</text>
</g>
<!-- 2&#45;&gt;5 -->
<g id="edge6" class="edge">
<title>2&#45;&gt;5</title>
<path fill="none" stroke="#000000" stroke-width="2.0037" d="M85.716,-346.75C77.083,-314.36 63.632,-261.36 55,-215 50.09,-188.63 46.174,-158.51 43.577,-136"/>
<polygon fill="#000000" stroke="#000000" stroke-width="2.0037" points="47.0391,-135.466 42.443,-125.92 40.083,-136.2486 47.0391,-135.466"/>
</g>
<!-- 3&#45;&gt;4 -->
<g id="edge7" class="edge">
<title>3&#45;&gt;4</title>
<path fill="none" stroke="#000000" stroke-width="1.6736" d="M129.44,-215.26C135.38,-223.5 141.73,-232.96 147.49,-242.1"/>
<polygon fill="#000000" stroke="#000000" stroke-width="1.6736" points="144.5638,-244.0231 152.79,-250.7 150.5231,-240.3505 144.5638,-244.0231"/>
</g>
<!-- 3&#45;&gt;1 -->
<g id="edge8" class="edge">
<title>3&#45;&gt;1</title>
<path fill="none" stroke="#000000" stroke-width="3.7522" d="M115.9,-167.98C120.21,-159.66 125.67,-150.07 131.32,-140.82"/>
<polygon fill="#000000" stroke="#000000" stroke-width="3.7522" points="134.4297,-142.4477 136.75,-132.11 128.4895,-138.7444 134.4297,-142.4477"/>
</g>
<!-- 3&#45;&gt;5 -->
<g id="edge9" class="edge">
<title>3&#45;&gt;5</title>
<path fill="none" stroke="#000000" stroke-width="1.9214" d="M84.111,-167.98C75.439,-157.58 65.865,-145.19 57.791,-133.97"/>
<polygon fill="#000000" stroke="#000000" stroke-width="1.9214" points="60.5664,-131.8323 51.948,-125.67 54.8425,-135.8618 60.5664,-131.8323"/>
</g>
<!-- 4&#45;&gt;2 -->
<g id="edge10" class="edge">
<title>4&#45;&gt;2</title>
<path fill="none" stroke="#000000" stroke-width="1.0505" d="M149.81,-311C143.63,-319.84 136.39,-329.63 129.19,-338.91"/>
<polygon fill="#000000" stroke="#000000" stroke-width="1.0505" points="126.3416,-336.8697 122.9,-346.89 131.8392,-341.203 126.3416,-336.8697"/>
</g>
<!-- 4&#45;&gt;3 -->
<g id="edge11" class="edge">
<title>4&#45;&gt;3</title>
<path fill="none" stroke="#000000" stroke-width="1.5997" d="M139.94,-250.7C133.98,-242.12 127.87,-232.74 122.56,-224.03"/>
<polygon fill="#000000" stroke="#000000" stroke-width="1.5997" points="125.4708,-222.0766 117.36,-215.26 119.4496,-225.6467 125.4708,-222.0766"/>
</g>
<!-- 4&#45;&gt;4 -->
<g id="edge12" class="edge">
<title>4&#45;&gt;4</title>
<path fill="none" stroke="#000000" stroke-width="1.4331" d="M194.3,-297.5C204.09,-297.67 212,-292.17 212,-281 212,-274.02 208.91,-269.25 204.2,-266.7"/>
<polygon fill="#000000" stroke="#000000" stroke-width="1.4331" points="204.8212,-263.2527 194.3,-264.5 203.3026,-270.086 204.8212,-263.2527"/>
</g>
<!-- 4&#45;&gt;1 -->
<g id="edge13" class="edge">
<title>4&#45;&gt;1</title>
<path fill="none" stroke="#000000" stroke-width=".9867" d="M182.32,-250.99C187.44,-240 192.43,-227.25 195,-215 199.29,-194.56 199.92,-188.3 195,-168 192.79,-158.89 189.1,-149.64 184.94,-141.05"/>
<polygon fill="#000000" stroke="#000000" stroke-width=".9867" points="187.9832,-139.3146 180.29,-132.03 181.7613,-142.5222 187.9832,-139.3146"/>
</g>
<!-- 6 -->
<g id="node7" class="node">
<title>6</title>
<ellipse fill="#c0c0c0" stroke="#000000" cx="93" cy="-18" rx="27" ry="18"/>
<text text-anchor="middle" x="93" y="-14.9" font-family="Times,serif" font-size="12.00" fill="#000000">END</text>
</g>
<!-- 4&#45;&gt;6 -->
<g id="edge14" class="edge">
<title>4&#45;&gt;6</title>
<path fill="none" stroke="#000000" stroke-width="2.3274" d="M191.59,-250.71C199.02,-240.1 206.17,-227.65 210,-215 219.01,-185.24 205.54,-78.625 201,-72 184.35,-47.675 153.4,-33.78 128.89,-26.196"/>
<polygon fill="#000000" stroke="#000000" stroke-width="2.3274" points="129.7575,-22.8037 119.18,-23.41 127.8269,-29.5323 129.7575,-22.8037"/>
</g>
<!-- 1&#45;&gt;3 -->
<g id="edge15" class="edge">
<title>1&#45;&gt;3</title>
<path fill="none" stroke="#000000" stroke-width="1.4563" d="M149.59,-132.11C144.81,-140.88 139.14,-150.5 133.52,-159.39"/>
<polygon fill="#000000" stroke="#000000" stroke-width="1.4563" points="130.454,-157.6853 127.95,-167.98 136.3273,-161.4938 130.454,-157.6853"/>
</g>
<!-- 1&#45;&gt;6 -->
<g id="edge16" class="edge">
<title>1&#45;&gt;6</title>
<path fill="none" stroke="#000000" stroke-width="4.1357" d="M136.45,-71.674C128.53,-61.888 119.86,-51.183 112.37,-41.925"/>
<polygon fill="#000000" stroke="#000000" stroke-width="4.1357" points="114.9758,-39.3927 105.87,-33.899 109.3515,-43.9477 114.9758,-39.3927"/>
</g>
<!-- 5&#45;&gt;3 -->
<g id="edge17" class="edge">
<title>5&#45;&gt;3</title>
<path fill="none" stroke="#000000" stroke-width="1.6293" d="M64.018,-125.67C72.697,-136.09 82.269,-148.49 90.328,-159.7"/>
<polygon fill="#000000" stroke="#000000" stroke-width="1.6293" points="87.5385,-161.8178 96.157,-167.98 93.2624,-157.7882 87.5385,-161.8178"/>
</g>
<!-- 5&#45;&gt;5 -->
<g id="edge18" class="edge">
<title>5&#45;&gt;5</title>
<path fill="none" stroke="#000000" stroke-width="1.055" d="M80.119,-117.56C90.332,-116.54 98,-111.35 98,-102 98,-96.009 94.853,-91.727 89.906,-89.155"/>
<polygon fill="#000000" stroke="#000000" stroke-width="1.055" points="90.6909,-85.7406 80.119,-86.438 88.8183,-92.4855 90.6909,-85.7406"/>
</g>
<!-- 5&#45;&gt;6 -->
<g id="edge19" class="edge">
<title>5&#45;&gt;6</title>
<path fill="none" stroke="#000000" stroke-width="3.546" d="M55.046,-78.154C61.884,-67.316 69.982,-54.481 76.938,-43.457"/>
<polygon fill="#000000" stroke="#000000" stroke-width="3.546" points="80.0834,-45.0309 82.46,-34.706 74.1635,-41.2953 80.0834,-45.0309"/>
</g>
</g>
</svg>
