<?xml version="1.0" encoding="UTF-8" standalone="no"?>
<!DOCTYPE svg PUBLIC "-//W3C//DTD SVG 1.1//EN"
 "http://www.w3.org/Graphics/SVG/1.1/DTD/svg11.dtd">
<!-- Generated by graphviz version 2.40.1 (20161225.0304)
 -->
<!-- Pages: 1 -->
<svg width="1288pt" height="819pt"
 viewBox="0.00 0.00 1287.90 819.00" xmlns="http://www.w3.org/2000/svg" xmlns:xlink="http://www.w3.org/1999/xlink">
<g id="graph0" class="graph" transform="scale(1 1) rotate(0) translate(4 815)">
<polygon fill="#ffffff" stroke="transparent" points="-4,4 -4,-815 1283.9,-815 1283.9,4 -4,4"/>
<!-- 0 -->
<g id="node1" class="node">
<title>0</title>
<ellipse fill="#c0c0c0" stroke="#000000" cx="204" cy="-781" rx="33.4852" ry="18"/>
<text text-anchor="middle" x="204" y="-777.9" font-family="Times,serif" font-size="12.00" fill="#000000">BEGIN</text>
</g>
<!-- 1 -->
<g id="node2" class="node">
<title>1</title>
<polygon fill="none" stroke="#000000" points="620,-536 546,-536 546,-489 620,-489 620,-536"/>
<text text-anchor="middle" x="583" y="-522.4" font-family="Times,serif" font-size="12.00" fill="#000000">think, thing,</text>
<text text-anchor="middle" x="583" y="-509.4" font-family="Times,serif" font-size="12.00" fill="#000000">strength,</text>
<text text-anchor="middle" x="583" y="-496.4" font-family="Times,serif" font-size="12.00" fill="#000000">mind</text>
</g>
<!-- 0&#45;&gt;1 -->
<g id="edge1" class="edge">
<title>0&#45;&gt;1</title>
<path fill="none" stroke="#000000" stroke-width=".9853" d="M234.81,-773.79C281.97,-762.54 374.71,-739.54 452,-715 525.18,-691.77 541.4,-679.99 614,-655 663.84,-637.84 695.9,-661.55 727,-619 739.33,-602.14 738.61,-589.36 727,-572 705.54,-539.91 663.24,-525.1 630.02,-518.29"/>
<polygon fill="#000000" stroke="#000000" stroke-width=".9853" points="630.5033,-514.8197 620.03,-516.42 629.2153,-521.7002 630.5033,-514.8197"/>
</g>
<!-- 4 -->
<g id="node3" class="node">
<title>4</title>
<polygon fill="none" stroke="#000000" points="401,-370 321,-370 321,-323 401,-323 401,-370"/>
<text text-anchor="middle" x="361" y="-356.4" font-family="Times,serif" font-size="12.00" fill="#000000">machine, fax,</text>
<text text-anchor="middle" x="361" y="-343.4" font-family="Times,serif" font-size="12.00" fill="#000000">letter,</text>
<text text-anchor="middle" x="361" y="-330.4" font-family="Times,serif" font-size="12.00" fill="#000000">office</text>
</g>
<!-- 0&#45;&gt;4 -->
<g id="edge2" class="edge">
<title>0&#45;&gt;4</title>
<path fill="none" stroke="#000000" stroke-width="1.6545" d="M235.19,-774.63C271.07,-766.05 330.26,-747.92 371,-715 410.89,-682.77 410.1,-663.83 435,-619 465.81,-563.53 452.13,-536.67 494,-489 514.02,-466.2 537.25,-479.51 552,-453 562.15,-434.75 564.45,-422.77 552,-406 519.07,-361.63 485.71,-386.57 433,-370 425.93,-367.78 418.48,-365.39 411.16,-363.03"/>
<polygon fill="#000000" stroke="#000000" stroke-width="1.6545" points="411.9122,-359.5943 401.32,-359.83 409.7473,-366.2511 411.9122,-359.5943"/>
</g>
<!-- 8 -->
<g id="node4" class="node">
<title>8</title>
<polygon fill="none" stroke="#000000" points="399.5,-132 328.5,-132 328.5,-72 399.5,-72 399.5,-132"/>
<text text-anchor="middle" x="364" y="-118.4" font-family="Times,serif" font-size="12.00" fill="#000000">business,</text>
<text text-anchor="middle" x="364" y="-105.4" font-family="Times,serif" font-size="12.00" fill="#000000">company,</text>
<text text-anchor="middle" x="364" y="-92.4" font-family="Times,serif" font-size="12.00" fill="#000000">advertising,</text>
<text text-anchor="middle" x="364" y="-79.4" font-family="Times,serif" font-size="12.00" fill="#000000">like</text>
</g>
<!-- 0&#45;&gt;8 -->
<g id="edge3" class="edge">
<title>0&#45;&gt;8</title>
<path fill="none" stroke="#000000" stroke-width=".8574" d="M233.74,-772.8C259.73,-765.94 298.59,-756.43 333,-751 426.4,-736.25 676.46,-764.54 757,-715 783.69,-698.59 767.87,-672.29 794,-655 882.86,-596.21 952.51,-691.04 1031,-619 1086.9,-567.69 1062,-528.36 1071,-453 1106.1,-157.39 572.56,-110.73 410.15,-103.37"/>
<polygon fill="#000000" stroke="#000000" stroke-width=".8574" points="410.1392,-99.8665 400,-102.94 409.8429,-106.8602 410.1392,-99.8665"/>
</g>
<!-- 12 -->
<g id="node5" class="node">
<title>12</title>
<polygon fill="none" stroke="#000000" points="476.5,-215 393.5,-215 393.5,-168 476.5,-168 476.5,-215"/>
<text text-anchor="middle" x="435" y="-201.4" font-family="Times,serif" font-size="12.00" fill="#000000">job, company,</text>
<text text-anchor="middle" x="435" y="-188.4" font-family="Times,serif" font-size="12.00" fill="#000000">position,</text>
<text text-anchor="middle" x="435" y="-175.4" font-family="Times,serif" font-size="12.00" fill="#000000">work</text>
</g>
<!-- 0&#45;&gt;12 -->
<g id="edge4" class="edge">
<title>0&#45;&gt;12</title>
<path fill="none" stroke="#000000" stroke-width=".8655" d="M233.73,-772.74C259.71,-765.85 298.57,-756.32 333,-751 536.11,-719.64 599.28,-780.71 794,-715 840.61,-699.27 841.87,-674.56 887,-655 947.53,-628.77 990.4,-671 1031,-619 1064,-576.72 957.24,-447.11 902,-406 866.44,-379.54 849.7,-387.56 809,-370 691.72,-319.4 557.24,-253.14 485.82,-217.27"/>
<polygon fill="#000000" stroke="#000000" stroke-width=".8655" points="487.0966,-213.9944 476.59,-212.63 483.9525,-220.2486 487.0966,-213.9944"/>
</g>
<!-- 15 -->
<g id="node6" class="node">
<title>15</title>
<polygon fill="none" stroke="#000000" points="344,-703 272,-703 272,-667 344,-667 344,-703"/>
<text text-anchor="middle" x="308" y="-688.4" font-family="Times,serif" font-size="12.00" fill="#000000">hello, mr,</text>
<text text-anchor="middle" x="308" y="-675.4" font-family="Times,serif" font-size="12.00" fill="#000000">smith, good</text>
</g>
<!-- 0&#45;&gt;15 -->
<g id="edge5" class="edge">
<title>0&#45;&gt;15</title>
<path fill="none" stroke="#000000" stroke-width="1.3169" d="M221.17,-765.15C237.4,-750.17 262,-727.46 280.88,-710.04"/>
<polygon fill="#000000" stroke="#000000" stroke-width="1.3169" points="283.3475,-712.5255 288.32,-703.17 278.5987,-707.3826 283.3475,-712.5255"/>
</g>
<!-- 1&#45;&gt;1 -->
<g id="edge6" class="edge">
<title>1&#45;&gt;1</title>
<path fill="none" stroke="#000000" stroke-width="1.8801" d="M620.02,-527.78C630.21,-527.04 638,-521.95 638,-512.5 638,-506.45 634.8,-502.18 629.82,-499.7"/>
<polygon fill="#000000" stroke="#000000" stroke-width="1.8801" points="630.5731,-496.2803 620.02,-497.22 628.8557,-503.0664 630.5731,-496.2803"/>
</g>
<!-- 1&#45;&gt;4 -->
<g id="edge7" class="edge">
<title>1&#45;&gt;4</title>
<path fill="none" stroke="#000000" stroke-width="1.147" d="M620.07,-498.14C640.38,-488.86 663.7,-474.42 676,-453 686.4,-434.89 689.69,-421.78 676,-406 638.94,-363.27 479.1,-382.82 424,-370 419.82,-369.03 415.54,-367.92 411.27,-366.73"/>
<polygon fill="#000000" stroke="#000000" stroke-width="1.147" points="411.9405,-363.2795 401.36,-363.83 409.9745,-369.9977 411.9405,-363.2795"/>
</g>
<!-- 10 -->
<g id="node7" class="node">
<title>10</title>
<polygon fill="none" stroke="#000000" points="820.5,-453 755.5,-453 755.5,-406 820.5,-406 820.5,-453"/>
<text text-anchor="middle" x="788" y="-439.4" font-family="Times,serif" font-size="12.00" fill="#000000">work, job,</text>
<text text-anchor="middle" x="788" y="-426.4" font-family="Times,serif" font-size="12.00" fill="#000000">working,</text>
<text text-anchor="middle" x="788" y="-413.4" font-family="Times,serif" font-size="12.00" fill="#000000">thing</text>
</g>
<!-- 1&#45;&gt;10 -->
<g id="edge8" class="edge">
<title>1&#45;&gt;10</title>
<path fill="none" stroke="#000000" stroke-width=".7042" d="M620.23,-497.04C650.67,-485.68 694.4,-469.43 732,-453 736.64,-450.97 741.47,-448.72 746.29,-446.44"/>
<polygon fill="#000000" stroke="#000000" stroke-width=".7042" points="747.9587,-449.5219 755.48,-442.06 744.947,-443.2029 747.9587,-449.5219"/>
</g>
<!-- 16 -->
<g id="node8" class="node">
<title>16</title>
<ellipse fill="#c0c0c0" stroke="#000000" cx="81" cy="-18" rx="27" ry="18"/>
<text text-anchor="middle" x="81" y="-14.9" font-family="Times,serif" font-size="12.00" fill="#000000">END</text>
</g>
<!-- 1&#45;&gt;16 -->
<g id="edge9" class="edge">
<title>1&#45;&gt;16</title>
<path fill="none" stroke="#000000" stroke-width="1.0435" d="M620.08,-511.29C696.32,-507.94 866.5,-495.74 902,-453 915.35,-436.93 911.41,-424.65 902,-406 789.5,-182.99 680.95,-167.16 450,-72 390.28,-47.391 199.47,-28.337 118.21,-21.13"/>
<polygon fill="#000000" stroke="#000000" stroke-width="1.0435" points="118.2171,-17.6173 107.95,-20.232 117.6067,-24.5907 118.2171,-17.6173"/>
</g>
<!-- 4&#45;&gt;1 -->
<g id="edge10" class="edge">
<title>4&#45;&gt;1</title>
<path fill="none" stroke="#000000" stroke-width="1.1161" d="M401.32,-358.24C414.3,-362.44 428.68,-366.9 442,-370 497.1,-382.82 656.94,-363.27 694,-406 707.69,-421.78 704.4,-434.89 694,-453 680.49,-476.51 653.71,-491.61 629.74,-500.72"/>
<polygon fill="#000000" stroke="#000000" stroke-width="1.1161" points="628.2932,-497.519 620.03,-504.15 630.6248,-504.1193 628.2932,-497.519"/>
</g>
<!-- 4&#45;&gt;4 -->
<g id="edge11" class="edge">
<title>4&#45;&gt;4</title>
<path fill="none" stroke="#000000" stroke-width="2.0197" d="M401.12,-360.58C411.33,-359.65 419,-354.96 419,-346.5 419,-341.08 415.85,-337.21 410.91,-334.88"/>
<polygon fill="#000000" stroke="#000000" stroke-width="2.0197" points="411.6715,-331.4626 401.12,-332.42 409.9655,-338.2516 411.6715,-331.4626"/>
</g>
<!-- 4&#45;&gt;16 -->
<g id="edge12" class="edge">
<title>4&#45;&gt;16</title>
<path fill="none" stroke="#000000" stroke-width=".9075" d="M343.12,-322.76C324.41,-297.16 295.02,-254.7 275,-215 244.48,-154.48 269.67,-120.19 222,-72 193.93,-43.621 149.36,-29.897 117.85,-23.434"/>
<polygon fill="#000000" stroke="#000000" stroke-width=".9075" points="118.1872,-19.9356 107.71,-21.51 116.8822,-26.8129 118.1872,-19.9356"/>
</g>
<!-- 6 -->
<g id="node9" class="node">
<title>6</title>
<polygon fill="none" stroke="#000000" points="278.5,-287 209.5,-287 209.5,-251 278.5,-251 278.5,-287"/>
<text text-anchor="middle" x="244" y="-272.4" font-family="Times,serif" font-size="12.00" fill="#000000">yes, sure,</text>
<text text-anchor="middle" x="244" y="-259.4" font-family="Times,serif" font-size="12.00" fill="#000000">good, yeah</text>
</g>
<!-- 4&#45;&gt;6 -->
<g id="edge13" class="edge">
<title>4&#45;&gt;6</title>
<path fill="none" stroke="#000000" stroke-width=".7569" d="M320.97,-324.08C305.62,-314.38 288.41,-303.01 274.12,-293.13"/>
<polygon fill="#000000" stroke="#000000" stroke-width=".7569" points="275.8492,-290.0682 265.65,-287.2 271.8345,-295.8025 275.8492,-290.0682"/>
</g>
<!-- 8&#45;&gt;1 -->
<g id="edge14" class="edge">
<title>8&#45;&gt;1</title>
<path fill="none" stroke="#000000" stroke-width="1.2123" d="M363.59,-132.36C364.56,-156.36 368.92,-189.9 384,-215 397.37,-237.25 410,-234.45 430,-251 491.87,-302.21 492.76,-337.04 566,-370 623.61,-395.93 806.25,-358.58 848,-406 912.2,-478.92 722.87,-502.61 630.5,-509.71"/>
<polygon fill="#000000" stroke="#000000" stroke-width="1.2123" points="629.997,-506.2374 620.28,-510.46 630.5094,-513.2186 629.997,-506.2374"/>
</g>
<!-- 8&#45;&gt;4 -->
<g id="edge15" class="edge">
<title>8&#45;&gt;4</title>
<path fill="none" stroke="#000000" stroke-width=".9792" d="M356.8,-132.05C354.46,-143.26 352.16,-156.14 351,-168 346.09,-218.33 351.48,-276.89 356.05,-312.83"/>
<polygon fill="#000000" stroke="#000000" stroke-width=".9792" points="352.5852,-313.3272 357.37,-322.78 359.5244,-312.4065 352.5852,-313.3272"/>
</g>
<!-- 8&#45;&gt;8 -->
<g id="edge16" class="edge">
<title>8&#45;&gt;8</title>
<path fill="none" stroke="#000000" stroke-width="1.9349" d="M399.75,-117.67C409.79,-116.99 417.5,-111.76 417.5,-102 417.5,-95.899 414.49,-91.57 409.78,-89.014"/>
<polygon fill="#000000" stroke="#000000" stroke-width="1.9349" points="410.315,-85.534 399.75,-86.328 408.5042,-92.2958 410.315,-85.534"/>
</g>
<!-- 8&#45;&gt;16 -->
<g id="edge17" class="edge">
<title>8&#45;&gt;16</title>
<path fill="none" stroke="#000000" stroke-width=".8714" d="M328.37,-78.819C323.65,-76.289 318.79,-73.935 314,-72 247.43,-45.095 164.48,-29.899 117.66,-22.869"/>
<polygon fill="#000000" stroke="#000000" stroke-width=".8714" points="118.0703,-19.3919 107.67,-21.413 117.0606,-26.3187 118.0703,-19.3919"/>
</g>
<!-- 12&#45;&gt;1 -->
<g id="edge18" class="edge">
<title>12&#45;&gt;1</title>
<path fill="none" stroke="#000000" stroke-width="1.1683" d="M459.24,-215.11C508.92,-263.48 617.77,-369.4 619,-370 671.83,-395.74 842.38,-361.71 881,-406 953.1,-488.69 731.41,-507.18 630.39,-511.31"/>
<polygon fill="#000000" stroke="#000000" stroke-width="1.1683" points="629.9898,-507.8226 620.13,-511.7 630.2558,-514.8175 629.9898,-507.8226"/>
</g>
<!-- 12&#45;&gt;4 -->
<g id="edge19" class="edge">
<title>12&#45;&gt;4</title>
<path fill="none" stroke="#000000" stroke-width=".8257" d="M423.78,-215.01C411.2,-241.36 390.71,-284.26 376.59,-313.86"/>
<polygon fill="#000000" stroke="#000000" stroke-width=".8257" points="373.3951,-312.4283 372.24,-322.96 379.7106,-315.4473 373.3951,-312.4283"/>
</g>
<!-- 12&#45;&gt;8 -->
<g id="edge20" class="edge">
<title>12&#45;&gt;8</title>
<path fill="none" stroke="#000000" stroke-width=".6953" d="M416.35,-167.98C409.54,-159.41 401.66,-149.47 394.11,-139.96"/>
<polygon fill="#000000" stroke="#000000" stroke-width=".6953" points="396.8381,-137.7672 387.88,-132.11 391.355,-142.1188 396.8381,-137.7672"/>
</g>
<!-- 12&#45;&gt;12 -->
<g id="edge21" class="edge">
<title>12&#45;&gt;12</title>
<path fill="none" stroke="#000000" stroke-width="1.7561" d="M476.71,-205.53C486.91,-204.49 494.5,-199.81 494.5,-191.5 494.5,-186.17 491.38,-182.34 486.46,-180"/>
<polygon fill="#000000" stroke="#000000" stroke-width="1.7561" points="487.2686,-176.594 476.71,-177.47 485.5103,-183.3696 487.2686,-176.594"/>
</g>
<!-- 12&#45;&gt;16 -->
<g id="edge22" class="edge">
<title>12&#45;&gt;16</title>
<path fill="none" stroke="#000000" stroke-width=".9329" d="M440.94,-167.95C446.17,-141.12 449.71,-97.685 426,-72 405.25,-49.521 202.77,-28.922 118.02,-21.211"/>
<polygon fill="#000000" stroke="#000000" stroke-width=".9329" points="118.3234,-17.7243 108.05,-20.314 117.6961,-24.6961 118.3234,-17.7243"/>
</g>
<!-- 15&#45;&gt;1 -->
<g id="edge23" class="edge">
<title>15&#45;&gt;1</title>
<path fill="none" stroke="#000000" stroke-width=".8998" d="M344.01,-668.5C356.18,-663.5 369.98,-658.42 383,-655 441.12,-639.73 611.44,-664.23 651,-619 664.75,-603.28 659.63,-591.02 651,-572 645.78,-560.5 637.13,-550.35 627.71,-541.84"/>
<polygon fill="#000000" stroke="#000000" stroke-width=".8998" points="629.9404,-539.1425 620.04,-535.37 625.427,-544.4931 629.9404,-539.1425"/>
</g>
<!-- 15&#45;&gt;4 -->
<g id="edge24" class="edge">
<title>15&#45;&gt;4</title>
<path fill="none" stroke="#000000" stroke-width=".8951" d="M340.78,-666.95C370.84,-650.08 411.38,-626.41 416,-619 446.68,-569.75 392.14,-534.61 428,-489 458.49,-450.22 504.33,-493.14 533,-453 545.14,-436 545.12,-423.01 533,-406 531.12,-403.36 461.01,-379.67 410.89,-362.99"/>
<polygon fill="#000000" stroke="#000000" stroke-width=".8951" points="411.7535,-359.5889 401.16,-359.76 409.548,-366.2324 411.7535,-359.5889"/>
</g>
<!-- 15&#45;&gt;15 -->
<g id="edge25" class="edge">
<title>15&#45;&gt;15</title>
<path fill="none" stroke="#000000" stroke-width="1.592" d="M344.09,-701.42C354.22,-700.7 362,-695.23 362,-685 362,-678.45 358.81,-673.85 353.85,-671.2"/>
<polygon fill="#000000" stroke="#000000" stroke-width="1.592" points="354.6555,-667.7924 344.09,-668.58 352.8406,-674.553 354.6555,-667.7924"/>
</g>
<!-- 15&#45;&gt;16 -->
<g id="edge26" class="edge">
<title>15&#45;&gt;16</title>
<path fill="none" stroke="#000000" stroke-width="1.2564" d="M275.01,-666.92C249.36,-652.22 216.72,-631.87 208,-619 68.74,-413.5 151.28,-313.78 95,-72 93.002,-63.416 90.655,-54.112 88.461,-45.683"/>
<polygon fill="#000000" stroke="#000000" stroke-width="1.2564" points="91.8271,-44.7214 85.892,-35.945 85.0587,-46.507 91.8271,-44.7214"/>
</g>
<!-- 15&#45;&gt;6 -->
<g id="edge27" class="edge">
<title>15&#45;&gt;6</title>
<path fill="none" stroke="#000000" stroke-width=".7737" d="M312.46,-666.97C317.39,-644.65 324.13,-605.48 320,-572 316.59,-544.42 269.92,-366.75 251.45,-297.02"/>
<polygon fill="#000000" stroke="#000000" stroke-width=".7737" points="254.7847,-295.9399 248.84,-287.17 248.0182,-297.7329 254.7847,-295.9399"/>
</g>
<!-- 10&#45;&gt;1 -->
<g id="edge28" class="edge">
<title>10&#45;&gt;1</title>
<path fill="none" stroke="#000000" stroke-width="1.2219" d="M755.33,-450.61C753.54,-451.43 751.76,-452.23 750,-453 710.27,-470.36 663.71,-487.52 629.74,-498.92"/>
<polygon fill="#000000" stroke="#000000" stroke-width="1.2219" points="628.4641,-495.6555 620.07,-502.12 630.6633,-502.3011 628.4641,-495.6555"/>
</g>
<!-- 10&#45;&gt;4 -->
<g id="edge29" class="edge">
<title>10&#45;&gt;4</title>
<path fill="none" stroke="#000000" stroke-width=".7365" d="M755.47,-411.44C750.72,-409.34 745.81,-407.43 741,-406 608.93,-366.59 567.62,-399.53 433,-370 425.85,-368.43 418.4,-366.43 411.12,-364.27"/>
<polygon fill="#000000" stroke="#000000" stroke-width=".7365" points="411.9383,-360.8592 401.35,-361.23 409.8586,-367.5431 411.9383,-360.8592"/>
</g>
<!-- 10&#45;&gt;12 -->
<g id="edge30" class="edge">
<title>10&#45;&gt;12</title>
<path fill="none" stroke="#000000" stroke-width=".8199" d="M755.17,-419.02C741.81,-414.85 726.2,-410.07 712,-406 651.9,-388.76 628.28,-404.29 576,-370 519.02,-332.63 474.79,-264.53 452.01,-224.12"/>
<polygon fill="#000000" stroke="#000000" stroke-width=".8199" points="454.9806,-222.2592 447.08,-215.2 448.854,-225.6453 454.9806,-222.2592"/>
</g>
<!-- 10&#45;&gt;10 -->
<g id="edge31" class="edge">
<title>10&#45;&gt;10</title>
<path fill="none" stroke="#000000" stroke-width="1.8591" d="M820.54,-444.86C830.6,-444.55 838.5,-439.43 838.5,-429.5 838.5,-423.29 835.41,-418.97 830.64,-416.52"/>
<polygon fill="#000000" stroke="#000000" stroke-width="1.8591" points="831.0762,-413.027 820.54,-414.14 829.4706,-419.8404 831.0762,-413.027"/>
</g>
<!-- 10&#45;&gt;16 -->
<g id="edge32" class="edge">
<title>10&#45;&gt;16</title>
<path fill="none" stroke="#000000" stroke-width=".9097" d="M755.31,-418.49C741.98,-414.23 726.35,-409.54 712,-406 627.29,-385.08 596.9,-409.32 519,-370 470.72,-345.63 468.08,-325.41 430,-287 399.44,-256.17 392.07,-248.11 364,-215 311.8,-153.42 318.35,-117.99 252,-72 211.13,-43.67 154.69,-29.67 118.02,-23.147"/>
<polygon fill="#000000" stroke="#000000" stroke-width=".9097" points="118.2114,-19.6303 107.77,-21.427 117.0529,-26.5337 118.2114,-19.6303"/>
</g>
<!-- 6&#45;&gt;1 -->
<g id="edge33" class="edge">
<title>6&#45;&gt;1</title>
<path fill="none" stroke="#000000" stroke-width="1.0955" d="M252.61,-287.03C263.79,-308.91 285.09,-345.86 312,-370 379.89,-430.9 478.51,-474.18 536.17,-496.1"/>
<polygon fill="#000000" stroke="#000000" stroke-width="1.0955" points="535.1577,-499.4583 545.75,-499.69 537.6141,-492.9034 535.1577,-499.4583"/>
</g>
<!-- 6&#45;&gt;4 -->
<g id="edge34" class="edge">
<title>6&#45;&gt;4</title>
<path fill="none" stroke="#000000" stroke-width="1.1741" d="M277.17,-287.12C291.5,-296.02 308.28,-306.97 323.08,-317.03"/>
<polygon fill="#000000" stroke="#000000" stroke-width="1.1741" points="321.3046,-320.0565 331.53,-322.83 325.266,-314.2852 321.3046,-320.0565"/>
</g>
<!-- 6&#45;&gt;12 -->
<g id="edge35" class="edge">
<title>6&#45;&gt;12</title>
<path fill="none" stroke="#000000" stroke-width=".8148" d="M278.59,-254.97C307.94,-243.06 350.47,-225.8 383.77,-212.29"/>
<polygon fill="#000000" stroke="#000000" stroke-width=".8148" points="385.4015,-215.4051 393.35,-208.4 382.7679,-208.9194 385.4015,-215.4051"/>
</g>
<!-- 6&#45;&gt;16 -->
<g id="edge36" class="edge">
<title>6&#45;&gt;16</title>
<path fill="none" stroke="#000000" stroke-width="1.3248" d="M240.83,-250.99C232.59,-205.04 210.4,-86.013 199,-72 178.45,-46.744 143.49,-32.793 116.94,-25.433"/>
<polygon fill="#000000" stroke="#000000" stroke-width="1.3248" points="117.7876,-22.0371 107.23,-22.925 116.0369,-28.8147 117.7876,-22.0371"/>
</g>
<!-- 2 -->
<g id="node10" class="node">
<title>2</title>
<polygon fill="none" stroke="#000000" points="221.5,-715 156.5,-715 156.5,-655 221.5,-655 221.5,-715"/>
<text text-anchor="middle" x="189" y="-701.4" font-family="Times,serif" font-size="12.00" fill="#000000">afternoon,</text>
<text text-anchor="middle" x="189" y="-688.4" font-family="Times,serif" font-size="12.00" fill="#000000">time,</text>
<text text-anchor="middle" x="189" y="-675.4" font-family="Times,serif" font-size="12.00" fill="#000000">tomorrow,</text>
<text text-anchor="middle" x="189" y="-662.4" font-family="Times,serif" font-size="12.00" fill="#000000">hour</text>
</g>
<!-- 2&#45;&gt;1 -->
<g id="edge37" class="edge">
<title>2&#45;&gt;1</title>
<path fill="none" stroke="#000000" stroke-width="1.0409" d="M221.85,-669.34C234.46,-663.96 249.14,-658.44 263,-655 339.96,-635.91 564.83,-677.83 618,-619 636.63,-598.39 623.6,-567.64 608.42,-544.48"/>
<polygon fill="#000000" stroke="#000000" stroke-width="1.0409" points="611.1279,-542.2423 602.56,-536.01 605.3713,-546.2251 611.1279,-542.2423"/>
</g>
<!-- 2&#45;&gt;4 -->
<g id="edge38" class="edge">
<title>2&#45;&gt;4</title>
<path fill="none" stroke="#000000" stroke-width=".9977" d="M221.59,-672.61C256.2,-658.79 307.6,-636.12 320,-619 372.19,-546.92 370.18,-435.72 365.19,-380.3"/>
<polygon fill="#000000" stroke="#000000" stroke-width=".9977" points="368.6692,-379.9161 364.2,-370.31 361.7033,-380.6064 368.6692,-379.9161"/>
</g>
<!-- 2&#45;&gt;16 -->
<g id="edge39" class="edge">
<title>2&#45;&gt;16</title>
<path fill="none" stroke="#000000" stroke-width="1.0005" d="M176.3,-654.88C158.54,-611.25 126.78,-527.51 112,-453 82.009,-301.79 80.114,-115.94 80.595,-46.202"/>
<polygon fill="#000000" stroke="#000000" stroke-width="1.0005" points="84.0964,-46.0609 80.689,-36.029 77.0967,-45.9962 84.0964,-46.0609"/>
</g>
<!-- 2&#45;&gt;2 -->
<g id="edge40" class="edge">
<title>2&#45;&gt;2</title>
<path fill="none" stroke="#000000" stroke-width="1.7964" d="M221.54,-701.48C231.6,-701.15 239.5,-695.66 239.5,-685 239.5,-678.17 236.26,-673.47 231.28,-670.88"/>
<polygon fill="#000000" stroke="#000000" stroke-width="1.7964" points="232.083,-667.4734 221.54,-668.52 230.4346,-674.2765 232.083,-667.4734"/>
</g>
<!-- 5 -->
<g id="node11" class="node">
<title>5</title>
<polygon fill="none" stroke="#000000" points="293,-613.5 217,-613.5 217,-577.5 293,-577.5 293,-613.5"/>
<text text-anchor="middle" x="255" y="-598.9" font-family="Times,serif" font-size="12.00" fill="#000000">good, well,</text>
<text text-anchor="middle" x="255" y="-585.9" font-family="Times,serif" font-size="12.00" fill="#000000">please, sorry</text>
</g>
<!-- 2&#45;&gt;5 -->
<g id="edge41" class="edge">
<title>2&#45;&gt;5</title>
<path fill="none" stroke="#000000" stroke-width=".778" d="M211.34,-654.7C219.17,-644.08 227.9,-632.25 235.48,-621.97"/>
<polygon fill="#000000" stroke="#000000" stroke-width=".778" points="238.4153,-623.8867 241.53,-613.76 232.78,-619.734 238.4153,-623.8867"/>
</g>
<!-- 5&#45;&gt;1 -->
<g id="edge42" class="edge">
<title>5&#45;&gt;1</title>
<path fill="none" stroke="#000000" stroke-width="1.1337" d="M293.27,-585.82C353.58,-570.55 470.6,-540.94 535.95,-524.41"/>
<polygon fill="#000000" stroke="#000000" stroke-width="1.1337" points="537.1453,-527.7179 545.98,-521.87 535.4268,-520.9321 537.1453,-527.7179"/>
</g>
<!-- 5&#45;&gt;4 -->
<g id="edge43" class="edge">
<title>5&#45;&gt;4</title>
<path fill="none" stroke="#000000" stroke-width=".8508" d="M262.79,-577.19C280.57,-535.43 324.33,-432.64 346.95,-379.5"/>
<polygon fill="#000000" stroke="#000000" stroke-width=".8508" points="350.2211,-380.7518 350.92,-370.18 343.781,-378.0085 350.2211,-380.7518"/>
</g>
<!-- 5&#45;&gt;16 -->
<g id="edge44" class="edge">
<title>5&#45;&gt;16</title>
<path fill="none" stroke="#000000" stroke-width="1.8053" d="M251.74,-577.28C235.26,-485.14 161.78,-74.752 160,-72 148.82,-54.756 129.99,-41.567 113.52,-32.541"/>
<polygon fill="#000000" stroke="#000000" stroke-width="1.8053" points="114.6607,-29.1908 104.17,-27.709 111.4469,-35.4095 114.6607,-29.1908"/>
</g>
<!-- 5&#45;&gt;5 -->
<g id="edge45" class="edge">
<title>5&#45;&gt;5</title>
<path fill="none" stroke="#000000" stroke-width=".8598" d="M293.21,-610.74C303.33,-609.87 311,-604.79 311,-595.5 311,-589.55 307.85,-585.33 302.93,-582.83"/>
<polygon fill="#000000" stroke="#000000" stroke-width=".8598" points="303.7725,-579.4325 293.21,-580.26 301.9831,-586.2 303.7725,-579.4325"/>
</g>
<!-- 3 -->
<g id="node12" class="node">
<title>3</title>
<polygon fill="none" stroke="#000000" points="960.5,-715 895.5,-715 895.5,-655 960.5,-655 960.5,-715"/>
<text text-anchor="middle" x="928" y="-701.4" font-family="Times,serif" font-size="12.00" fill="#000000">university,</text>
<text text-anchor="middle" x="928" y="-688.4" font-family="Times,serif" font-size="12.00" fill="#000000">english,</text>
<text text-anchor="middle" x="928" y="-675.4" font-family="Times,serif" font-size="12.00" fill="#000000">school,</text>
<text text-anchor="middle" x="928" y="-662.4" font-family="Times,serif" font-size="12.00" fill="#000000">course</text>
</g>
<!-- 3&#45;&gt;1 -->
<g id="edge46" class="edge">
<title>3&#45;&gt;1</title>
<path fill="none" stroke="#000000" stroke-width="1.0943" d="M934.13,-654.85C937.39,-629.48 937.26,-593.94 917,-572 907.3,-561.49 719.99,-532.67 630.21,-519.38"/>
<polygon fill="#000000" stroke="#000000" stroke-width="1.0943" points="630.6848,-515.9122 620.28,-517.91 629.6596,-522.8368 630.6848,-515.9122"/>
</g>
<!-- 3&#45;&gt;4 -->
<g id="edge47" class="edge">
<title>3&#45;&gt;4</title>
<path fill="none" stroke="#000000" stroke-width=".7706" d="M936.28,-654.99C941.38,-632.07 945.91,-599.79 940,-572 923.19,-492.99 931.06,-453.87 866,-406 847.78,-392.59 534.95,-362.51 411,-351.05"/>
<polygon fill="#000000" stroke="#000000" stroke-width=".7706" points="411.2786,-347.5609 401,-350.13 410.6373,-354.5315 411.2786,-347.5609"/>
</g>
<!-- 3&#45;&gt;12 -->
<g id="edge48" class="edge">
<title>3&#45;&gt;12</title>
<path fill="none" stroke="#000000" stroke-width=".8211" d="M960.69,-679.87C1015.7,-670.51 1122.9,-648.82 1145,-619 1157.4,-602.22 1156.9,-589.17 1145,-572 1119,-534.55 1075,-573.45 1049,-536 1037.1,-518.83 1038.7,-507.18 1049,-489 1064.3,-461.94 1093.7,-480.06 1109,-453 1119.3,-434.82 1122.2,-422.21 1109,-406 1059.8,-345.38 1011.7,-392.74 937,-370 802.14,-328.95 776.28,-296.89 643,-251 590.4,-232.89 529.03,-215.81 486.65,-204.64"/>
<polygon fill="#000000" stroke="#000000" stroke-width=".8211" points="487.4006,-201.2186 476.84,-202.07 485.6265,-207.9901 487.4006,-201.2186"/>
</g>
<!-- 3&#45;&gt;16 -->
<g id="edge49" class="edge">
<title>3&#45;&gt;16</title>
<path fill="none" stroke="#000000" stroke-width=".9791" d="M960.57,-680.7C1019.2,-672.23 1138.5,-651.34 1163,-619 1175.6,-602.35 1169.9,-591.7 1163,-572 1156.2,-552.62 1141.4,-555.19 1134,-536 1113.3,-481.97 1145.9,-460.7 1127,-406 1099.1,-324.9 1079.3,-304.15 1012,-251 863.88,-134.09 809.02,-121.77 627,-72 530.62,-45.648 225.52,-26.221 118.52,-20.067"/>
<polygon fill="#000000" stroke="#000000" stroke-width=".9791" points="118.3928,-16.5542 108.21,-19.48 117.9948,-23.5429 118.3928,-16.5542"/>
</g>
<!-- 3&#45;&gt;3 -->
<g id="edge50" class="edge">
<title>3&#45;&gt;3</title>
<path fill="none" stroke="#000000" stroke-width="2.7974" d="M960.54,-701.48C970.6,-701.15 978.5,-695.66 978.5,-685 978.5,-678.17 975.26,-673.47 970.28,-670.88"/>
<polygon fill="#000000" stroke="#000000" stroke-width="2.7974" points="971.083,-667.4734 960.54,-668.52 969.4346,-674.2765 971.083,-667.4734"/>
</g>
<!-- 7 -->
<g id="node13" class="node">
<title>7</title>
<polygon fill="none" stroke="#000000" points="590.5,-619 513.5,-619 513.5,-572 590.5,-572 590.5,-619"/>
<text text-anchor="middle" x="552" y="-605.4" font-family="Times,serif" font-size="12.00" fill="#000000">salary,</text>
<text text-anchor="middle" x="552" y="-592.4" font-family="Times,serif" font-size="12.00" fill="#000000">price, bonus,</text>
<text text-anchor="middle" x="552" y="-579.4" font-family="Times,serif" font-size="12.00" fill="#000000">yuan</text>
</g>
<!-- 7&#45;&gt;1 -->
<g id="edge51" class="edge">
<title>7&#45;&gt;1</title>
<path fill="none" stroke="#000000" stroke-width=".9643" d="M560.8,-571.94C563.84,-563.79 567.31,-554.5 570.59,-545.72"/>
<polygon fill="#000000" stroke="#000000" stroke-width=".9643" points="573.9555,-546.7125 574.18,-536.12 567.399,-544.2605 573.9555,-546.7125"/>
</g>
<!-- 7&#45;&gt;4 -->
<g id="edge52" class="edge">
<title>7&#45;&gt;4</title>
<path fill="none" stroke="#000000" stroke-width=".9773" d="M527.71,-571.66C507.74,-549.1 485.49,-514.91 504,-489 532.67,-448.86 580.33,-493.14 609,-453 621.14,-436 622.21,-422.18 609,-406 558.52,-344.14 510.19,-390.42 433,-370 425.83,-368.1 418.33,-365.9 410.99,-363.62"/>
<polygon fill="#000000" stroke="#000000" stroke-width=".9773" points="411.7102,-360.1767 401.12,-360.49 409.5941,-366.8492 411.7102,-360.1767"/>
</g>
<!-- 7&#45;&gt;7 -->
<g id="edge53" class="edge">
<title>7&#45;&gt;7</title>
<path fill="none" stroke="#000000" stroke-width="2.6957" d="M590.56,-610.74C600.77,-609.87 608.5,-604.79 608.5,-595.5 608.5,-589.55 605.33,-585.33 600.36,-582.83"/>
<polygon fill="#000000" stroke="#000000" stroke-width="2.6957" points="601.1208,-579.4112 590.56,-580.26 599.3451,-586.1823 601.1208,-579.4112"/>
</g>
<!-- 9 -->
<g id="node14" class="node">
<title>9</title>
<polygon fill="none" stroke="#000000" points="399.5,-811 342.5,-811 342.5,-751 399.5,-751 399.5,-811"/>
<text text-anchor="middle" x="371" y="-797.4" font-family="Times,serif" font-size="12.00" fill="#000000">point,</text>
<text text-anchor="middle" x="371" y="-784.4" font-family="Times,serif" font-size="12.00" fill="#000000">podium,</text>
<text text-anchor="middle" x="371" y="-771.4" font-family="Times,serif" font-size="12.00" fill="#000000">policy,</text>
<text text-anchor="middle" x="371" y="-758.4" font-family="Times,serif" font-size="12.00" fill="#000000">portfolio</text>
</g>
<!-- 9&#45;&gt;1 -->
<g id="edge54" class="edge">
<title>9&#45;&gt;1</title>
<path fill="none" stroke="#000000" stroke-width=".8651" d="M399.93,-775.1C456.62,-763.24 580.09,-735.87 618,-715 652.44,-696.04 648.85,-674.48 683,-655 731.36,-627.41 769.76,-663.67 803,-619 815.47,-602.24 815.7,-588.59 803,-572 792.38,-558.12 691.64,-535.06 630.23,-522.1"/>
<polygon fill="#000000" stroke="#000000" stroke-width=".8651" points="630.8642,-518.657 620.36,-520.04 629.4339,-525.5094 630.8642,-518.657"/>
</g>
<!-- 9&#45;&gt;4 -->
<g id="edge55" class="edge">
<title>9&#45;&gt;4</title>
<path fill="none" stroke="#000000" stroke-width="1.6077" d="M399.55,-772.36C453.86,-754.19 570.85,-706.31 618,-619 627.93,-600.62 629.38,-589.52 618,-572 596.53,-538.97 558.47,-569.03 537,-536 525.62,-518.48 525.29,-506.3 537,-489 561.15,-453.33 602.85,-488.67 627,-453 638.71,-435.7 640.36,-422.06 627,-406 570.93,-338.57 517.98,-391.65 433,-370 425.74,-368.15 418.13,-365.96 410.71,-363.67"/>
<polygon fill="#000000" stroke="#000000" stroke-width="1.6077" points="411.6802,-360.306 401.09,-360.62 409.5646,-366.9786 411.6802,-360.306"/>
</g>
<!-- 9&#45;&gt;12 -->
<g id="edge56" class="edge">
<title>9&#45;&gt;12</title>
<path fill="none" stroke="#000000" stroke-width=".7868" d="M399.78,-774.22C430.03,-767.34 479.1,-756.9 522,-751 727.79,-722.71 788.91,-774.29 988,-715 1073,-689.68 1117.8,-695.34 1163,-619 1173.6,-601.02 1169.9,-591.7 1163,-572 1156.2,-552.62 1141.4,-555.19 1134,-536 1113.3,-481.97 1161.4,-452.5 1127,-406 1048.5,-300.01 634.22,-223.72 486.98,-199.61"/>
<polygon fill="#000000" stroke="#000000" stroke-width=".7868" points="487.2826,-196.1132 476.85,-197.96 486.1572,-203.0222 487.2826,-196.1132"/>
</g>
<!-- 9&#45;&gt;16 -->
<g id="edge57" class="edge">
<title>9&#45;&gt;16</title>
<path fill="none" stroke="#000000" stroke-width="1.3317" d="M399.76,-774.12C430,-767.15 479.07,-756.64 522,-751 644.1,-734.97 961.71,-763.28 1075,-715 1133.2,-690.21 1154.5,-676.86 1180,-619 1188.4,-599.88 1182.2,-592.77 1180,-572 1179,-562.62 1146.6,-415.07 1144,-406 1133.2,-368.31 1134.4,-356.48 1114,-323 1009.1,-151.2 931.57,-123.58 737,-72 618.79,-40.665 239.67,-23.979 118.57,-19.351"/>
<polygon fill="#000000" stroke="#000000" stroke-width="1.3317" points="118.4447,-15.8439 108.32,-18.965 118.1812,-22.8389 118.4447,-15.8439"/>
</g>
<!-- 11 -->
<g id="node15" class="node">
<title>11</title>
<polygon fill="none" stroke="#000000" points="78,-804.5 0,-804.5 0,-757.5 78,-757.5 78,-804.5"/>
<text text-anchor="middle" x="39" y="-790.9" font-family="Times,serif" font-size="12.00" fill="#000000">meeting,</text>
<text text-anchor="middle" x="39" y="-777.9" font-family="Times,serif" font-size="12.00" fill="#000000">appointment,</text>
<text text-anchor="middle" x="39" y="-764.9" font-family="Times,serif" font-size="12.00" fill="#000000">mr, meet</text>
</g>
<!-- 11&#45;&gt;1 -->
<g id="edge58" class="edge">
<title>11&#45;&gt;1</title>
<path fill="none" stroke="#000000" stroke-width="1.0701" d="M78.174,-770.72C102.26,-764.58 133.81,-756.86 162,-751 254.29,-731.82 284.79,-753.11 371,-715 410.68,-697.46 408.24,-672.36 448,-655 539.2,-615.18 604.54,-694.82 669,-619 682.53,-603.09 678.7,-590.5 669,-572 660.33,-555.47 644.76,-542.62 629.22,-533.16"/>
<polygon fill="#000000" stroke="#000000" stroke-width="1.0701" points="630.5421,-529.8853 620.12,-527.98 627.0792,-535.9688 630.5421,-529.8853"/>
</g>
<!-- 11&#45;&gt;4 -->
<g id="edge59" class="edge">
<title>11&#45;&gt;4</title>
<path fill="none" stroke="#000000" stroke-width=".9636" d="M56.082,-757.09C98.846,-697.37 214.24,-537.05 314,-406 320.96,-396.86 328.64,-387.03 335.73,-378.05"/>
<polygon fill="#000000" stroke="#000000" stroke-width=".9636" points="338.5729,-380.098 342.05,-370.09 333.0908,-375.7453 338.5729,-380.098"/>
</g>
<!-- 11&#45;&gt;16 -->
<g id="edge60" class="edge">
<title>11&#45;&gt;16</title>
<path fill="none" stroke="#000000" stroke-width=".8473" d="M40.089,-757.43C44.255,-667.99 59.824,-341.1 77,-72 77.539,-63.557 78.193,-54.376 78.815,-46.02"/>
<polygon fill="#000000" stroke="#000000" stroke-width=".8473" points="82.309,-46.23 79.575,-35.994 75.3291,-45.7008 82.309,-46.23"/>
</g>
<!-- 11&#45;&gt;6 -->
<g id="edge61" class="edge">
<title>11&#45;&gt;6</title>
<path fill="none" stroke="#000000" stroke-width=".7526" d="M47.109,-757.18C55.86,-731.75 70.38,-690.33 84,-655 136.27,-519.43 204.69,-359.72 231.99,-296.63"/>
<polygon fill="#000000" stroke="#000000" stroke-width=".7526" points="235.2466,-297.9173 236.01,-287.35 228.8234,-295.1348 235.2466,-297.9173"/>
</g>
<!-- 11&#45;&gt;2 -->
<g id="edge62" class="edge">
<title>11&#45;&gt;2</title>
<path fill="none" stroke="#000000" stroke-width="1.0411" d="M76.079,-757.27C97.83,-743.35 125.36,-725.73 147.79,-711.38"/>
<polygon fill="#000000" stroke="#000000" stroke-width="1.0411" points="149.8886,-714.1922 156.42,-705.85 146.1119,-708.2984 149.8886,-714.1922"/>
</g>
<!-- 11&#45;&gt;11 -->
<g id="edge63" class="edge">
<title>11&#45;&gt;11</title>
<path fill="none" stroke="#000000" stroke-width="1.4746" d="M78.162,-798.81C88.332,-797.72 96,-791.78 96,-781 96,-774.09 92.853,-769.17 87.917,-766.24"/>
<polygon fill="#000000" stroke="#000000" stroke-width="1.4746" points="88.7508,-762.8337 78.162,-763.19 86.6619,-769.5147 88.7508,-762.8337"/>
</g>
<!-- 13 -->
<g id="node16" class="node">
<title>13</title>
<polygon fill="none" stroke="#000000" points="609,-804.5 531,-804.5 531,-757.5 609,-757.5 609,-804.5"/>
<text text-anchor="middle" x="570" y="-790.9" font-family="Times,serif" font-size="12.00" fill="#000000">thanks,</text>
<text text-anchor="middle" x="570" y="-777.9" font-family="Times,serif" font-size="12.00" fill="#000000">thank, much,</text>
<text text-anchor="middle" x="570" y="-764.9" font-family="Times,serif" font-size="12.00" fill="#000000">lot</text>
</g>
<!-- 13&#45;&gt;1 -->
<g id="edge64" class="edge">
<title>13&#45;&gt;1</title>
<path fill="none" stroke="#000000" stroke-width=".7244" d="M609.33,-771.18C705.45,-745.37 938.74,-670.76 859,-572 844.68,-554.27 705.47,-530.89 630.41,-519.44"/>
<polygon fill="#000000" stroke="#000000" stroke-width=".7244" points="630.6719,-515.9398 620.26,-517.9 629.6218,-522.8606 630.6719,-515.9398"/>
</g>
<!-- 13&#45;&gt;16 -->
<g id="edge65" class="edge">
<title>13&#45;&gt;16</title>
<path fill="none" stroke="#000000" stroke-width="3.9378" d="M609.31,-780.56C721.88,-778.64 1043,-768.5 1131,-715 1279.9,-624.46 1211.5,-480.99 1138,-323 1065.2,-166.61 1007.7,-119.73 842,-72 703.67,-32.164 251.62,-21.045 118.32,-18.597"/>
<polygon fill="#000000" stroke="#000000" stroke-width="3.9378" points="118.261,-15.0955 108.2,-18.416 118.1358,-22.0944 118.261,-15.0955"/>
</g>
<!-- 14 -->
<g id="node17" class="node">
<title>14</title>
<polygon fill="none" stroke="#000000" points="748,-708.5 692,-708.5 692,-661.5 748,-661.5 748,-708.5"/>
<text text-anchor="middle" x="720" y="-694.9" font-family="Times,serif" font-size="12.00" fill="#000000">see, ok,</text>
<text text-anchor="middle" x="720" y="-681.9" font-family="Times,serif" font-size="12.00" fill="#000000">right,</text>
<text text-anchor="middle" x="720" y="-668.9" font-family="Times,serif" font-size="12.00" fill="#000000">problem</text>
</g>
<!-- 14&#45;&gt;1 -->
<g id="edge66" class="edge">
<title>14&#45;&gt;1</title>
<path fill="none" stroke="#000000" stroke-width=".8828" d="M748.35,-665.69C754.11,-662 760.18,-658.27 766,-655 798.22,-636.86 821.31,-650.29 841,-619 852.12,-601.32 854.01,-588.35 841,-572 834.38,-563.68 702.53,-536.3 629.95,-521.76"/>
<polygon fill="#000000" stroke="#000000" stroke-width=".8828" points="630.6114,-518.3231 620.12,-519.8 629.2425,-525.1879 630.6114,-518.3231"/>
</g>
<!-- 14&#45;&gt;4 -->
<g id="edge67" class="edge">
<title>14&#45;&gt;4</title>
<path fill="none" stroke="#000000" stroke-width="1.1863" d="M748.16,-665.32C753.93,-661.67 760.06,-658.04 766,-655 805.44,-634.78 833.95,-655.56 859,-619 870.81,-601.77 870.74,-589.28 859,-572 834.55,-536.03 792.45,-571.97 768,-536 756.26,-518.72 756.66,-506.54 768,-489 789.17,-456.26 826.83,-485.74 848,-453 859.34,-435.46 861.85,-421.64 848,-406 833.6,-389.73 532.75,-361.6 411.24,-350.85"/>
<polygon fill="#000000" stroke="#000000" stroke-width="1.1863" points="411.3601,-347.347 401.09,-349.95 410.7418,-354.3196 411.3601,-347.347"/>
</g>
<!-- 14&#45;&gt;16 -->
<g id="edge68" class="edge">
<title>14&#45;&gt;16</title>
<path fill="none" stroke="#000000" stroke-width="2.7867" d="M743.53,-661.36C746.57,-659 749.76,-656.81 753,-655 803.08,-626.98 837.02,-660.16 877,-619 992.05,-500.56 939.38,-371.04 826,-251 722.52,-141.44 682.43,-115.04 538,-72 459.3,-48.549 212.29,-27.939 118.04,-20.73"/>
<polygon fill="#000000" stroke="#000000" stroke-width="2.7867" points="118.0861,-17.2235 107.85,-19.957 117.5566,-24.2035 118.0861,-17.2235"/>
</g>
</g>
</svg>
