<?xml version="1.0" encoding="UTF-8" standalone="no"?>
<!DOCTYPE svg PUBLIC "-//W3C//DTD SVG 1.1//EN"
 "http://www.w3.org/Graphics/SVG/1.1/DTD/svg11.dtd">
<!-- Generated by graphviz version 2.40.1 (20161225.0304)
 -->
<!-- Pages: 1 -->
<svg width="863pt" height="570pt"
 viewBox="0.00 0.00 862.94 570.00" xmlns="http://www.w3.org/2000/svg" xmlns:xlink="http://www.w3.org/1999/xlink">
<g id="graph0" class="graph" transform="scale(1 1) rotate(0) translate(4 566)">
<polygon fill="#ffffff" stroke="transparent" points="-4,4 -4,-566 858.9397,-566 858.9397,4 -4,4"/>
<!-- 0 -->
<g id="node1" class="node">
<title>0</title>
<ellipse fill="#c0c0c0" stroke="#000000" cx="33.2417" cy="-538.5" rx="33.4852" ry="18"/>
<text text-anchor="middle" x="33.2417" y="-535.4" font-family="Times,serif" font-size="12.00" fill="#000000">BEGIN</text>
</g>
<!-- 1 -->
<g id="node2" class="node">
<title>1</title>
<polygon fill="none" stroke="#000000" points="462.2397,-383 382.2397,-383 382.2397,-347 462.2397,-347 462.2397,-383"/>
<text text-anchor="middle" x="422.2397" y="-368.4" font-family="Times,serif" font-size="12.00" fill="#000000">fax, machine,</text>
<text text-anchor="middle" x="422.2397" y="-355.4" font-family="Times,serif" font-size="12.00" fill="#000000">file, office</text>
</g>
<!-- 0&#45;&gt;1 -->
<g id="edge1" class="edge">
<title>0&#45;&gt;1</title>
<path fill="none" stroke="#000000" stroke-width="1.2163" d="M56.9217,-525.69C64.8037,-521.82 73.7427,-517.85 82.2417,-515 158.7697,-489.35 186.0997,-510.9 260.2397,-479 312.1497,-456.66 364.1597,-416.03 394.7597,-389.8"/>
<polygon fill="#000000" stroke="#000000" stroke-width="1.2163" points="397.1846,-392.3297 402.4397,-383.13 392.5946,-387.0447 397.1846,-392.3297"/>
</g>
<!-- 3 -->
<g id="node3" class="node">
<title>3</title>
<polygon fill="none" stroke="#000000" points="189.7397,-383 118.7397,-383 118.7397,-347 189.7397,-347 189.7397,-383"/>
<text text-anchor="middle" x="154.2397" y="-368.4" font-family="Times,serif" font-size="12.00" fill="#000000">good, mr,</text>
<text text-anchor="middle" x="154.2397" y="-355.4" font-family="Times,serif" font-size="12.00" fill="#000000">smith, hello</text>
</g>
<!-- 0&#45;&gt;3 -->
<g id="edge2" class="edge">
<title>0&#45;&gt;3</title>
<path fill="none" stroke="#000000" stroke-width="1.6319" d="M37.2207,-520.33C43.3607,-495.45 57.0437,-450.31 81.2417,-419 90.1617,-407.46 102.1697,-397.2 113.8697,-388.81"/>
<polygon fill="#000000" stroke="#000000" stroke-width="1.6319" points="116.0192,-391.58 122.2897,-383.04 112.0622,-385.8057 116.0192,-391.58"/>
</g>
<!-- 4 -->
<g id="node4" class="node">
<title>4</title>
<polygon fill="none" stroke="#000000" points="232.7397,-479 161.7397,-479 161.7397,-419 232.7397,-419 232.7397,-479"/>
<text text-anchor="middle" x="197.2397" y="-465.4" font-family="Times,serif" font-size="12.00" fill="#000000">advertising,</text>
<text text-anchor="middle" x="197.2397" y="-452.4" font-family="Times,serif" font-size="12.00" fill="#000000">company,</text>
<text text-anchor="middle" x="197.2397" y="-439.4" font-family="Times,serif" font-size="12.00" fill="#000000">hello,</text>
<text text-anchor="middle" x="197.2397" y="-426.4" font-family="Times,serif" font-size="12.00" fill="#000000">business</text>
</g>
<!-- 0&#45;&gt;4 -->
<g id="edge3" class="edge">
<title>0&#45;&gt;4</title>
<path fill="none" stroke="#000000" stroke-width=".8748" d="M56.7387,-525.68C81.7287,-512.04 121.8397,-490.15 152.8297,-473.24"/>
<polygon fill="#000000" stroke="#000000" stroke-width=".8748" points="154.6111,-476.2551 161.7097,-468.39 151.2557,-470.1117 154.6111,-476.2551"/>
</g>
<!-- 5 -->
<g id="node5" class="node">
<title>5</title>
<polygon fill="none" stroke="#000000" points="648.7397,-228 577.7397,-228 577.7397,-168 648.7397,-168 648.7397,-228"/>
<text text-anchor="middle" x="613.2397" y="-214.4" font-family="Times,serif" font-size="12.00" fill="#000000">experience,</text>
<text text-anchor="middle" x="613.2397" y="-201.4" font-family="Times,serif" font-size="12.00" fill="#000000">job,</text>
<text text-anchor="middle" x="613.2397" y="-188.4" font-family="Times,serif" font-size="12.00" fill="#000000">interested,</text>
<text text-anchor="middle" x="613.2397" y="-175.4" font-family="Times,serif" font-size="12.00" fill="#000000">position</text>
</g>
<!-- 0&#45;&gt;5 -->
<g id="edge4" class="edge">
<title>0&#45;&gt;5</title>
<path fill="none" stroke="#000000" stroke-width=".7767" d="M56.5917,-525.55C64.5287,-521.63 73.5837,-517.66 82.2417,-515 185.3497,-483.33 220.3897,-514.49 322.2397,-479 403.0897,-450.83 419.0397,-432 489.2397,-383 530.1197,-354.47 547.1297,-352.17 575.2397,-311 590.1197,-289.21 599.5997,-261.1 605.3797,-238.37"/>
<polygon fill="#000000" stroke="#000000" stroke-width=".7767" points="608.854,-238.8892 607.7697,-228.35 602.045,-237.2651 608.854,-238.8892"/>
</g>
<!-- 7 -->
<g id="node6" class="node">
<title>7</title>
<polygon fill="none" stroke="#000000" points="436.7397,-311 359.7397,-311 359.7397,-264 436.7397,-264 436.7397,-311"/>
<text text-anchor="middle" x="398.2397" y="-297.4" font-family="Times,serif" font-size="12.00" fill="#000000">strength,</text>
<text text-anchor="middle" x="398.2397" y="-284.4" font-family="Times,serif" font-size="12.00" fill="#000000">think,</text>
<text text-anchor="middle" x="398.2397" y="-271.4" font-family="Times,serif" font-size="12.00" fill="#000000">speaking, oh</text>
</g>
<!-- 0&#45;&gt;7 -->
<g id="edge5" class="edge">
<title>0&#45;&gt;7</title>
<path fill="none" stroke="#000000" stroke-width="1.458" d="M46.9467,-521.88C67.8327,-497.26 109.7097,-450.61 152.2397,-419 161.0897,-412.42 281.7897,-348.68 350.7597,-312.42"/>
<polygon fill="#000000" stroke="#000000" stroke-width="1.458" points="352.4967,-315.4611 359.7197,-307.71 349.2396,-309.265 352.4967,-315.4611"/>
</g>
<!-- 8 -->
<g id="node7" class="node">
<title>8</title>
<polygon fill="none" stroke="#000000" points="267.7397,-132 192.7397,-132 192.7397,-72 267.7397,-72 267.7397,-132"/>
<text text-anchor="middle" x="230.2397" y="-118.4" font-family="Times,serif" font-size="12.00" fill="#000000">afternoon,</text>
<text text-anchor="middle" x="230.2397" y="-105.4" font-family="Times,serif" font-size="12.00" fill="#000000">next,</text>
<text text-anchor="middle" x="230.2397" y="-92.4" font-family="Times,serif" font-size="12.00" fill="#000000">tomorrow,</text>
<text text-anchor="middle" x="230.2397" y="-79.4" font-family="Times,serif" font-size="12.00" fill="#000000">appointment</text>
</g>
<!-- 0&#45;&gt;8 -->
<g id="edge6" class="edge">
<title>0&#45;&gt;8</title>
<path fill="none" stroke="#000000" stroke-width=".7431" d="M33.1407,-520.2C33.5107,-496.33 35.9037,-453.53 47.2417,-419 82.8777,-310.46 158.7097,-198.04 200.7097,-140.71"/>
<polygon fill="#000000" stroke="#000000" stroke-width=".7431" points="203.7734,-142.4531 206.8997,-132.33 198.1429,-138.294 203.7734,-142.4531"/>
</g>
<!-- 9 -->
<g id="node8" class="node">
<title>9</title>
<polygon fill="none" stroke="#000000" points="503.2397,-120 423.2397,-120 423.2397,-84 503.2397,-84 503.2397,-120"/>
<text text-anchor="middle" x="463.2397" y="-105.4" font-family="Times,serif" font-size="12.00" fill="#000000">work, job,</text>
<text text-anchor="middle" x="463.2397" y="-92.4" font-family="Times,serif" font-size="12.00" fill="#000000">working, like</text>
</g>
<!-- 0&#45;&gt;9 -->
<g id="edge7" class="edge">
<title>0&#45;&gt;9</title>
<path fill="none" stroke="#000000" stroke-width="1.001" d="M56.5407,-525.38C64.4737,-521.45 73.5397,-517.51 82.2417,-515 215.9197,-476.38 262.4797,-526.57 393.2397,-479 520.7797,-432.6 555.5597,-410.14 648.2397,-311 693.9297,-262.13 735.5597,-221.39 695.2397,-168 673.3697,-139.04 574.7397,-119.03 513.3297,-109.14"/>
<polygon fill="#000000" stroke="#000000" stroke-width="1.001" points="513.8629,-105.6809 503.4397,-107.58 512.7722,-112.5954 513.8629,-105.6809"/>
</g>
<!-- 1&#45;&gt;1 -->
<g id="edge8" class="edge">
<title>1&#45;&gt;1</title>
<path fill="none" stroke="#000000" stroke-width="2.0555" d="M462.3597,-379.08C472.5697,-378.15 480.2397,-373.46 480.2397,-365 480.2397,-359.58 477.0897,-355.71 472.1497,-353.38"/>
<polygon fill="#000000" stroke="#000000" stroke-width="2.0555" points="472.9112,-349.9626 462.3597,-350.92 471.2052,-356.7516 472.9112,-349.9626"/>
</g>
<!-- 1&#45;&gt;7 -->
<g id="edge9" class="edge">
<title>1&#45;&gt;7</title>
<path fill="none" stroke="#000000" stroke-width="1.6027" d="M410.7097,-346.63C407.5497,-338.89 404.3997,-329.64 401.8497,-320.77"/>
<polygon fill="#000000" stroke="#000000" stroke-width="1.6027" points="405.2121,-319.7947 399.2597,-311.03 398.4471,-321.5936 405.2121,-319.7947"/>
</g>
<!-- 2 -->
<g id="node9" class="node">
<title>2</title>
<polygon fill="none" stroke="#000000" points="287.2397,-221.5 219.2397,-221.5 219.2397,-174.5 287.2397,-174.5 287.2397,-221.5"/>
<text text-anchor="middle" x="253.2397" y="-207.9" font-family="Times,serif" font-size="12.00" fill="#000000">thank,</text>
<text text-anchor="middle" x="253.2397" y="-194.9" font-family="Times,serif" font-size="12.00" fill="#000000">thanks, ok,</text>
<text text-anchor="middle" x="253.2397" y="-181.9" font-family="Times,serif" font-size="12.00" fill="#000000">sorry</text>
</g>
<!-- 1&#45;&gt;2 -->
<g id="edge10" class="edge">
<title>1&#45;&gt;2</title>
<path fill="none" stroke="#000000" stroke-width=".9918" d="M387.9097,-346.97C373.0697,-337 356.1397,-324.03 342.2397,-311 315.2497,-285.69 287.9397,-253.54 270.5897,-230.01"/>
<polygon fill="#000000" stroke="#000000" stroke-width=".9918" points="273.3383,-227.8372 264.6597,-221.76 267.6543,-231.9228 273.3383,-227.8372"/>
</g>
<!-- 11 -->
<g id="node10" class="node">
<title>11</title>
<ellipse fill="#c0c0c0" stroke="#000000" cx="69.2417" cy="-18" rx="27" ry="18"/>
<text text-anchor="middle" x="69.2417" y="-14.9" font-family="Times,serif" font-size="12.00" fill="#000000">END</text>
</g>
<!-- 1&#45;&gt;11 -->
<g id="edge11" class="edge">
<title>1&#45;&gt;11</title>
<path fill="none" stroke="#000000" stroke-width=".9246" d="M450.1997,-346.86C461.7997,-337.66 473.9797,-325.38 480.2397,-311 488.5797,-291.85 487.3497,-283.64 480.2397,-264 454.2397,-192.19 416.6197,-192.67 370.2397,-132 350.4697,-106.14 355.4197,-89.915 328.2397,-72 292.0797,-48.162 168.6397,-30.141 106.1397,-22.302"/>
<polygon fill="#000000" stroke="#000000" stroke-width=".9246" points="106.2835,-18.7934 95.9307,-21.045 105.428,-25.7409 106.2835,-18.7934"/>
</g>
<!-- 3&#45;&gt;3 -->
<g id="edge12" class="edge">
<title>3&#45;&gt;3</title>
<path fill="none" stroke="#000000" stroke-width="1.7816" d="M189.9897,-379.18C200.0297,-378.56 207.7397,-373.83 207.7397,-365 207.7397,-359.48 204.7297,-355.56 200.0197,-353.25"/>
<polygon fill="#000000" stroke="#000000" stroke-width="1.7816" points="200.5327,-349.7731 189.9897,-350.82 198.8844,-356.5763 200.5327,-349.7731"/>
</g>
<!-- 3&#45;&gt;7 -->
<g id="edge13" class="edge">
<title>3&#45;&gt;7</title>
<path fill="none" stroke="#000000" stroke-width="1.4709" d="M189.9797,-353.65C232.2497,-340.22 302.7897,-317.82 349.8997,-302.85"/>
<polygon fill="#000000" stroke="#000000" stroke-width="1.4709" points="351.1057,-306.1394 359.5797,-299.78 348.9895,-299.4669 351.1057,-306.1394"/>
</g>
<!-- 3&#45;&gt;8 -->
<g id="edge14" class="edge">
<title>3&#45;&gt;8</title>
<path fill="none" stroke="#000000" stroke-width=".9212" d="M159.3097,-346.77C169.0097,-311.97 190.9597,-233.67 210.2397,-168 212.7097,-159.58 215.4097,-150.57 217.9997,-141.99"/>
<polygon fill="#000000" stroke="#000000" stroke-width=".9212" points="221.4158,-142.7854 220.9697,-132.2 214.7173,-140.7532 221.4158,-142.7854"/>
</g>
<!-- 3&#45;&gt;2 -->
<g id="edge15" class="edge">
<title>3&#45;&gt;2</title>
<path fill="none" stroke="#000000" stroke-width="1.1171" d="M168.2397,-346.94C175.9697,-336.64 185.5397,-323.37 193.2397,-311 209.5397,-284.81 225.8097,-253.79 237.2897,-230.88"/>
<polygon fill="#000000" stroke="#000000" stroke-width="1.1171" points="240.4361,-232.4131 241.7497,-221.9 234.1668,-229.2993 240.4361,-232.4131"/>
</g>
<!-- 3&#45;&gt;11 -->
<g id="edge16" class="edge">
<title>3&#45;&gt;11</title>
<path fill="none" stroke="#000000" stroke-width=".9943" d="M149.7897,-346.83C135.8497,-289.91 92.9447,-114.77 76.1167,-46.065"/>
<polygon fill="#000000" stroke="#000000" stroke-width=".9943" points="79.427,-44.8678 73.6477,-35.988 72.6281,-46.5337 79.427,-44.8678"/>
</g>
<!-- 4&#45;&gt;1 -->
<g id="edge17" class="edge">
<title>4&#45;&gt;1</title>
<path fill="none" stroke="#000000" stroke-width=".897" d="M232.9997,-432.55C243.3297,-427.98 254.6697,-423.14 265.2397,-419 300.7197,-405.1 341.4197,-391.16 372.4897,-380.92"/>
<polygon fill="#000000" stroke="#000000" stroke-width=".897" points="373.8078,-384.1713 382.2197,-377.73 371.627,-377.5196 373.8078,-384.1713"/>
</g>
<!-- 4&#45;&gt;4 -->
<g id="edge18" class="edge">
<title>4&#45;&gt;4</title>
<path fill="none" stroke="#000000" stroke-width="1.9002" d="M232.9897,-464.67C243.0297,-463.99 250.7397,-458.76 250.7397,-449 250.7397,-442.9 247.7297,-438.57 243.0197,-436.01"/>
<polygon fill="#000000" stroke="#000000" stroke-width="1.9002" points="243.5543,-432.5301 232.9897,-433.33 241.7472,-439.2929 243.5543,-432.5301"/>
</g>
<!-- 4&#45;&gt;7 -->
<g id="edge19" class="edge">
<title>4&#45;&gt;7</title>
<path fill="none" stroke="#000000" stroke-width="1.5403" d="M232.7697,-425.5C250.6697,-413.3 272.4897,-397.87 291.2397,-383 317.3097,-362.33 345.3097,-337.23 366.1197,-317.95"/>
<polygon fill="#000000" stroke="#000000" stroke-width="1.5403" points="368.5126,-320.5042 373.4497,-311.13 363.7444,-315.3794 368.5126,-320.5042"/>
</g>
<!-- 4&#45;&gt;9 -->
<g id="edge20" class="edge">
<title>4&#45;&gt;9</title>
<path fill="none" stroke="#000000" stroke-width=".8052" d="M232.8997,-446.79C329.6397,-438.55 595.2097,-400.4 676.2397,-228 687.5797,-203.87 692.0597,-189.47 676.2397,-168 656.7897,-141.61 569.8797,-121.26 513.2597,-110.5"/>
<polygon fill="#000000" stroke="#000000" stroke-width=".8052" points="513.8808,-107.0556 503.4097,-108.67 512.6021,-113.9378 513.8808,-107.0556"/>
</g>
<!-- 4&#45;&gt;11 -->
<g id="edge21" class="edge">
<title>4&#45;&gt;11</title>
<path fill="none" stroke="#000000" stroke-width=".8827" d="M161.5097,-431.35C142.7697,-420.16 121.2597,-403.84 109.2397,-383 45.4167,-272.33 57.0077,-111.25 65.0517,-46.507"/>
<polygon fill="#000000" stroke="#000000" stroke-width=".8827" points="68.5646,-46.6366 66.3967,-36.266 61.6242,-45.7251 68.5646,-46.6366"/>
</g>
<!-- 5&#45;&gt;1 -->
<g id="edge22" class="edge">
<title>5&#45;&gt;1</title>
<path fill="none" stroke="#000000" stroke-width=".8051" d="M600.5897,-228.36C588.8597,-253.35 569.3097,-288.23 543.2397,-311 522.7597,-328.89 495.3897,-341.77 471.8697,-350.46"/>
<polygon fill="#000000" stroke="#000000" stroke-width=".8051" points="470.6522,-347.1781 462.3897,-353.81 472.9845,-353.7781 470.6522,-347.1781"/>
</g>
<!-- 5&#45;&gt;5 -->
<g id="edge23" class="edge">
<title>5&#45;&gt;5</title>
<path fill="none" stroke="#000000" stroke-width="2.2629" d="M648.9897,-214.42C659.0297,-213.7 666.7397,-208.23 666.7397,-198 666.7397,-191.45 663.5797,-186.85 658.6697,-184.2"/>
<polygon fill="#000000" stroke="#000000" stroke-width="2.2629" points="659.5568,-180.8142 648.9897,-181.58 657.7279,-187.5711 659.5568,-180.8142"/>
</g>
<!-- 5&#45;&gt;7 -->
<g id="edge24" class="edge">
<title>5&#45;&gt;7</title>
<path fill="none" stroke="#000000" stroke-width="1.707" d="M577.6097,-215.1C541.6897,-230.77 486.2097,-253.87 446.3997,-269.75"/>
<polygon fill="#000000" stroke="#000000" stroke-width="1.707" points="444.9035,-266.5781 436.8997,-273.52 447.4856,-273.0846 444.9035,-266.5781"/>
</g>
<!-- 5&#45;&gt;9 -->
<g id="edge25" class="edge">
<title>5&#45;&gt;9</title>
<path fill="none" stroke="#000000" stroke-width=".9302" d="M577.7197,-178.8C552.4797,-163.6 519.0297,-142.28 494.7397,-125.95"/>
<polygon fill="#000000" stroke="#000000" stroke-width=".9302" points="496.4729,-122.8968 486.2297,-120.19 492.5492,-128.6938 496.4729,-122.8968"/>
</g>
<!-- 5&#45;&gt;11 -->
<g id="edge26" class="edge">
<title>5&#45;&gt;11</title>
<path fill="none" stroke="#000000" stroke-width=".8872" d="M577.5997,-174.86C572.8797,-172.32 568.0197,-169.96 563.2397,-168 500.1997,-142.18 470.9397,-169.77 414.2397,-132 386.7197,-113.67 398.2997,-89.503 370.2397,-72 326.6497,-44.803 176.8997,-27.862 106.4397,-21.216"/>
<polygon fill="#000000" stroke="#000000" stroke-width=".8872" points="106.5233,-17.7089 96.2437,-20.274 105.8793,-24.6792 106.5233,-17.7089"/>
</g>
<!-- 7&#45;&gt;1 -->
<g id="edge27" class="edge">
<title>7&#45;&gt;1</title>
<path fill="none" stroke="#000000" stroke-width=".9657" d="M411.7897,-311.03C414.8497,-319.15 417.7797,-328.34 420.0297,-336.8"/>
<polygon fill="#000000" stroke="#000000" stroke-width=".9657" points="416.6519,-337.7234 422.3897,-346.63 423.4584,-336.0892 416.6519,-337.7234"/>
</g>
<!-- 7&#45;&gt;5 -->
<g id="edge28" class="edge">
<title>7&#45;&gt;5</title>
<path fill="none" stroke="#000000" stroke-width=".7186" d="M437.1997,-268.96C474.1397,-252.91 529.4397,-229.92 568.2397,-214.5"/>
<polygon fill="#000000" stroke="#000000" stroke-width=".7186" points="569.7157,-217.6802 577.7297,-210.75 567.1432,-211.17 569.7157,-217.6802"/>
</g>
<!-- 7&#45;&gt;7 -->
<g id="edge29" class="edge">
<title>7&#45;&gt;7</title>
<path fill="none" stroke="#000000" stroke-width="2.4232" d="M436.7997,-301.62C447.0097,-300.82 454.7397,-296.11 454.7397,-287.5 454.7397,-281.98 451.5697,-278.07 446.5997,-275.76"/>
<polygon fill="#000000" stroke="#000000" stroke-width="2.4232" points="447.3433,-272.3389 436.7997,-273.38 445.6912,-279.1412 447.3433,-272.3389"/>
</g>
<!-- 7&#45;&gt;9 -->
<g id="edge30" class="edge">
<title>7&#45;&gt;9</title>
<path fill="none" stroke="#000000" stroke-width=".8431" d="M404.4097,-263.8C409.7097,-253.14 416.4297,-240.22 421.2397,-228 434.0497,-195.45 443.4297,-156.23 450.8297,-130.29"/>
<polygon fill="#000000" stroke="#000000" stroke-width=".8431" points="454.284,-130.9528 453.7797,-120.37 447.5744,-128.9575 454.284,-130.9528"/>
</g>
<!-- 7&#45;&gt;2 -->
<g id="edge31" class="edge">
<title>7&#45;&gt;2</title>
<path fill="none" stroke="#000000" stroke-width=".7097" d="M359.5797,-267.19C339.2797,-255.32 314.4897,-240.15 293.9097,-227.03"/>
<polygon fill="#000000" stroke="#000000" stroke-width=".7097" points="295.6762,-224.0049 285.3697,-221.55 291.8958,-229.8963 295.6762,-224.0049"/>
</g>
<!-- 7&#45;&gt;11 -->
<g id="edge32" class="edge">
<title>7&#45;&gt;11</title>
<path fill="none" stroke="#000000" stroke-width="1.1468" d="M390.1197,-263.86C372.2297,-213.17 328.3697,-96.595 295.2397,-72 265.4997,-49.917 162.1097,-31.726 106.0497,-23.209"/>
<polygon fill="#000000" stroke="#000000" stroke-width="1.1468" points="106.245,-19.6994 95.8377,-21.684 105.2111,-26.6227 106.245,-19.6994"/>
</g>
<!-- 8&#45;&gt;1 -->
<g id="edge33" class="edge">
<title>8&#45;&gt;1</title>
<path fill="none" stroke="#000000" stroke-width=".7696" d="M268.1297,-114.32C324.1397,-134.93 426.4897,-182.38 464.2397,-264 473.0097,-282.96 471.0197,-291.24 464.2397,-311 460.7697,-321.11 454.5497,-330.79 447.9397,-339.08"/>
<polygon fill="#000000" stroke="#000000" stroke-width=".7696" points="445.1079,-337.0071 441.2897,-346.89 450.4376,-341.5452 445.1079,-337.0071"/>
</g>
<!-- 8&#45;&gt;7 -->
<g id="edge34" class="edge">
<title>8&#45;&gt;7</title>
<path fill="none" stroke="#000000" stroke-width="1.705" d="M267.7697,-127.78C283.0397,-139.19 300.3297,-153.33 314.2397,-168 339.7297,-194.88 363.4697,-229.99 379.1697,-255.19"/>
<polygon fill="#000000" stroke="#000000" stroke-width="1.705" points="376.3608,-257.3041 384.5797,-263.99 382.3241,-253.638 376.3608,-257.3041"/>
</g>
<!-- 8&#45;&gt;8 -->
<g id="edge35" class="edge">
<title>8&#45;&gt;8</title>
<path fill="none" stroke="#000000" stroke-width="1.9638" d="M267.8497,-117.63C278.0097,-116.81 285.7397,-111.6 285.7397,-102 285.7397,-95.852 282.5697,-91.503 277.6197,-88.955"/>
<polygon fill="#000000" stroke="#000000" stroke-width="1.9638" points="278.4126,-85.5444 267.8497,-86.366 276.6195,-92.3108 278.4126,-85.5444"/>
</g>
<!-- 8&#45;&gt;2 -->
<g id="edge36" class="edge">
<title>8&#45;&gt;2</title>
<path fill="none" stroke="#000000" stroke-width="1.2461" d="M243.8397,-132.35C246.7797,-142.51 249.5597,-153.89 251.6397,-164.28"/>
<polygon fill="#000000" stroke="#000000" stroke-width="1.2461" points="248.2251,-165.0643 253.4697,-174.27 255.1105,-163.803 248.2251,-165.0643"/>
</g>
<!-- 8&#45;&gt;11 -->
<g id="edge37" class="edge">
<title>8&#45;&gt;11</title>
<path fill="none" stroke="#000000" stroke-width=".9884" d="M192.5397,-82.122C186.1097,-78.738 179.4897,-75.264 173.2397,-72 148.5397,-59.086 120.4897,-44.527 99.7477,-33.783"/>
<polygon fill="#000000" stroke="#000000" stroke-width=".9884" points="101.2612,-30.6253 90.7717,-29.135 98.0423,-36.8414 101.2612,-30.6253"/>
</g>
<!-- 9&#45;&gt;5 -->
<g id="edge38" class="edge">
<title>9&#45;&gt;5</title>
<path fill="none" stroke="#000000" stroke-width=".8607" d="M496.9497,-120.1C518.2597,-132.9 545.9497,-150.4 568.9997,-165.57"/>
<polygon fill="#000000" stroke="#000000" stroke-width=".8607" points="567.3114,-168.65 577.5797,-171.26 571.1802,-162.8163 567.3114,-168.65"/>
</g>
<!-- 9&#45;&gt;7 -->
<g id="edge39" class="edge">
<title>9&#45;&gt;7</title>
<path fill="none" stroke="#000000" stroke-width="1.8035" d="M465.9297,-120.37C463.9497,-145.3 453.8097,-190.96 439.2397,-228 435.6697,-237.07 431.0497,-246.53 426.1197,-255.16"/>
<polygon fill="#000000" stroke="#000000" stroke-width="1.8035" points="423.0764,-253.4291 420.9097,-263.8 429.0709,-257.0438 423.0764,-253.4291"/>
</g>
<!-- 9&#45;&gt;9 -->
<g id="edge40" class="edge">
<title>9&#45;&gt;9</title>
<path fill="none" stroke="#000000" stroke-width="1.9763" d="M503.3597,-117.56C513.5697,-116.54 521.2397,-111.35 521.2397,-102 521.2397,-96.009 518.0897,-91.727 513.1497,-89.155"/>
<polygon fill="#000000" stroke="#000000" stroke-width="1.9763" points="513.9315,-85.7397 503.3597,-86.438 512.0595,-92.4848 513.9315,-85.7397"/>
</g>
<!-- 9&#45;&gt;11 -->
<g id="edge41" class="edge">
<title>9&#45;&gt;11</title>
<path fill="none" stroke="#000000" stroke-width=".9313" d="M434.9597,-83.863C426.9197,-79.382 417.9597,-75.009 409.2397,-72 303.4897,-35.506 170.6297,-23.51 106.8297,-19.697"/>
<polygon fill="#000000" stroke="#000000" stroke-width=".9313" points="106.6442,-16.1812 96.4637,-19.115 106.2517,-23.1702 106.6442,-16.1812"/>
</g>
<!-- 2&#45;&gt;1 -->
<g id="edge42" class="edge">
<title>2&#45;&gt;1</title>
<path fill="none" stroke="#000000" stroke-width=".7246" d="M278.2697,-221.76C299.2297,-245.54 329.9297,-282.58 360.2397,-311 371.4197,-321.49 384.5697,-331.93 395.9697,-340.81"/>
<polygon fill="#000000" stroke="#000000" stroke-width=".7246" points="393.8712,-343.6117 403.9197,-346.97 398.1587,-338.0784 393.8712,-343.6117"/>
</g>
<!-- 2&#45;&gt;7 -->
<g id="edge43" class="edge">
<title>2&#45;&gt;7</title>
<path fill="none" stroke="#000000" stroke-width="1.2592" d="M287.4297,-215.7C308.4897,-227.91 335.5097,-244.41 357.6397,-258.51"/>
<polygon fill="#000000" stroke="#000000" stroke-width="1.2592" points="355.8625,-261.5281 366.1697,-263.98 359.6412,-255.6356 355.8625,-261.5281"/>
</g>
<!-- 2&#45;&gt;8 -->
<g id="edge44" class="edge">
<title>2&#45;&gt;8</title>
<path fill="none" stroke="#000000" stroke-width=".778" d="M241.6397,-174.27C238.5897,-164.58 235.5897,-153.09 233.1997,-142.17"/>
<polygon fill="#000000" stroke="#000000" stroke-width=".778" points="236.624,-141.445 231.1897,-132.35 229.7661,-142.8488 236.624,-141.445"/>
</g>
<!-- 2&#45;&gt;2 -->
<g id="edge45" class="edge">
<title>2&#45;&gt;2</title>
<path fill="none" stroke="#000000" stroke-width="1.1208" d="M287.2497,-214.46C297.3697,-213.97 305.2397,-208.48 305.2397,-198 305.2397,-191.28 302.0097,-186.62 297.0297,-184"/>
<polygon fill="#000000" stroke="#000000" stroke-width="1.1208" points="297.8014,-180.5852 287.2497,-181.54 296.0938,-187.3737 297.8014,-180.5852"/>
</g>
<!-- 2&#45;&gt;11 -->
<g id="edge46" class="edge">
<title>2&#45;&gt;11</title>
<path fill="none" stroke="#000000" stroke-width="2.4285" d="M228.1997,-174.3C215.0497,-161.79 198.6997,-146.14 184.2397,-132 157.2797,-105.63 151.0297,-98.544 124.2397,-72 113.6397,-61.492 101.8297,-49.888 91.8817,-40.137"/>
<polygon fill="#000000" stroke="#000000" stroke-width="2.4285" points="94.2819,-37.5887 84.6887,-33.092 89.3839,-42.5897 94.2819,-37.5887"/>
</g>
<!-- 6 -->
<g id="node11" class="node">
<title>6</title>
<polygon fill="none" stroke="#000000" points="158.7397,-562 91.7397,-562 91.7397,-515 158.7397,-515 158.7397,-562"/>
<text text-anchor="middle" x="125.2397" y="-548.4" font-family="Times,serif" font-size="12.00" fill="#000000">pocket,</text>
<text text-anchor="middle" x="125.2397" y="-535.4" font-family="Times,serif" font-size="12.00" fill="#000000">thank, pm,</text>
<text text-anchor="middle" x="125.2397" y="-522.4" font-family="Times,serif" font-size="12.00" fill="#000000">port</text>
</g>
<!-- 6&#45;&gt;1 -->
<g id="edge47" class="edge">
<title>6&#45;&gt;1</title>
<path fill="none" stroke="#000000" stroke-width="1.0919" d="M158.8997,-535.13C202.0097,-529.46 277.5397,-514.89 331.2397,-479 364.6197,-456.69 391.5597,-418.3 407.2297,-392.29"/>
<polygon fill="#000000" stroke="#000000" stroke-width="1.0919" points="410.449,-393.7184 412.4797,-383.32 404.4077,-390.1825 410.449,-393.7184"/>
</g>
<!-- 6&#45;&gt;5 -->
<g id="edge48" class="edge">
<title>6&#45;&gt;5</title>
<path fill="none" stroke="#000000" stroke-width=".8095" d="M158.7897,-533.84C193.0697,-529.09 247.8697,-521.5 295.2397,-515 412.5597,-498.89 453.5797,-532.46 559.2397,-479 612.2497,-452.18 626.1997,-436.39 652.2397,-383 666.3997,-353.96 660.0097,-343.23 662.2397,-311 663.6797,-290.16 668.7997,-283.83 662.2397,-264 659.0497,-254.35 653.8397,-244.95 647.9797,-236.42"/>
<polygon fill="#000000" stroke="#000000" stroke-width=".8095" points="650.6955,-234.2047 641.9597,-228.21 645.0504,-238.344 650.6955,-234.2047"/>
</g>
<!-- 6&#45;&gt;7 -->
<g id="edge49" class="edge">
<title>6&#45;&gt;7</title>
<path fill="none" stroke="#000000" stroke-width="1.2221" d="M158.9997,-529.15C188.0697,-519.88 229.9897,-503.5 260.2397,-479 315.6097,-434.16 359.4197,-361.91 381.8297,-320.15"/>
<polygon fill="#000000" stroke="#000000" stroke-width="1.2221" points="384.9662,-321.7058 386.5497,-311.23 378.779,-318.4319 384.9662,-321.7058"/>
</g>
<!-- 6&#45;&gt;8 -->
<g id="edge50" class="edge">
<title>6&#45;&gt;8</title>
<path fill="none" stroke="#000000" stroke-width=".7442" d="M158.9897,-535.3C208.2997,-529.57 301.9497,-514.63 373.2397,-479 433.0997,-449.09 460.7497,-443.55 489.2397,-383 531.8497,-292.43 500.1197,-230.87 422.2397,-168 380.1797,-134.04 319.6097,-117.09 277.8097,-108.95"/>
<polygon fill="#000000" stroke="#000000" stroke-width=".7442" points="278.3397,-105.4887 267.8697,-107.11 277.0656,-112.3718 278.3397,-105.4887"/>
</g>
<!-- 6&#45;&gt;9 -->
<g id="edge51" class="edge">
<title>6&#45;&gt;9</title>
<path fill="none" stroke="#000000" stroke-width=".7686" d="M158.7597,-533.63C193.0197,-528.71 247.7997,-521 295.2397,-515 364.9197,-506.19 549.7097,-516.27 609.2397,-479 652.0897,-452.17 645.4097,-427.03 670.2397,-383 720.1097,-294.59 810.3697,-247.48 747.2397,-168 732.6897,-149.67 590.9297,-123.38 513.3697,-110.2"/>
<polygon fill="#000000" stroke="#000000" stroke-width=".7686" points="513.7737,-106.7187 503.3297,-108.5 512.605,-113.6204 513.7737,-106.7187"/>
</g>
<!-- 6&#45;&gt;2 -->
<g id="edge52" class="edge">
<title>6&#45;&gt;2</title>
<path fill="none" stroke="#000000" stroke-width=".7436" d="M125.0697,-514.58C126.0497,-488.6 131.1797,-447.07 152.2397,-419 172.0597,-392.58 197.8197,-409.71 217.2397,-383 249.8297,-338.18 255.0497,-271.69 254.8597,-231.82"/>
<polygon fill="#000000" stroke="#000000" stroke-width=".7436" points="258.3591,-231.7491 254.6897,-221.81 251.3601,-231.868 258.3591,-231.7491"/>
</g>
<!-- 6&#45;&gt;11 -->
<g id="edge53" class="edge">
<title>6&#45;&gt;11</title>
<path fill="none" stroke="#000000" stroke-width="1.6725" d="M158.7397,-533.52C192.9997,-528.51 247.7597,-520.72 295.2397,-515 372.8697,-505.65 578.7097,-520.07 645.2397,-479 772.1397,-400.66 854.9397,-291.43 771.2397,-168 695.1397,-55.771 241.1897,-25.955 106.7397,-19.537"/>
<polygon fill="#000000" stroke="#000000" stroke-width="1.6725" points="106.6827,-16.0307 96.5317,-19.065 106.3593,-23.0232 106.6827,-16.0307"/>
</g>
<!-- 10 -->
<g id="node12" class="node">
<title>10</title>
<polygon fill="none" stroke="#000000" points="380.7397,-562 303.7397,-562 303.7397,-515 380.7397,-515 380.7397,-562"/>
<text text-anchor="middle" x="342.2397" y="-548.4" font-family="Times,serif" font-size="12.00" fill="#000000">salary,</text>
<text text-anchor="middle" x="342.2397" y="-535.4" font-family="Times,serif" font-size="12.00" fill="#000000">price, bonus,</text>
<text text-anchor="middle" x="342.2397" y="-522.4" font-family="Times,serif" font-size="12.00" fill="#000000">offer</text>
</g>
<!-- 10&#45;&gt;1 -->
<g id="edge54" class="edge">
<title>10&#45;&gt;1</title>
<path fill="none" stroke="#000000" stroke-width=".9047" d="M381.1797,-524.87C401.7997,-515.44 425.2697,-500.62 437.2397,-479 452.0297,-452.29 443.7997,-416.81 434.7697,-392.57"/>
<polygon fill="#000000" stroke="#000000" stroke-width=".9047" points="438.0045,-391.2326 431.0497,-383.24 431.5023,-393.8252 438.0045,-391.2326"/>
</g>
<!-- 10&#45;&gt;7 -->
<g id="edge55" class="edge">
<title>10&#45;&gt;7</title>
<path fill="none" stroke="#000000" stroke-width="1.3475" d="M380.9897,-526.36C405.2997,-516.94 435.6597,-501.64 455.2397,-479 484.8597,-444.77 481.5797,-427.61 489.2397,-383 491.9497,-367.23 496.8497,-361.07 489.2397,-347 479.8497,-329.63 462.9297,-316.52 446.2097,-307.09"/>
<polygon fill="#000000" stroke="#000000" stroke-width="1.3475" points="447.4667,-303.7957 436.9897,-302.22 444.1973,-309.9854 447.4667,-303.7957"/>
</g>
<!-- 10&#45;&gt;11 -->
<g id="edge56" class="edge">
<title>10&#45;&gt;11</title>
<path fill="none" stroke="#000000" stroke-width=".7917" d="M380.8097,-535.37C465.0397,-526.56 667.3097,-494.37 785.2397,-383 854.8597,-317.25 850.8397,-248.67 799.2397,-168 758.3897,-104.14 729.5997,-97.61 658.2397,-72 555.8397,-35.245 219.3697,-22.338 106.5197,-18.983"/>
<polygon fill="#000000" stroke="#000000" stroke-width=".7917" points="106.407,-15.4784 96.3097,-18.687 106.204,-22.4754 106.407,-15.4784"/>
</g>
<!-- 10&#45;&gt;10 -->
<g id="edge57" class="edge">
<title>10&#45;&gt;10</title>
<path fill="none" stroke="#000000" stroke-width="2.6276" d="M380.7997,-554.85C391.0097,-553.92 398.7397,-548.47 398.7397,-538.5 398.7397,-532.11 395.5697,-527.58 390.5997,-524.9"/>
<polygon fill="#000000" stroke="#000000" stroke-width="2.6276" points="391.3735,-521.482 380.7997,-522.15 389.4822,-528.2217 391.3735,-521.482"/>
</g>
</g>
</svg>
