<?xml version="1.0" encoding="UTF-8" standalone="no"?>
<!DOCTYPE svg PUBLIC "-//W3C//DTD SVG 1.1//EN"
 "http://www.w3.org/Graphics/SVG/1.1/DTD/svg11.dtd">
<!-- Generated by graphviz version 2.40.1 (20161225.0304)
 -->
<!-- Pages: 1 -->
<svg width="407pt" height="511pt"
 viewBox="0.00 0.00 406.92 511.00" xmlns="http://www.w3.org/2000/svg" xmlns:xlink="http://www.w3.org/1999/xlink">
<g id="graph0" class="graph" transform="scale(1 1) rotate(0) translate(4 507)">
<polygon fill="#ffffff" stroke="transparent" points="-4,4 -4,-507 402.9197,-507 402.9197,4 -4,4"/>
<!-- 0 -->
<g id="node1" class="node">
<title>0</title>
<ellipse fill="#c0c0c0" stroke="#000000" cx="33.2417" cy="-485" rx="33.4852" ry="18"/>
<text text-anchor="middle" x="33.2417" y="-481.9" font-family="Times,serif" font-size="12.00" fill="#000000">BEGIN</text>
</g>
<!-- 1 -->
<g id="node2" class="node">
<title>1</title>
<polygon fill="none" stroke="#000000" points="96.7417,-431 31.7417,-431 31.7417,-395 96.7417,-395 96.7417,-431"/>
<text text-anchor="middle" x="64.2417" y="-416.4" font-family="Times,serif" font-size="12.00" fill="#000000">job, work,</text>
<text text-anchor="middle" x="64.2417" y="-403.4" font-family="Times,serif" font-size="12.00" fill="#000000">get, office</text>
</g>
<!-- 0&#45;&gt;1 -->
<g id="edge1" class="edge">
<title>0&#45;&gt;1</title>
<path fill="none" stroke="#000000" stroke-width="1.5512" d="M40.9047,-467.2C44.3807,-459.13 48.5697,-449.4 52.4347,-440.42"/>
<polygon fill="#000000" stroke="#000000" stroke-width="1.5512" points="55.7118,-441.659 56.4517,-431.09 49.2824,-438.8908 55.7118,-441.659"/>
</g>
<!-- 2 -->
<g id="node3" class="node">
<title>2</title>
<polygon fill="none" stroke="#000000" points="255.2397,-359 193.2397,-359 193.2397,-299 255.2397,-299 255.2397,-359"/>
<text text-anchor="middle" x="224.2397" y="-345.4" font-family="Times,serif" font-size="12.00" fill="#000000">strength,</text>
<text text-anchor="middle" x="224.2397" y="-332.4" font-family="Times,serif" font-size="12.00" fill="#000000">think,</text>
<text text-anchor="middle" x="224.2397" y="-319.4" font-family="Times,serif" font-size="12.00" fill="#000000">speaking,</text>
<text text-anchor="middle" x="224.2397" y="-306.4" font-family="Times,serif" font-size="12.00" fill="#000000">name</text>
</g>
<!-- 0&#45;&gt;2 -->
<g id="edge2" class="edge">
<title>0&#45;&gt;2</title>
<path fill="none" stroke="#000000" stroke-width="1.8318" d="M57.6057,-472.55C76.3427,-462.47 102.4597,-447.31 123.2397,-431 147.7497,-411.76 172.4097,-386.99 191.2297,-366.67"/>
<polygon fill="#000000" stroke="#000000" stroke-width="1.8318" points="193.9701,-368.8599 198.1397,-359.12 188.8063,-364.1338 193.9701,-368.8599"/>
</g>
<!-- 3 -->
<g id="node4" class="node">
<title>3</title>
<polygon fill="none" stroke="#000000" points="359.7397,-263 276.7397,-263 276.7397,-216 359.7397,-216 359.7397,-263"/>
<text text-anchor="middle" x="318.2397" y="-249.4" font-family="Times,serif" font-size="12.00" fill="#000000">morning,</text>
<text text-anchor="middle" x="318.2397" y="-236.4" font-family="Times,serif" font-size="12.00" fill="#000000">meet, monica,</text>
<text text-anchor="middle" x="318.2397" y="-223.4" font-family="Times,serif" font-size="12.00" fill="#000000">lucy</text>
</g>
<!-- 0&#45;&gt;3 -->
<g id="edge3" class="edge">
<title>0&#45;&gt;3</title>
<path fill="none" stroke="#000000" stroke-width="2.2675" d="M64.2117,-478.26C117.3197,-465.05 225.4997,-430.56 282.2397,-359 301.7597,-334.38 310.7197,-299.3 314.8197,-273.52"/>
<polygon fill="#000000" stroke="#000000" stroke-width="2.2675" points="318.3089,-273.8428 316.2497,-263.45 311.3784,-272.8586 318.3089,-273.8428"/>
</g>
<!-- 4 -->
<g id="node5" class="node">
<title>4</title>
<polygon fill="none" stroke="#000000" points="131.2417,-108 63.2417,-108 63.2417,-72 131.2417,-72 131.2417,-108"/>
<text text-anchor="middle" x="97.2417" y="-93.4" font-family="Times,serif" font-size="12.00" fill="#000000">letter, mail,</text>
<text text-anchor="middle" x="97.2417" y="-80.4" font-family="Times,serif" font-size="12.00" fill="#000000">take, need</text>
</g>
<!-- 0&#45;&gt;4 -->
<g id="edge4" class="edge">
<title>0&#45;&gt;4</title>
<path fill="none" stroke="#000000" stroke-width="1.9503" d="M28.6627,-467.14C26.2197,-456.68 23.4697,-443.18 22.2417,-431 20.6367,-415.08 20.3167,-410.88 22.2417,-395 34.8447,-290.96 70.7947,-171.24 87.9337,-118.01"/>
<polygon fill="#000000" stroke="#000000" stroke-width="1.9503" points="91.3337,-118.8722 91.0987,-108.28 84.677,-116.7069 91.3337,-118.8722"/>
</g>
<!-- 1&#45;&gt;1 -->
<g id="edge5" class="edge">
<title>1&#45;&gt;1</title>
<path fill="none" stroke="#000000" stroke-width="2.883" d="M96.7837,-426.49C106.8397,-426.21 114.7397,-421.72 114.7397,-413 114.7397,-407.55 111.6597,-403.75 106.8897,-401.6"/>
<polygon fill="#000000" stroke="#000000" stroke-width="2.883" points="107.2853,-398.1078 96.7837,-399.51 105.8676,-404.9628 107.2853,-398.1078"/>
</g>
<!-- 1&#45;&gt;2 -->
<g id="edge6" class="edge">
<title>1&#45;&gt;2</title>
<path fill="none" stroke="#000000" stroke-width="1.8564" d="M92.9077,-394.98C118.2697,-380.9 155.3697,-361.42 183.7397,-347.28"/>
<polygon fill="#000000" stroke="#000000" stroke-width="1.8564" points="185.5745,-350.2774 192.9897,-342.71 182.4739,-344.0016 185.5745,-350.2774"/>
</g>
<!-- 1&#45;&gt;4 -->
<g id="edge7" class="edge">
<title>1&#45;&gt;4</title>
<path fill="none" stroke="#000000" stroke-width="1.2338" d="M58.4177,-394.51C58.5187,-384.09 59.9917,-370.82 61.2417,-359 70.5297,-271.16 80.7527,-167.1 89.0927,-118.13"/>
<polygon fill="#000000" stroke="#000000" stroke-width="1.2338" points="92.5397,-118.7367 90.8967,-108.27 85.654,-117.4768 92.5397,-118.7367"/>
</g>
<!-- 6 -->
<g id="node6" class="node">
<title>6</title>
<ellipse fill="#c0c0c0" stroke="#000000" cx="48.2417" cy="-18" rx="27" ry="18"/>
<text text-anchor="middle" x="48.2417" y="-14.9" font-family="Times,serif" font-size="12.00" fill="#000000">END</text>
</g>
<!-- 1&#45;&gt;6 -->
<g id="edge8" class="edge">
<title>1&#45;&gt;6</title>
<path fill="none" stroke="#000000" stroke-width=".903" d="M63.1427,-394.88C60.8027,-355.7 55.2937,-260.14 52.2417,-180 50.4617,-133.27 49.3067,-78.932 48.7157,-46.562"/>
<polygon fill="#000000" stroke="#000000" stroke-width=".903" points="52.2136,-46.4053 48.5367,-36.469 45.2147,-46.5295 52.2136,-46.4053"/>
</g>
<!-- 2&#45;&gt;1 -->
<g id="edge9" class="edge">
<title>2&#45;&gt;1</title>
<path fill="none" stroke="#000000" stroke-width="1.3401" d="M193.0197,-348.44C168.2297,-362.12 133.4797,-380.36 106.2697,-393.96"/>
<polygon fill="#000000" stroke="#000000" stroke-width="1.3401" points="104.3943,-390.9832 96.9887,-398.56 107.5029,-397.2551 104.3943,-390.9832"/>
</g>
<!-- 2&#45;&gt;2 -->
<g id="edge10" class="edge">
<title>2&#45;&gt;2</title>
<path fill="none" stroke="#000000" stroke-width="2.5894" d="M255.3397,-344.75C265.3297,-344.58 273.2397,-339.34 273.2397,-329 273.2397,-322.54 270.1497,-318.07 265.3897,-315.58"/>
<polygon fill="#000000" stroke="#000000" stroke-width="2.5894" points="265.8718,-312.099 255.3397,-313.25 264.2908,-318.9181 265.8718,-312.099"/>
</g>
<!-- 2&#45;&gt;3 -->
<g id="edge11" class="edge">
<title>2&#45;&gt;3</title>
<path fill="none" stroke="#000000" stroke-width=".9465" d="M249.6397,-298.7C258.8897,-289.49 269.5197,-279.36 279.6397,-270.12"/>
<polygon fill="#000000" stroke="#000000" stroke-width=".9465" points="282.1616,-272.5586 287.2397,-263.26 277.4713,-267.3623 282.1616,-272.5586"/>
</g>
<!-- 2&#45;&gt;4 -->
<g id="edge12" class="edge">
<title>2&#45;&gt;4</title>
<path fill="none" stroke="#000000" stroke-width="1.4371" d="M206.5597,-298.77C189.1597,-261.23 161.7097,-195.81 130.2397,-144 124.5097,-134.56 117.3997,-124.85 111.0997,-116.32"/>
<polygon fill="#000000" stroke="#000000" stroke-width="1.4371" points="113.8941,-114.2121 105.1497,-108.23 108.2551,-118.3595 113.8941,-114.2121"/>
</g>
<!-- 2&#45;&gt;6 -->
<g id="edge13" class="edge">
<title>2&#45;&gt;6</title>
<path fill="none" stroke="#000000" stroke-width="1.116" d="M255.5597,-326.45C294.0297,-321.46 357.8097,-306.67 387.2397,-263 398.9197,-245.68 394.1097,-235.73 387.2397,-216 342.6597,-87.858 162.4397,-39.28 84.4737,-24.01"/>
<polygon fill="#000000" stroke="#000000" stroke-width="1.116" points="85.088,-20.5642 74.6127,-22.151 83.7912,-27.4431 85.088,-20.5642"/>
</g>
<!-- 3&#45;&gt;2 -->
<g id="edge14" class="edge">
<title>3&#45;&gt;2</title>
<path fill="none" stroke="#000000" stroke-width="1.8295" d="M299.3497,-263.24C288.8997,-273.93 275.6397,-286.69 263.1397,-298.11"/>
<polygon fill="#000000" stroke="#000000" stroke-width="1.8295" points="260.5645,-295.7196 255.4897,-305.02 265.2567,-300.9142 260.5645,-295.7196"/>
</g>
<!-- 3&#45;&gt;3 -->
<g id="edge15" class="edge">
<title>3&#45;&gt;3</title>
<path fill="none" stroke="#000000" stroke-width="2.45" d="M359.9497,-253.53C370.1497,-252.49 377.7397,-247.81 377.7397,-239.5 377.7397,-234.17 374.6297,-230.34 369.6997,-228"/>
<polygon fill="#000000" stroke="#000000" stroke-width="2.45" points="370.5083,-224.594 359.9497,-225.47 368.75,-231.3696 370.5083,-224.594"/>
</g>
<!-- 3&#45;&gt;4 -->
<g id="edge16" class="edge">
<title>3&#45;&gt;4</title>
<path fill="none" stroke="#000000" stroke-width=".9854" d="M323.2697,-215.82C326.3297,-194.53 326.9197,-163.67 310.2397,-144 288.7097,-118.59 197.4397,-102.72 141.5897,-95.197"/>
<polygon fill="#000000" stroke="#000000" stroke-width=".9854" points="141.9695,-91.7169 131.5997,-93.889 141.0607,-98.6577 141.9695,-91.7169"/>
</g>
<!-- 5 -->
<g id="node7" class="node">
<title>5</title>
<polygon fill="none" stroke="#000000" points="282.7397,-180 211.7397,-180 211.7397,-144 282.7397,-144 282.7397,-180"/>
<text text-anchor="middle" x="247.2397" y="-165.4" font-family="Times,serif" font-size="12.00" fill="#000000">sure, thank,</text>
<text text-anchor="middle" x="247.2397" y="-152.4" font-family="Times,serif" font-size="12.00" fill="#000000">ok, thanks</text>
</g>
<!-- 3&#45;&gt;5 -->
<g id="edge17" class="edge">
<title>3&#45;&gt;5</title>
<path fill="none" stroke="#000000" stroke-width="1.3958" d="M290.2797,-215.83C281.7097,-207.1 272.5597,-197.17 264.8497,-188.23"/>
<polygon fill="#000000" stroke="#000000" stroke-width="1.3958" points="267.3487,-185.7639 258.2297,-180.37 261.9947,-190.2733 267.3487,-185.7639"/>
</g>
<!-- 4&#45;&gt;1 -->
<g id="edge18" class="edge">
<title>4&#45;&gt;1</title>
<path fill="none" stroke="#000000" stroke-width=".9979" d="M100.0497,-108.27C100.2597,-151.74 89.2107,-264.71 79.2417,-359 78.3627,-367.31 77.3737,-376.34 76.0827,-384.59"/>
<polygon fill="#000000" stroke="#000000" stroke-width=".9979" points="72.6246,-384.044 74.2717,-394.51 79.5108,-385.3012 72.6246,-384.044"/>
</g>
<!-- 4&#45;&gt;2 -->
<g id="edge19" class="edge">
<title>4&#45;&gt;2</title>
<path fill="none" stroke="#000000" stroke-width="1.7241" d="M121.0997,-108.23C130.4997,-118.35 140.5997,-131.41 148.2397,-144 177.1297,-191.56 202.6297,-250.59 215.8997,-288.99"/>
<polygon fill="#000000" stroke="#000000" stroke-width="1.7241" points="212.6747,-290.384 219.1497,-298.77 219.3175,-288.1765 212.6747,-290.384"/>
</g>
<!-- 4&#45;&gt;4 -->
<g id="edge20" class="edge">
<title>4&#45;&gt;4</title>
<path fill="none" stroke="#000000" stroke-width="2.964" d="M131.2497,-103.47C141.3697,-103.07 149.2397,-98.578 149.2397,-90 149.2397,-84.639 146.1697,-80.874 141.3897,-78.707"/>
<polygon fill="#000000" stroke="#000000" stroke-width="2.964" points="141.7616,-75.2072 131.2497,-76.53 140.2922,-82.0512 141.7616,-75.2072"/>
</g>
<!-- 4&#45;&gt;6 -->
<g id="edge21" class="edge">
<title>4&#45;&gt;6</title>
<path fill="none" stroke="#000000" stroke-width=".9093" d="M84.8767,-71.831C78.8857,-63.028 71.5997,-52.322 65.1077,-42.783"/>
<polygon fill="#000000" stroke="#000000" stroke-width=".9093" points="67.9492,-40.7373 59.4297,-34.439 62.162,-44.6755 67.9492,-40.7373"/>
</g>
<!-- 5&#45;&gt;1 -->
<g id="edge22" class="edge">
<title>5&#45;&gt;1</title>
<path fill="none" stroke="#000000" stroke-width=".9268" d="M238.6597,-180.09C220.9697,-216.35 177.8297,-299.51 127.2397,-359 118.2397,-369.58 107.0897,-379.85 96.6737,-388.55"/>
<polygon fill="#000000" stroke="#000000" stroke-width=".9268" points="94.4525,-385.845 88.9027,-394.87 98.8693,-391.2758 94.4525,-385.845"/>
</g>
<!-- 5&#45;&gt;2 -->
<g id="edge23" class="edge">
<title>5&#45;&gt;2</title>
<path fill="none" stroke="#000000" stroke-width="1.3744" d="M244.7397,-180.16C241.1797,-205.98 234.5697,-254 229.8197,-288.52"/>
<polygon fill="#000000" stroke="#000000" stroke-width="1.3744" points="226.3066,-288.376 228.4097,-298.76 233.2411,-289.3309 226.3066,-288.376"/>
</g>
<!-- 5&#45;&gt;3 -->
<g id="edge24" class="edge">
<title>5&#45;&gt;3</title>
<path fill="none" stroke="#000000" stroke-width="1.0905" d="M269.6597,-180.12C278.1097,-188.44 287.6397,-198.54 296.0597,-208.04"/>
<polygon fill="#000000" stroke="#000000" stroke-width="1.0905" points="293.6283,-210.5779 302.8297,-215.83 298.9118,-205.9862 293.6283,-210.5779"/>
</g>
<!-- 5&#45;&gt;4 -->
<g id="edge25" class="edge">
<title>5&#45;&gt;4</title>
<path fill="none" stroke="#000000" stroke-width="1.0546" d="M211.6897,-144.94C190.2997,-134.67 162.9097,-121.52 140.2897,-110.67"/>
<polygon fill="#000000" stroke="#000000" stroke-width="1.0546" points="141.7784,-107.5023 131.2497,-106.32 138.7431,-113.81 141.7784,-107.5023"/>
</g>
<!-- 5&#45;&gt;6 -->
<g id="edge26" class="edge">
<title>5&#45;&gt;6</title>
<path fill="none" stroke="#000000" stroke-width="2.5542" d="M232.6597,-144C216.1397,-124.44 187.6697,-93.175 158.2397,-72 134.3197,-54.792 104.0897,-40.397 81.3707,-30.809"/>
<polygon fill="#000000" stroke="#000000" stroke-width="2.5542" points="82.404,-27.4493 71.8247,-26.875 79.7368,-33.9213 82.404,-27.4493"/>
</g>
<!-- 5&#45;&gt;5 -->
<g id="edge27" class="edge">
<title>5&#45;&gt;5</title>
<path fill="none" stroke="#000000" stroke-width="1.1996" d="M282.9897,-175.43C293.0297,-174.84 300.7397,-170.37 300.7397,-162 300.7397,-156.77 297.7297,-153.06 293.0197,-150.87"/>
<polygon fill="#000000" stroke="#000000" stroke-width="1.1996" points="293.519,-147.3937 282.9897,-148.57 291.9544,-154.2166 293.519,-147.3937"/>
</g>
</g>
</svg>
